<svg xmlns="http://www.w3.org/2000/svg" viewBox="0 0 1600 1000" width="1600" height="1000" role="img" aria-label="bw-portrait-room">
  <defs>
    <linearGradient id="paper" x1="0" y1="0" x2="1" y2="1">
      <stop offset="0" stop-color="#060606"/>
      <stop offset="0.58" stop-color="#25241f"/>
      <stop offset="1" stop-color="#ada493"/>
    </linearGradient>
    <filter id="soft">
      <feGaussianBlur stdDeviation="9.6"/>
    </filter>
    <filter id="grain">
      <feTurbulence type="fractalNoise" baseFrequency="0.82" numOctaves="4" seed="101"/>
      <feColorMatrix type="saturate" values="0"/>
      <feComponentTransfer>
        <feFuncA type="table" tableValues="0 0.12"/>
      </feComponentTransfer>
    </filter>
    <filter id="tonalDisplace">
      <feTurbulence type="fractalNoise" baseFrequency="0.018" numOctaves="3" seed="120" result="noise"/>
      <feDisplacementMap in="SourceGraphic" in2="noise" scale="6.4"/>
    </filter>
  </defs>
  <rect width="1600" height="1000" fill="url(#paper)"/>
  <rect width="1600" height="1000" fill="#060504" opacity="0.12"/>
  <g filter="url(#tonalDisplace)">
    <rect x="919" y="859" width="352" height="205" fill="#f4dfb8" opacity="0.01" filter="url(#soft)"/><rect x="1076" y="-10" width="416" height="250" fill="#f4dfb8" opacity="0.02" filter="url(#soft)"/><rect x="1233" y="121" width="480" height="295" fill="#f4dfb8" opacity="0.03" filter="url(#soft)"/><rect x="-210" y="252" width="544" height="160" fill="#f4dfb8" opacity="0.01" filter="url(#soft)"/><rect x="-53" y="383" width="288" height="205" fill="#f4dfb8" opacity="0.02" filter="url(#soft)"/><rect x="104" y="514" width="352" height="250" fill="#f4dfb8" opacity="0.03" filter="url(#soft)"/>
    
        <rect x="128" y="100" width="1312" height="660" fill="#d8d0bd" opacity="0.07"/>
        
    <rect x="192" y="140" width="352" height="420" fill="#ecd8ad" opacity="0.12" filter="url(#soft)"/>
    <line x1="360.96" y1="140" x2="360.96" y2="560" stroke="#f1d9a9" stroke-width="6.4" opacity="0.108"/>
    <line x1="192" y1="358.40000000000003" x2="544" y2="358.40000000000003" stroke="#f1d9a9" stroke-width="5.6000000000000005" opacity="0.09"/>
        <path d="M624 1000 C624 780, 752 680, 927.9999999999999 690 C1040 710, 1120 840, 1152 1000 Z" fill="#d7cdbc" opacity="0.15" filter="url(#soft)"/>
        <path d="M784 270 C672 310, 624 400, 672 490 L768 550 L880.0000000000001 530 L927.9999999999999 450 L880.0000000000001 350 C848 300, 816 270, 784 270 Z" fill="#cfc6b6" opacity="0.16" filter="url(#soft)"/>
        <path d="M832 240 C1040 310, 1088 530, 880.0000000000001 620 L752 580 L800 450 L736 380 L832 240 Z" fill="#050504" opacity="0.46"/>
  </g>
  
  <rect x="0" y="0" width="320" height="1000" fill="#020201" opacity="0.3" filter="url(#soft)"/>
  <rect x="1280" y="0" width="320" height="1000" fill="#020201" opacity="0.28" filter="url(#soft)"/>
  <rect x="0" y="0" width="1600" height="180" fill="#020201" opacity="0.18" filter="url(#soft)"/>
  <rect x="0" y="820" width="1600" height="180" fill="#020201" opacity="0.34" filter="url(#soft)"/>
  <rect width="1600" height="1000" fill="#0a0806" opacity="0.08"/>
  <rect width="1600" height="1000" filter="url(#grain)" opacity="0.24"/>
  <g><line x1="1072" y1="50" x2="1069" y2="960" stroke="#f4e6c8" stroke-width="0.8" opacity="0.01"/><line x1="1006" y1="50" x2="1006" y2="960" stroke="#f4e6c8" stroke-width="0.55" opacity="0.02"/><line x1="940" y1="50" x2="943" y2="960" stroke="#f4e6c8" stroke-width="0.55" opacity="0.03"/><line x1="874" y1="50" x2="871" y2="960" stroke="#f4e6c8" stroke-width="0.55" opacity="0.03"/></g>
  <g><circle cx="27" cy="463" r="0.57" fill="#efe2c6" opacity="0.02"/><circle cx="238" cy="644" r="0.79" fill="#efe2c6" opacity="0.02"/><circle cx="449" cy="825" r="1.01" fill="#efe2c6" opacity="0.03"/><circle cx="660" cy="6" r="0.35" fill="#efe2c6" opacity="0.04"/><circle cx="871" cy="187" r="0.57" fill="#efe2c6" opacity="0.01"/><circle cx="1082" cy="368" r="0.79" fill="#efe2c6" opacity="0.02"/><circle cx="1293" cy="549" r="1.01" fill="#efe2c6" opacity="0.02"/><circle cx="1504" cy="730" r="0.35" fill="#efe2c6" opacity="0.03"/><circle cx="115" cy="911" r="0.57" fill="#efe2c6" opacity="0.04"/><circle cx="326" cy="92" r="0.79" fill="#efe2c6" opacity="0.01"/><circle cx="537" cy="273" r="1.01" fill="#efe2c6" opacity="0.02"/><circle cx="748" cy="454" r="0.35" fill="#efe2c6" opacity="0.02"/><circle cx="959" cy="635" r="0.57" fill="#efe2c6" opacity="0.03"/><circle cx="1170" cy="816" r="0.79" fill="#efe2c6" opacity="0.04"/><circle cx="1381" cy="997" r="1.01" fill="#efe2c6" opacity="0.01"/><circle cx="1592" cy="178" r="0.35" fill="#efe2c6" opacity="0.02"/><circle cx="203" cy="359" r="0.57" fill="#efe2c6" opacity="0.02"/><circle cx="414" cy="540" r="0.79" fill="#efe2c6" opacity="0.03"/><circle cx="625" cy="721" r="1.01" fill="#efe2c6" opacity="0.04"/><circle cx="836" cy="902" r="0.35" fill="#efe2c6" opacity="0.01"/><circle cx="1047" cy="83" r="0.57" fill="#efe2c6" opacity="0.02"/><circle cx="1258" cy="264" r="0.79" fill="#efe2c6" opacity="0.02"/><circle cx="1469" cy="445" r="1.01" fill="#efe2c6" opacity="0.03"/><circle cx="80" cy="626" r="0.35" fill="#efe2c6" opacity="0.04"/><circle cx="291" cy="807" r="0.57" fill="#efe2c6" opacity="0.01"/><circle cx="502" cy="988" r="0.79" fill="#efe2c6" opacity="0.02"/><circle cx="713" cy="169" r="1.01" fill="#efe2c6" opacity="0.02"/><circle cx="924" cy="350" r="0.35" fill="#efe2c6" opacity="0.03"/><circle cx="1135" cy="531" r="0.57" fill="#efe2c6" opacity="0.04"/><circle cx="1346" cy="712" r="0.79" fill="#efe2c6" opacity="0.01"/><circle cx="1557" cy="893" r="1.01" fill="#efe2c6" opacity="0.02"/><circle cx="168" cy="74" r="0.35" fill="#efe2c6" opacity="0.02"/><circle cx="379" cy="255" r="0.57" fill="#efe2c6" opacity="0.03"/><circle cx="590" cy="436" r="0.79" fill="#efe2c6" opacity="0.04"/><circle cx="801" cy="617" r="1.01" fill="#efe2c6" opacity="0.01"/><circle cx="1012" cy="798" r="0.35" fill="#efe2c6" opacity="0.02"/><circle cx="1223" cy="979" r="0.57" fill="#efe2c6" opacity="0.02"/><circle cx="1434" cy="160" r="0.79" fill="#efe2c6" opacity="0.03"/><circle cx="45" cy="341" r="1.01" fill="#efe2c6" opacity="0.04"/><circle cx="256" cy="522" r="0.35" fill="#efe2c6" opacity="0.01"/><circle cx="467" cy="703" r="0.57" fill="#efe2c6" opacity="0.02"/><circle cx="678" cy="884" r="0.79" fill="#efe2c6" opacity="0.02"/><circle cx="889" cy="65" r="1.01" fill="#efe2c6" opacity="0.03"/><circle cx="1100" cy="246" r="0.35" fill="#efe2c6" opacity="0.04"/><circle cx="1311" cy="427" r="0.57" fill="#efe2c6" opacity="0.01"/><circle cx="1522" cy="608" r="0.79" fill="#efe2c6" opacity="0.02"/><circle cx="133" cy="789" r="1.01" fill="#efe2c6" opacity="0.02"/><circle cx="344" cy="970" r="0.35" fill="#efe2c6" opacity="0.03"/><circle cx="555" cy="151" r="0.57" fill="#efe2c6" opacity="0.04"/><circle cx="766" cy="332" r="0.79" fill="#efe2c6" opacity="0.01"/><circle cx="977" cy="513" r="1.01" fill="#efe2c6" opacity="0.02"/><circle cx="1188" cy="694" r="0.35" fill="#efe2c6" opacity="0.02"/><circle cx="1399" cy="875" r="0.57" fill="#efe2c6" opacity="0.03"/><circle cx="10" cy="56" r="0.79" fill="#efe2c6" opacity="0.04"/><circle cx="221" cy="237" r="1.01" fill="#efe2c6" opacity="0.01"/><circle cx="432" cy="418" r="0.35" fill="#efe2c6" opacity="0.02"/><circle cx="643" cy="599" r="0.57" fill="#efe2c6" opacity="0.02"/><circle cx="854" cy="780" r="0.79" fill="#efe2c6" opacity="0.03"/><circle cx="1065" cy="961" r="1.01" fill="#efe2c6" opacity="0.04"/><circle cx="1276" cy="142" r="0.35" fill="#efe2c6" opacity="0.01"/><circle cx="1487" cy="323" r="0.57" fill="#efe2c6" opacity="0.02"/><circle cx="98" cy="504" r="0.79" fill="#efe2c6" opacity="0.02"/><circle cx="309" cy="685" r="1.01" fill="#efe2c6" opacity="0.03"/><circle cx="520" cy="866" r="0.35" fill="#efe2c6" opacity="0.04"/><circle cx="731" cy="47" r="0.57" fill="#efe2c6" opacity="0.01"/><circle cx="942" cy="228" r="0.79" fill="#efe2c6" opacity="0.02"/><circle cx="1153" cy="409" r="1.01" fill="#efe2c6" opacity="0.02"/><circle cx="1364" cy="590" r="0.35" fill="#efe2c6" opacity="0.03"/><circle cx="1575" cy="771" r="0.57" fill="#efe2c6" opacity="0.04"/><circle cx="186" cy="952" r="0.79" fill="#efe2c6" opacity="0.01"/><circle cx="397" cy="133" r="1.01" fill="#efe2c6" opacity="0.02"/><circle cx="608" cy="314" r="0.35" fill="#efe2c6" opacity="0.02"/><circle cx="819" cy="495" r="0.57" fill="#efe2c6" opacity="0.03"/><circle cx="1030" cy="676" r="0.79" fill="#efe2c6" opacity="0.04"/><circle cx="1241" cy="857" r="1.01" fill="#efe2c6" opacity="0.01"/><circle cx="1452" cy="38" r="0.35" fill="#efe2c6" opacity="0.02"/><circle cx="63" cy="219" r="0.57" fill="#efe2c6" opacity="0.02"/><circle cx="274" cy="400" r="0.79" fill="#efe2c6" opacity="0.03"/><circle cx="485" cy="581" r="1.01" fill="#efe2c6" opacity="0.04"/><circle cx="696" cy="762" r="0.35" fill="#efe2c6" opacity="0.01"/><circle cx="907" cy="943" r="0.57" fill="#efe2c6" opacity="0.02"/><circle cx="1118" cy="124" r="0.79" fill="#efe2c6" opacity="0.02"/><circle cx="1329" cy="305" r="1.01" fill="#efe2c6" opacity="0.03"/><circle cx="1540" cy="486" r="0.35" fill="#efe2c6" opacity="0.04"/><circle cx="151" cy="667" r="0.57" fill="#efe2c6" opacity="0.01"/><circle cx="362" cy="848" r="0.79" fill="#efe2c6" opacity="0.02"/><circle cx="573" cy="29" r="1.01" fill="#efe2c6" opacity="0.02"/><circle cx="784" cy="210" r="0.35" fill="#efe2c6" opacity="0.03"/><circle cx="995" cy="391" r="0.57" fill="#efe2c6" opacity="0.04"/><circle cx="1206" cy="572" r="0.79" fill="#efe2c6" opacity="0.01"/><circle cx="1417" cy="753" r="1.01" fill="#efe2c6" opacity="0.02"/><circle cx="28" cy="934" r="0.35" fill="#efe2c6" opacity="0.02"/><circle cx="239" cy="115" r="0.57" fill="#efe2c6" opacity="0.03"/><circle cx="450" cy="296" r="0.79" fill="#efe2c6" opacity="0.04"/><circle cx="661" cy="477" r="1.01" fill="#efe2c6" opacity="0.01"/><circle cx="872" cy="658" r="0.35" fill="#efe2c6" opacity="0.02"/><circle cx="1083" cy="839" r="0.57" fill="#efe2c6" opacity="0.02"/><circle cx="1294" cy="20" r="0.79" fill="#efe2c6" opacity="0.03"/><circle cx="1505" cy="201" r="1.01" fill="#efe2c6" opacity="0.04"/><circle cx="116" cy="382" r="0.35" fill="#efe2c6" opacity="0.01"/><circle cx="327" cy="563" r="0.57" fill="#efe2c6" opacity="0.02"/><circle cx="538" cy="744" r="0.79" fill="#efe2c6" opacity="0.02"/><circle cx="749" cy="925" r="1.01" fill="#efe2c6" opacity="0.03"/><circle cx="960" cy="106" r="0.35" fill="#efe2c6" opacity="0.04"/><circle cx="1171" cy="287" r="0.57" fill="#efe2c6" opacity="0.01"/><circle cx="1382" cy="468" r="0.79" fill="#efe2c6" opacity="0.02"/><circle cx="1593" cy="649" r="1.01" fill="#efe2c6" opacity="0.02"/><circle cx="204" cy="830" r="0.35" fill="#efe2c6" opacity="0.03"/><circle cx="415" cy="11" r="0.57" fill="#efe2c6" opacity="0.04"/><circle cx="626" cy="192" r="0.79" fill="#efe2c6" opacity="0.01"/></g>
</svg>
