<svg xmlns="http://www.w3.org/2000/svg" viewBox="0 0 1000 1320" width="1000" height="1320" role="img" aria-label="window-still-life">
  <defs>
    <linearGradient id="paper" x1="0" y1="0" x2="1" y2="1">
      <stop offset="0" stop-color="#080706"/>
      <stop offset="0.58" stop-color="#302b23"/>
      <stop offset="1" stop-color="#b09973"/>
    </linearGradient>
    <filter id="soft">
      <feGaussianBlur stdDeviation="7.92"/>
    </filter>
    <filter id="grain">
      <feTurbulence type="fractalNoise" baseFrequency="0.82" numOctaves="4" seed="102"/>
      <feColorMatrix type="saturate" values="0"/>
      <feComponentTransfer>
        <feFuncA type="table" tableValues="0 0.12"/>
      </feComponentTransfer>
    </filter>
    <filter id="tonalDisplace">
      <feTurbulence type="fractalNoise" baseFrequency="0.018" numOctaves="3" seed="121" result="noise"/>
      <feDisplacementMap in="SourceGraphic" in2="noise" scale="5.28"/>
    </filter>
  </defs>
  <rect width="1000" height="1320" fill="url(#paper)"/>
  <rect width="1000" height="1320" fill="#060504" opacity="0.12"/>
  <g filter="url(#tonalDisplace)">
    <rect x="246" y="606" width="260" height="330" fill="#f4dfb8" opacity="0.01" filter="url(#soft)"/><rect x="403" y="737" width="300" height="389.4" fill="#f4dfb8" opacity="0.02" filter="url(#soft)"/><rect x="560" y="868" width="340" height="211.2" fill="#f4dfb8" opacity="0.03" filter="url(#soft)"/><rect x="717" y="999" width="180" height="270.6" fill="#f4dfb8" opacity="0.01" filter="url(#soft)"/><rect x="-126" y="1130" width="220" height="330" fill="#f4dfb8" opacity="0.02" filter="url(#soft)"/><rect x="31" y="-59" width="260" height="389.4" fill="#f4dfb8" opacity="0.03" filter="url(#soft)"/>
    
        
    <rect x="120" y="105.60000000000001" width="460" height="765.5999999999999" fill="#ecd8ad" opacity="0.14" filter="url(#soft)"/>
    <line x1="340.8" y1="105.60000000000001" x2="340.8" y2="871.1999999999999" stroke="#f1d9a9" stroke-width="4" opacity="0.12600000000000003"/>
    <line x1="120" y1="503.712" x2="580.0000000000001" y2="503.712" stroke="#f1d9a9" stroke-width="3.5" opacity="0.10500000000000001"/>
        <path d="M120 976.8 H860" stroke="#e1c593" stroke-width="9.24" opacity="0.22"/>
        <path d="M580 950.4 C560 805.1999999999999, 600 660, 640 620.4 C680 686.4, 710 831.6, 690 950.4 Z" fill="#d3b07a" opacity="0.2"/>
        <path d="M640 633.6 C580 422.40000000000003, 710 369.6, 680 184.8" fill="none" stroke="#e8d6a8" stroke-width="7" opacity="0.22"/>
        <path d="M320 990 L490 923.9999999999999 L550 1029.6000000000001 L360 1108.8 Z" fill="#0a0806" opacity="0.28"/>
  </g>
  
  <rect x="0" y="0" width="200" height="1320" fill="#020201" opacity="0.3" filter="url(#soft)"/>
  <rect x="800" y="0" width="200" height="1320" fill="#020201" opacity="0.28" filter="url(#soft)"/>
  <rect x="0" y="0" width="1000" height="237.6" fill="#020201" opacity="0.18" filter="url(#soft)"/>
  <rect x="0" y="1082.4" width="1000" height="237.6" fill="#020201" opacity="0.34" filter="url(#soft)"/>
  <rect width="1000" height="1320" fill="#0a0806" opacity="0.08"/>
  <rect width="1000" height="1320" filter="url(#grain)" opacity="0.24"/>
  <g><line x1="129" y1="66" x2="126" y2="1267.2" stroke="#f4e6c8" stroke-width="0.8" opacity="0.01"/><line x1="284" y1="66" x2="284" y2="1267.2" stroke="#f4e6c8" stroke-width="0.55" opacity="0.02"/><line x1="440" y1="66" x2="443" y2="1267.2" stroke="#f4e6c8" stroke-width="0.55" opacity="0.03"/><line x1="595" y1="66" x2="592" y2="1267.2" stroke="#f4e6c8" stroke-width="0.55" opacity="0.03"/></g>
  <g><circle cx="954" cy="786" r="0.79" fill="#efe2c6" opacity="0.02"/><circle cx="165" cy="967" r="1.01" fill="#efe2c6" opacity="0.03"/><circle cx="376" cy="1148" r="0.35" fill="#efe2c6" opacity="0.04"/><circle cx="587" cy="9" r="0.57" fill="#efe2c6" opacity="0.01"/><circle cx="798" cy="190" r="0.79" fill="#efe2c6" opacity="0.02"/><circle cx="9" cy="371" r="1.01" fill="#efe2c6" opacity="0.02"/><circle cx="220" cy="552" r="0.35" fill="#efe2c6" opacity="0.03"/><circle cx="431" cy="733" r="0.57" fill="#efe2c6" opacity="0.04"/><circle cx="642" cy="914" r="0.79" fill="#efe2c6" opacity="0.01"/><circle cx="853" cy="1095" r="1.01" fill="#efe2c6" opacity="0.02"/><circle cx="64" cy="1276" r="0.35" fill="#efe2c6" opacity="0.02"/><circle cx="275" cy="137" r="0.57" fill="#efe2c6" opacity="0.03"/><circle cx="486" cy="318" r="0.79" fill="#efe2c6" opacity="0.04"/><circle cx="697" cy="499" r="1.01" fill="#efe2c6" opacity="0.01"/><circle cx="908" cy="680" r="0.35" fill="#efe2c6" opacity="0.02"/><circle cx="119" cy="861" r="0.57" fill="#efe2c6" opacity="0.02"/><circle cx="330" cy="1042" r="0.79" fill="#efe2c6" opacity="0.03"/><circle cx="541" cy="1223" r="1.01" fill="#efe2c6" opacity="0.04"/><circle cx="752" cy="84" r="0.35" fill="#efe2c6" opacity="0.01"/><circle cx="963" cy="265" r="0.57" fill="#efe2c6" opacity="0.02"/><circle cx="174" cy="446" r="0.79" fill="#efe2c6" opacity="0.02"/><circle cx="385" cy="627" r="1.01" fill="#efe2c6" opacity="0.03"/><circle cx="596" cy="808" r="0.35" fill="#efe2c6" opacity="0.04"/><circle cx="807" cy="989" r="0.57" fill="#efe2c6" opacity="0.01"/><circle cx="18" cy="1170" r="0.79" fill="#efe2c6" opacity="0.02"/><circle cx="229" cy="31" r="1.01" fill="#efe2c6" opacity="0.02"/><circle cx="440" cy="212" r="0.35" fill="#efe2c6" opacity="0.03"/><circle cx="651" cy="393" r="0.57" fill="#efe2c6" opacity="0.04"/><circle cx="862" cy="574" r="0.79" fill="#efe2c6" opacity="0.01"/><circle cx="73" cy="755" r="1.01" fill="#efe2c6" opacity="0.02"/><circle cx="284" cy="936" r="0.35" fill="#efe2c6" opacity="0.02"/><circle cx="495" cy="1117" r="0.57" fill="#efe2c6" opacity="0.03"/><circle cx="706" cy="1298" r="0.79" fill="#efe2c6" opacity="0.04"/><circle cx="917" cy="159" r="1.01" fill="#efe2c6" opacity="0.01"/><circle cx="128" cy="340" r="0.35" fill="#efe2c6" opacity="0.02"/><circle cx="339" cy="521" r="0.57" fill="#efe2c6" opacity="0.02"/><circle cx="550" cy="702" r="0.79" fill="#efe2c6" opacity="0.03"/><circle cx="761" cy="883" r="1.01" fill="#efe2c6" opacity="0.04"/><circle cx="972" cy="1064" r="0.35" fill="#efe2c6" opacity="0.01"/><circle cx="183" cy="1245" r="0.57" fill="#efe2c6" opacity="0.02"/><circle cx="394" cy="106" r="0.79" fill="#efe2c6" opacity="0.02"/><circle cx="605" cy="287" r="1.01" fill="#efe2c6" opacity="0.03"/><circle cx="816" cy="468" r="0.35" fill="#efe2c6" opacity="0.04"/><circle cx="27" cy="649" r="0.57" fill="#efe2c6" opacity="0.01"/><circle cx="238" cy="830" r="0.79" fill="#efe2c6" opacity="0.02"/><circle cx="449" cy="1011" r="1.01" fill="#efe2c6" opacity="0.02"/><circle cx="660" cy="1192" r="0.35" fill="#efe2c6" opacity="0.03"/><circle cx="871" cy="53" r="0.57" fill="#efe2c6" opacity="0.04"/><circle cx="82" cy="234" r="0.79" fill="#efe2c6" opacity="0.01"/><circle cx="293" cy="415" r="1.01" fill="#efe2c6" opacity="0.02"/><circle cx="504" cy="596" r="0.35" fill="#efe2c6" opacity="0.02"/><circle cx="715" cy="777" r="0.57" fill="#efe2c6" opacity="0.03"/><circle cx="926" cy="958" r="0.79" fill="#efe2c6" opacity="0.04"/><circle cx="137" cy="1139" r="1.01" fill="#efe2c6" opacity="0.01"/><circle cx="348" cy="0" r="0.35" fill="#efe2c6" opacity="0.02"/><circle cx="559" cy="181" r="0.57" fill="#efe2c6" opacity="0.02"/><circle cx="770" cy="362" r="0.79" fill="#efe2c6" opacity="0.03"/><circle cx="981" cy="543" r="1.01" fill="#efe2c6" opacity="0.04"/><circle cx="192" cy="724" r="0.35" fill="#efe2c6" opacity="0.01"/><circle cx="403" cy="905" r="0.57" fill="#efe2c6" opacity="0.02"/><circle cx="614" cy="1086" r="0.79" fill="#efe2c6" opacity="0.02"/><circle cx="825" cy="1267" r="1.01" fill="#efe2c6" opacity="0.03"/><circle cx="36" cy="128" r="0.35" fill="#efe2c6" opacity="0.04"/><circle cx="247" cy="309" r="0.57" fill="#efe2c6" opacity="0.01"/><circle cx="458" cy="490" r="0.79" fill="#efe2c6" opacity="0.02"/><circle cx="669" cy="671" r="1.01" fill="#efe2c6" opacity="0.02"/><circle cx="880" cy="852" r="0.35" fill="#efe2c6" opacity="0.03"/><circle cx="91" cy="1033" r="0.57" fill="#efe2c6" opacity="0.04"/><circle cx="302" cy="1214" r="0.79" fill="#efe2c6" opacity="0.01"/><circle cx="513" cy="75" r="1.01" fill="#efe2c6" opacity="0.02"/><circle cx="724" cy="256" r="0.35" fill="#efe2c6" opacity="0.02"/><circle cx="935" cy="437" r="0.57" fill="#efe2c6" opacity="0.03"/><circle cx="146" cy="618" r="0.79" fill="#efe2c6" opacity="0.04"/><circle cx="357" cy="799" r="1.01" fill="#efe2c6" opacity="0.01"/><circle cx="568" cy="980" r="0.35" fill="#efe2c6" opacity="0.02"/><circle cx="779" cy="1161" r="0.57" fill="#efe2c6" opacity="0.02"/><circle cx="990" cy="22" r="0.79" fill="#efe2c6" opacity="0.03"/><circle cx="201" cy="203" r="1.01" fill="#efe2c6" opacity="0.04"/><circle cx="412" cy="384" r="0.35" fill="#efe2c6" opacity="0.01"/><circle cx="623" cy="565" r="0.57" fill="#efe2c6" opacity="0.02"/><circle cx="834" cy="746" r="0.79" fill="#efe2c6" opacity="0.02"/><circle cx="45" cy="927" r="1.01" fill="#efe2c6" opacity="0.03"/><circle cx="256" cy="1108" r="0.35" fill="#efe2c6" opacity="0.04"/><circle cx="467" cy="1289" r="0.57" fill="#efe2c6" opacity="0.01"/><circle cx="678" cy="150" r="0.79" fill="#efe2c6" opacity="0.02"/><circle cx="889" cy="331" r="1.01" fill="#efe2c6" opacity="0.02"/><circle cx="100" cy="512" r="0.35" fill="#efe2c6" opacity="0.03"/><circle cx="311" cy="693" r="0.57" fill="#efe2c6" opacity="0.04"/><circle cx="522" cy="874" r="0.79" fill="#efe2c6" opacity="0.01"/><circle cx="733" cy="1055" r="1.01" fill="#efe2c6" opacity="0.02"/><circle cx="944" cy="1236" r="0.35" fill="#efe2c6" opacity="0.02"/><circle cx="155" cy="97" r="0.57" fill="#efe2c6" opacity="0.03"/><circle cx="366" cy="278" r="0.79" fill="#efe2c6" opacity="0.04"/><circle cx="577" cy="459" r="1.01" fill="#efe2c6" opacity="0.01"/><circle cx="788" cy="640" r="0.35" fill="#efe2c6" opacity="0.02"/><circle cx="999" cy="821" r="0.57" fill="#efe2c6" opacity="0.02"/><circle cx="210" cy="1002" r="0.79" fill="#efe2c6" opacity="0.03"/><circle cx="421" cy="1183" r="1.01" fill="#efe2c6" opacity="0.04"/><circle cx="632" cy="44" r="0.35" fill="#efe2c6" opacity="0.01"/><circle cx="843" cy="225" r="0.57" fill="#efe2c6" opacity="0.02"/><circle cx="54" cy="406" r="0.79" fill="#efe2c6" opacity="0.02"/><circle cx="265" cy="587" r="1.01" fill="#efe2c6" opacity="0.03"/><circle cx="476" cy="768" r="0.35" fill="#efe2c6" opacity="0.04"/><circle cx="687" cy="949" r="0.57" fill="#efe2c6" opacity="0.01"/><circle cx="898" cy="1130" r="0.79" fill="#efe2c6" opacity="0.02"/><circle cx="109" cy="1311" r="1.01" fill="#efe2c6" opacity="0.02"/><circle cx="320" cy="172" r="0.35" fill="#efe2c6" opacity="0.03"/><circle cx="531" cy="353" r="0.57" fill="#efe2c6" opacity="0.04"/><circle cx="742" cy="534" r="0.79" fill="#efe2c6" opacity="0.01"/><circle cx="953" cy="715" r="1.01" fill="#efe2c6" opacity="0.02"/></g>
</svg>
