<svg xmlns="http://www.w3.org/2000/svg" viewBox="0 0 1600 1000" width="1600" height="1000" role="img" aria-label="lake-horizon">
  <defs>
    <linearGradient id="paper" x1="0" y1="0" x2="1" y2="1">
      <stop offset="0" stop-color="#07090a"/>
      <stop offset="0.58" stop-color="#26343a"/>
      <stop offset="1" stop-color="#a7aaa0"/>
    </linearGradient>
    <filter id="soft">
      <feGaussianBlur stdDeviation="9.6"/>
    </filter>
    <filter id="grain">
      <feTurbulence type="fractalNoise" baseFrequency="0.82" numOctaves="4" seed="103"/>
      <feColorMatrix type="saturate" values="0"/>
      <feComponentTransfer>
        <feFuncA type="table" tableValues="0 0.12"/>
      </feComponentTransfer>
    </filter>
    <filter id="tonalDisplace">
      <feTurbulence type="fractalNoise" baseFrequency="0.018" numOctaves="3" seed="122" result="noise"/>
      <feDisplacementMap in="SourceGraphic" in2="noise" scale="6.4"/>
    </filter>
  </defs>
  <rect width="1600" height="1000" fill="url(#paper)"/>
  <rect width="1600" height="1000" fill="#060504" opacity="0.055"/>
  <rect width="1600" height="1000" fill="#e6d1ad" opacity="0.028"/>
  <g filter="url(#tonalDisplace)">
    <rect x="1005" y="-23" width="480" height="295" fill="#f4dfb8" opacity="0.01" filter="url(#soft)"/><rect x="1162" y="108" width="544" height="160" fill="#f4dfb8" opacity="0.02" filter="url(#soft)"/><rect x="1319" y="239" width="288" height="205" fill="#f4dfb8" opacity="0.03" filter="url(#soft)"/><rect x="-124" y="370" width="352" height="250" fill="#f4dfb8" opacity="0.01" filter="url(#soft)"/><rect x="33" y="501" width="416" height="295" fill="#f4dfb8" opacity="0.02" filter="url(#soft)"/><rect x="190" y="632" width="480" height="160" fill="#f4dfb8" opacity="0.03" filter="url(#soft)"/>
    
        <rect x="0" y="420" width="1600" height="320" fill="#c7c8bb" opacity="0.18" filter="url(#soft)"/>
        <line x1="0" y1="480" x2="1600" y2="460" stroke="#e8dfcc" stroke-width="6" opacity="0.27"/>
        <path d="M0 400 L288 360 L576 390 L832 350 L1216 410 L1600 370" fill="none" stroke="#d5cebc" stroke-width="10" opacity="0.16"/>
        <path d="M880.0000000000001 500 L976 490 L1040 510 L927.9999999999999 520 Z" fill="#070706" opacity="0.52"/>
  </g>
  
  <rect x="0" y="0" width="320" height="1000" fill="#020201" opacity="0.18" filter="url(#soft)"/>
  <rect x="1280" y="0" width="320" height="1000" fill="#020201" opacity="0.16" filter="url(#soft)"/>
  <rect x="0" y="0" width="1600" height="180" fill="#020201" opacity="0.1" filter="url(#soft)"/>
  <rect x="0" y="820" width="1600" height="180" fill="#020201" opacity="0.22" filter="url(#soft)"/>
  <rect width="1600" height="1000" fill="#0a0806" opacity="0.028"/>
  <rect width="1600" height="1000" filter="url(#grain)" opacity="0.18"/>
  <g><line x1="1489" y1="50" x2="1486" y2="960" stroke="#f4e6c8" stroke-width="0.8" opacity="0.01"/><line x1="1482" y1="50" x2="1482" y2="960" stroke="#f4e6c8" stroke-width="0.55" opacity="0.02"/><line x1="1476" y1="50" x2="1479" y2="960" stroke="#f4e6c8" stroke-width="0.55" opacity="0.03"/><line x1="1469" y1="50" x2="1466" y2="960" stroke="#f4e6c8" stroke-width="0.55" opacity="0.03"/></g>
  <g><circle cx="281" cy="789" r="1.01" fill="#efe2c6" opacity="0.03"/><circle cx="492" cy="970" r="0.35" fill="#efe2c6" opacity="0.04"/><circle cx="703" cy="151" r="0.57" fill="#efe2c6" opacity="0.01"/><circle cx="914" cy="332" r="0.79" fill="#efe2c6" opacity="0.02"/><circle cx="1125" cy="513" r="1.01" fill="#efe2c6" opacity="0.02"/><circle cx="1336" cy="694" r="0.35" fill="#efe2c6" opacity="0.03"/><circle cx="1547" cy="875" r="0.57" fill="#efe2c6" opacity="0.04"/><circle cx="158" cy="56" r="0.79" fill="#efe2c6" opacity="0.01"/><circle cx="369" cy="237" r="1.01" fill="#efe2c6" opacity="0.02"/><circle cx="580" cy="418" r="0.35" fill="#efe2c6" opacity="0.02"/><circle cx="791" cy="599" r="0.57" fill="#efe2c6" opacity="0.03"/><circle cx="1002" cy="780" r="0.79" fill="#efe2c6" opacity="0.04"/><circle cx="1213" cy="961" r="1.01" fill="#efe2c6" opacity="0.01"/><circle cx="1424" cy="142" r="0.35" fill="#efe2c6" opacity="0.02"/><circle cx="35" cy="323" r="0.57" fill="#efe2c6" opacity="0.02"/><circle cx="246" cy="504" r="0.79" fill="#efe2c6" opacity="0.03"/><circle cx="457" cy="685" r="1.01" fill="#efe2c6" opacity="0.04"/><circle cx="668" cy="866" r="0.35" fill="#efe2c6" opacity="0.01"/><circle cx="879" cy="47" r="0.57" fill="#efe2c6" opacity="0.02"/><circle cx="1090" cy="228" r="0.79" fill="#efe2c6" opacity="0.02"/><circle cx="1301" cy="409" r="1.01" fill="#efe2c6" opacity="0.03"/><circle cx="1512" cy="590" r="0.35" fill="#efe2c6" opacity="0.04"/><circle cx="123" cy="771" r="0.57" fill="#efe2c6" opacity="0.01"/><circle cx="334" cy="952" r="0.79" fill="#efe2c6" opacity="0.02"/><circle cx="545" cy="133" r="1.01" fill="#efe2c6" opacity="0.02"/><circle cx="756" cy="314" r="0.35" fill="#efe2c6" opacity="0.03"/><circle cx="967" cy="495" r="0.57" fill="#efe2c6" opacity="0.04"/><circle cx="1178" cy="676" r="0.79" fill="#efe2c6" opacity="0.01"/><circle cx="1389" cy="857" r="1.01" fill="#efe2c6" opacity="0.02"/><circle cx="0" cy="38" r="0.35" fill="#efe2c6" opacity="0.02"/><circle cx="211" cy="219" r="0.57" fill="#efe2c6" opacity="0.03"/><circle cx="422" cy="400" r="0.79" fill="#efe2c6" opacity="0.04"/><circle cx="633" cy="581" r="1.01" fill="#efe2c6" opacity="0.01"/><circle cx="844" cy="762" r="0.35" fill="#efe2c6" opacity="0.02"/><circle cx="1055" cy="943" r="0.57" fill="#efe2c6" opacity="0.02"/><circle cx="1266" cy="124" r="0.79" fill="#efe2c6" opacity="0.03"/><circle cx="1477" cy="305" r="1.01" fill="#efe2c6" opacity="0.04"/><circle cx="88" cy="486" r="0.35" fill="#efe2c6" opacity="0.01"/><circle cx="299" cy="667" r="0.57" fill="#efe2c6" opacity="0.02"/><circle cx="510" cy="848" r="0.79" fill="#efe2c6" opacity="0.02"/><circle cx="721" cy="29" r="1.01" fill="#efe2c6" opacity="0.03"/><circle cx="932" cy="210" r="0.35" fill="#efe2c6" opacity="0.04"/><circle cx="1143" cy="391" r="0.57" fill="#efe2c6" opacity="0.01"/><circle cx="1354" cy="572" r="0.79" fill="#efe2c6" opacity="0.02"/><circle cx="1565" cy="753" r="1.01" fill="#efe2c6" opacity="0.02"/><circle cx="176" cy="934" r="0.35" fill="#efe2c6" opacity="0.03"/><circle cx="387" cy="115" r="0.57" fill="#efe2c6" opacity="0.04"/><circle cx="598" cy="296" r="0.79" fill="#efe2c6" opacity="0.01"/><circle cx="809" cy="477" r="1.01" fill="#efe2c6" opacity="0.02"/><circle cx="1020" cy="658" r="0.35" fill="#efe2c6" opacity="0.02"/><circle cx="1231" cy="839" r="0.57" fill="#efe2c6" opacity="0.03"/><circle cx="1442" cy="20" r="0.79" fill="#efe2c6" opacity="0.04"/><circle cx="53" cy="201" r="1.01" fill="#efe2c6" opacity="0.01"/><circle cx="264" cy="382" r="0.35" fill="#efe2c6" opacity="0.02"/><circle cx="475" cy="563" r="0.57" fill="#efe2c6" opacity="0.02"/><circle cx="686" cy="744" r="0.79" fill="#efe2c6" opacity="0.03"/><circle cx="897" cy="925" r="1.01" fill="#efe2c6" opacity="0.04"/><circle cx="1108" cy="106" r="0.35" fill="#efe2c6" opacity="0.01"/><circle cx="1319" cy="287" r="0.57" fill="#efe2c6" opacity="0.02"/><circle cx="1530" cy="468" r="0.79" fill="#efe2c6" opacity="0.02"/><circle cx="141" cy="649" r="1.01" fill="#efe2c6" opacity="0.03"/><circle cx="352" cy="830" r="0.35" fill="#efe2c6" opacity="0.04"/><circle cx="563" cy="11" r="0.57" fill="#efe2c6" opacity="0.01"/><circle cx="774" cy="192" r="0.79" fill="#efe2c6" opacity="0.02"/><circle cx="985" cy="373" r="1.01" fill="#efe2c6" opacity="0.02"/><circle cx="1196" cy="554" r="0.35" fill="#efe2c6" opacity="0.03"/><circle cx="1407" cy="735" r="0.57" fill="#efe2c6" opacity="0.04"/><circle cx="18" cy="916" r="0.79" fill="#efe2c6" opacity="0.01"/><circle cx="229" cy="97" r="1.01" fill="#efe2c6" opacity="0.02"/><circle cx="440" cy="278" r="0.35" fill="#efe2c6" opacity="0.02"/><circle cx="651" cy="459" r="0.57" fill="#efe2c6" opacity="0.03"/><circle cx="862" cy="640" r="0.79" fill="#efe2c6" opacity="0.04"/><circle cx="1073" cy="821" r="1.01" fill="#efe2c6" opacity="0.01"/><circle cx="1284" cy="2" r="0.35" fill="#efe2c6" opacity="0.02"/><circle cx="1495" cy="183" r="0.57" fill="#efe2c6" opacity="0.02"/><circle cx="106" cy="364" r="0.79" fill="#efe2c6" opacity="0.03"/><circle cx="317" cy="545" r="1.01" fill="#efe2c6" opacity="0.04"/><circle cx="528" cy="726" r="0.35" fill="#efe2c6" opacity="0.01"/><circle cx="739" cy="907" r="0.57" fill="#efe2c6" opacity="0.02"/><circle cx="950" cy="88" r="0.79" fill="#efe2c6" opacity="0.02"/><circle cx="1161" cy="269" r="1.01" fill="#efe2c6" opacity="0.03"/><circle cx="1372" cy="450" r="0.35" fill="#efe2c6" opacity="0.04"/><circle cx="1583" cy="631" r="0.57" fill="#efe2c6" opacity="0.01"/><circle cx="194" cy="812" r="0.79" fill="#efe2c6" opacity="0.02"/><circle cx="405" cy="993" r="1.01" fill="#efe2c6" opacity="0.02"/><circle cx="616" cy="174" r="0.35" fill="#efe2c6" opacity="0.03"/><circle cx="827" cy="355" r="0.57" fill="#efe2c6" opacity="0.04"/><circle cx="1038" cy="536" r="0.79" fill="#efe2c6" opacity="0.01"/><circle cx="1249" cy="717" r="1.01" fill="#efe2c6" opacity="0.02"/><circle cx="1460" cy="898" r="0.35" fill="#efe2c6" opacity="0.02"/><circle cx="71" cy="79" r="0.57" fill="#efe2c6" opacity="0.03"/><circle cx="282" cy="260" r="0.79" fill="#efe2c6" opacity="0.04"/><circle cx="493" cy="441" r="1.01" fill="#efe2c6" opacity="0.01"/><circle cx="704" cy="622" r="0.35" fill="#efe2c6" opacity="0.02"/><circle cx="915" cy="803" r="0.57" fill="#efe2c6" opacity="0.02"/><circle cx="1126" cy="984" r="0.79" fill="#efe2c6" opacity="0.03"/><circle cx="1337" cy="165" r="1.01" fill="#efe2c6" opacity="0.04"/><circle cx="1548" cy="346" r="0.35" fill="#efe2c6" opacity="0.01"/><circle cx="159" cy="527" r="0.57" fill="#efe2c6" opacity="0.02"/><circle cx="370" cy="708" r="0.79" fill="#efe2c6" opacity="0.02"/><circle cx="581" cy="889" r="1.01" fill="#efe2c6" opacity="0.03"/><circle cx="792" cy="70" r="0.35" fill="#efe2c6" opacity="0.04"/><circle cx="1003" cy="251" r="0.57" fill="#efe2c6" opacity="0.01"/><circle cx="1214" cy="432" r="0.79" fill="#efe2c6" opacity="0.02"/><circle cx="1425" cy="613" r="1.01" fill="#efe2c6" opacity="0.02"/><circle cx="36" cy="794" r="0.35" fill="#efe2c6" opacity="0.03"/><circle cx="247" cy="975" r="0.57" fill="#efe2c6" opacity="0.04"/><circle cx="458" cy="156" r="0.79" fill="#efe2c6" opacity="0.01"/><circle cx="669" cy="337" r="1.01" fill="#efe2c6" opacity="0.02"/><circle cx="880" cy="518" r="0.35" fill="#efe2c6" opacity="0.02"/></g>
</svg>
