<svg xmlns="http://www.w3.org/2000/svg" viewBox="0 0 1000 1320" width="1000" height="1320" role="img" aria-label="side-portrait">
  <defs>
    <linearGradient id="paper" x1="0" y1="0" x2="1" y2="1">
      <stop offset="0" stop-color="#050505"/>
      <stop offset="0.58" stop-color="#22211f"/>
      <stop offset="1" stop-color="#bdb5a8"/>
    </linearGradient>
    <filter id="soft">
      <feGaussianBlur stdDeviation="7.92"/>
    </filter>
    <filter id="grain">
      <feTurbulence type="fractalNoise" baseFrequency="0.82" numOctaves="4" seed="104"/>
      <feColorMatrix type="saturate" values="0"/>
      <feComponentTransfer>
        <feFuncA type="table" tableValues="0 0.12"/>
      </feComponentTransfer>
    </filter>
    <filter id="tonalDisplace">
      <feTurbulence type="fractalNoise" baseFrequency="0.018" numOctaves="3" seed="123" result="noise"/>
      <feDisplacementMap in="SourceGraphic" in2="noise" scale="5.28"/>
    </filter>
  </defs>
  <rect width="1000" height="1320" fill="url(#paper)"/>
  <rect width="1000" height="1320" fill="#060504" opacity="0.055"/>
  <rect width="1000" height="1320" fill="#e6d1ad" opacity="0.028"/>
  <g filter="url(#tonalDisplace)">
    <rect x="332" y="724" width="340" height="211.2" fill="#f4dfb8" opacity="0.01" filter="url(#soft)"/><rect x="489" y="855" width="180" height="270.6" fill="#f4dfb8" opacity="0.02" filter="url(#soft)"/><rect x="646" y="986" width="220" height="330" fill="#f4dfb8" opacity="0.03" filter="url(#soft)"/><rect x="803" y="1117" width="260" height="389.4" fill="#f4dfb8" opacity="0.01" filter="url(#soft)"/><rect x="-40" y="-72" width="300" height="211.2" fill="#f4dfb8" opacity="0.02" filter="url(#soft)"/><rect x="117" y="59" width="340" height="270.6" fill="#f4dfb8" opacity="0.03" filter="url(#soft)"/>
    
        <rect x="80" y="0" width="300" height="1320" fill="#fff0c8" opacity="0.06"/>
        <path d="M440 343.2 L540 264 L640 369.6 L670 514.8000000000001 L630 633.6 L550 712.8000000000001 L450 660 L400 514.8000000000001 Z" fill="#d4ccbd" opacity="0.23" filter="url(#soft)"/>
        <path d="M310 1320 C360 923.9999999999999, 660 910.8, 720 1320 Z" fill="#c4b8a8" opacity="0.18"/>
        <path d="M550 316.8 L680 422.40000000000003 L700 726.0000000000001 L570 871.2 L510 726.0000000000001 L550 316.8 Z" fill="#050505" opacity="0.52"/>
  </g>
  
  <rect x="0" y="0" width="200" height="1320" fill="#020201" opacity="0.18" filter="url(#soft)"/>
  <rect x="800" y="0" width="200" height="1320" fill="#020201" opacity="0.16" filter="url(#soft)"/>
  <rect x="0" y="0" width="1000" height="237.6" fill="#020201" opacity="0.1" filter="url(#soft)"/>
  <rect x="0" y="1082.4" width="1000" height="237.6" fill="#020201" opacity="0.22" filter="url(#soft)"/>
  <rect width="1000" height="1320" fill="#0a0806" opacity="0.028"/>
  <rect width="1000" height="1320" filter="url(#grain)" opacity="0.18"/>
  <g><line x1="545" y1="66" x2="542" y2="1267.2" stroke="#f4e6c8" stroke-width="0.8" opacity="0.01"/><line x1="760" y1="66" x2="760" y2="1267.2" stroke="#f4e6c8" stroke-width="0.55" opacity="0.02"/><line x1="15" y1="66" x2="18" y2="1267.2" stroke="#f4e6c8" stroke-width="0.55" opacity="0.03"/><line x1="230" y1="66" x2="227" y2="1267.2" stroke="#f4e6c8" stroke-width="0.55" opacity="0.03"/></g>
  <g><circle cx="208" cy="1112" r="0.35" fill="#efe2c6" opacity="0.04"/><circle cx="419" cy="1293" r="0.57" fill="#efe2c6" opacity="0.01"/><circle cx="630" cy="154" r="0.79" fill="#efe2c6" opacity="0.02"/><circle cx="841" cy="335" r="1.01" fill="#efe2c6" opacity="0.02"/><circle cx="52" cy="516" r="0.35" fill="#efe2c6" opacity="0.03"/><circle cx="263" cy="697" r="0.57" fill="#efe2c6" opacity="0.04"/><circle cx="474" cy="878" r="0.79" fill="#efe2c6" opacity="0.01"/><circle cx="685" cy="1059" r="1.01" fill="#efe2c6" opacity="0.02"/><circle cx="896" cy="1240" r="0.35" fill="#efe2c6" opacity="0.02"/><circle cx="107" cy="101" r="0.57" fill="#efe2c6" opacity="0.03"/><circle cx="318" cy="282" r="0.79" fill="#efe2c6" opacity="0.04"/><circle cx="529" cy="463" r="1.01" fill="#efe2c6" opacity="0.01"/><circle cx="740" cy="644" r="0.35" fill="#efe2c6" opacity="0.02"/><circle cx="951" cy="825" r="0.57" fill="#efe2c6" opacity="0.02"/><circle cx="162" cy="1006" r="0.79" fill="#efe2c6" opacity="0.03"/><circle cx="373" cy="1187" r="1.01" fill="#efe2c6" opacity="0.04"/><circle cx="584" cy="48" r="0.35" fill="#efe2c6" opacity="0.01"/><circle cx="795" cy="229" r="0.57" fill="#efe2c6" opacity="0.02"/><circle cx="6" cy="410" r="0.79" fill="#efe2c6" opacity="0.02"/><circle cx="217" cy="591" r="1.01" fill="#efe2c6" opacity="0.03"/><circle cx="428" cy="772" r="0.35" fill="#efe2c6" opacity="0.04"/><circle cx="639" cy="953" r="0.57" fill="#efe2c6" opacity="0.01"/><circle cx="850" cy="1134" r="0.79" fill="#efe2c6" opacity="0.02"/><circle cx="61" cy="1315" r="1.01" fill="#efe2c6" opacity="0.02"/><circle cx="272" cy="176" r="0.35" fill="#efe2c6" opacity="0.03"/><circle cx="483" cy="357" r="0.57" fill="#efe2c6" opacity="0.04"/><circle cx="694" cy="538" r="0.79" fill="#efe2c6" opacity="0.01"/><circle cx="905" cy="719" r="1.01" fill="#efe2c6" opacity="0.02"/><circle cx="116" cy="900" r="0.35" fill="#efe2c6" opacity="0.02"/><circle cx="327" cy="1081" r="0.57" fill="#efe2c6" opacity="0.03"/><circle cx="538" cy="1262" r="0.79" fill="#efe2c6" opacity="0.04"/><circle cx="749" cy="123" r="1.01" fill="#efe2c6" opacity="0.01"/><circle cx="960" cy="304" r="0.35" fill="#efe2c6" opacity="0.02"/><circle cx="171" cy="485" r="0.57" fill="#efe2c6" opacity="0.02"/><circle cx="382" cy="666" r="0.79" fill="#efe2c6" opacity="0.03"/><circle cx="593" cy="847" r="1.01" fill="#efe2c6" opacity="0.04"/><circle cx="804" cy="1028" r="0.35" fill="#efe2c6" opacity="0.01"/><circle cx="15" cy="1209" r="0.57" fill="#efe2c6" opacity="0.02"/><circle cx="226" cy="70" r="0.79" fill="#efe2c6" opacity="0.02"/><circle cx="437" cy="251" r="1.01" fill="#efe2c6" opacity="0.03"/><circle cx="648" cy="432" r="0.35" fill="#efe2c6" opacity="0.04"/><circle cx="859" cy="613" r="0.57" fill="#efe2c6" opacity="0.01"/><circle cx="70" cy="794" r="0.79" fill="#efe2c6" opacity="0.02"/><circle cx="281" cy="975" r="1.01" fill="#efe2c6" opacity="0.02"/><circle cx="492" cy="1156" r="0.35" fill="#efe2c6" opacity="0.03"/><circle cx="703" cy="17" r="0.57" fill="#efe2c6" opacity="0.04"/><circle cx="914" cy="198" r="0.79" fill="#efe2c6" opacity="0.01"/><circle cx="125" cy="379" r="1.01" fill="#efe2c6" opacity="0.02"/><circle cx="336" cy="560" r="0.35" fill="#efe2c6" opacity="0.02"/><circle cx="547" cy="741" r="0.57" fill="#efe2c6" opacity="0.03"/><circle cx="758" cy="922" r="0.79" fill="#efe2c6" opacity="0.04"/><circle cx="969" cy="1103" r="1.01" fill="#efe2c6" opacity="0.01"/><circle cx="180" cy="1284" r="0.35" fill="#efe2c6" opacity="0.02"/><circle cx="391" cy="145" r="0.57" fill="#efe2c6" opacity="0.02"/><circle cx="602" cy="326" r="0.79" fill="#efe2c6" opacity="0.03"/><circle cx="813" cy="507" r="1.01" fill="#efe2c6" opacity="0.04"/><circle cx="24" cy="688" r="0.35" fill="#efe2c6" opacity="0.01"/><circle cx="235" cy="869" r="0.57" fill="#efe2c6" opacity="0.02"/><circle cx="446" cy="1050" r="0.79" fill="#efe2c6" opacity="0.02"/><circle cx="657" cy="1231" r="1.01" fill="#efe2c6" opacity="0.03"/><circle cx="868" cy="92" r="0.35" fill="#efe2c6" opacity="0.04"/><circle cx="79" cy="273" r="0.57" fill="#efe2c6" opacity="0.01"/><circle cx="290" cy="454" r="0.79" fill="#efe2c6" opacity="0.02"/><circle cx="501" cy="635" r="1.01" fill="#efe2c6" opacity="0.02"/><circle cx="712" cy="816" r="0.35" fill="#efe2c6" opacity="0.03"/><circle cx="923" cy="997" r="0.57" fill="#efe2c6" opacity="0.04"/><circle cx="134" cy="1178" r="0.79" fill="#efe2c6" opacity="0.01"/><circle cx="345" cy="39" r="1.01" fill="#efe2c6" opacity="0.02"/><circle cx="556" cy="220" r="0.35" fill="#efe2c6" opacity="0.02"/><circle cx="767" cy="401" r="0.57" fill="#efe2c6" opacity="0.03"/><circle cx="978" cy="582" r="0.79" fill="#efe2c6" opacity="0.04"/><circle cx="189" cy="763" r="1.01" fill="#efe2c6" opacity="0.01"/><circle cx="400" cy="944" r="0.35" fill="#efe2c6" opacity="0.02"/><circle cx="611" cy="1125" r="0.57" fill="#efe2c6" opacity="0.02"/><circle cx="822" cy="1306" r="0.79" fill="#efe2c6" opacity="0.03"/><circle cx="33" cy="167" r="1.01" fill="#efe2c6" opacity="0.04"/><circle cx="244" cy="348" r="0.35" fill="#efe2c6" opacity="0.01"/><circle cx="455" cy="529" r="0.57" fill="#efe2c6" opacity="0.02"/><circle cx="666" cy="710" r="0.79" fill="#efe2c6" opacity="0.02"/><circle cx="877" cy="891" r="1.01" fill="#efe2c6" opacity="0.03"/><circle cx="88" cy="1072" r="0.35" fill="#efe2c6" opacity="0.04"/><circle cx="299" cy="1253" r="0.57" fill="#efe2c6" opacity="0.01"/><circle cx="510" cy="114" r="0.79" fill="#efe2c6" opacity="0.02"/><circle cx="721" cy="295" r="1.01" fill="#efe2c6" opacity="0.02"/><circle cx="932" cy="476" r="0.35" fill="#efe2c6" opacity="0.03"/><circle cx="143" cy="657" r="0.57" fill="#efe2c6" opacity="0.04"/><circle cx="354" cy="838" r="0.79" fill="#efe2c6" opacity="0.01"/><circle cx="565" cy="1019" r="1.01" fill="#efe2c6" opacity="0.02"/><circle cx="776" cy="1200" r="0.35" fill="#efe2c6" opacity="0.02"/><circle cx="987" cy="61" r="0.57" fill="#efe2c6" opacity="0.03"/><circle cx="198" cy="242" r="0.79" fill="#efe2c6" opacity="0.04"/><circle cx="409" cy="423" r="1.01" fill="#efe2c6" opacity="0.01"/><circle cx="620" cy="604" r="0.35" fill="#efe2c6" opacity="0.02"/><circle cx="831" cy="785" r="0.57" fill="#efe2c6" opacity="0.02"/><circle cx="42" cy="966" r="0.79" fill="#efe2c6" opacity="0.03"/><circle cx="253" cy="1147" r="1.01" fill="#efe2c6" opacity="0.04"/><circle cx="464" cy="8" r="0.35" fill="#efe2c6" opacity="0.01"/><circle cx="675" cy="189" r="0.57" fill="#efe2c6" opacity="0.02"/><circle cx="886" cy="370" r="0.79" fill="#efe2c6" opacity="0.02"/><circle cx="97" cy="551" r="1.01" fill="#efe2c6" opacity="0.03"/><circle cx="308" cy="732" r="0.35" fill="#efe2c6" opacity="0.04"/><circle cx="519" cy="913" r="0.57" fill="#efe2c6" opacity="0.01"/><circle cx="730" cy="1094" r="0.79" fill="#efe2c6" opacity="0.02"/><circle cx="941" cy="1275" r="1.01" fill="#efe2c6" opacity="0.02"/><circle cx="152" cy="136" r="0.35" fill="#efe2c6" opacity="0.03"/><circle cx="363" cy="317" r="0.57" fill="#efe2c6" opacity="0.04"/><circle cx="574" cy="498" r="0.79" fill="#efe2c6" opacity="0.01"/><circle cx="785" cy="679" r="1.01" fill="#efe2c6" opacity="0.02"/><circle cx="996" cy="860" r="0.35" fill="#efe2c6" opacity="0.02"/><circle cx="207" cy="1041" r="0.57" fill="#efe2c6" opacity="0.03"/></g>
</svg>
