<svg xmlns="http://www.w3.org/2000/svg" viewBox="0 0 1600 1000" width="1600" height="1000" role="img" aria-label="rain-street">
  <defs>
    <linearGradient id="paper" x1="0" y1="0" x2="1" y2="1">
      <stop offset="0" stop-color="#070909"/>
      <stop offset="0.58" stop-color="#243238"/>
      <stop offset="1" stop-color="#a68262"/>
    </linearGradient>
    <filter id="soft">
      <feGaussianBlur stdDeviation="9.6"/>
    </filter>
    <filter id="grain">
      <feTurbulence type="fractalNoise" baseFrequency="0.82" numOctaves="4" seed="105"/>
      <feColorMatrix type="saturate" values="0"/>
      <feComponentTransfer>
        <feFuncA type="table" tableValues="0 0.12"/>
      </feComponentTransfer>
    </filter>
    <filter id="tonalDisplace">
      <feTurbulence type="fractalNoise" baseFrequency="0.018" numOctaves="3" seed="124" result="noise"/>
      <feDisplacementMap in="SourceGraphic" in2="noise" scale="6.4"/>
    </filter>
  </defs>
  <rect width="1600" height="1000" fill="url(#paper)"/>
  <rect width="1600" height="1000" fill="#060504" opacity="0.055"/>
  <rect width="1600" height="1000" fill="#e6d1ad" opacity="0.028"/>
  <g filter="url(#tonalDisplace)">
    <rect x="1091" y="95" width="288" height="205" fill="#f4dfb8" opacity="0.01" filter="url(#soft)"/><rect x="1248" y="226" width="352" height="250" fill="#f4dfb8" opacity="0.02" filter="url(#soft)"/><rect x="-195" y="357" width="416" height="295" fill="#f4dfb8" opacity="0.03" filter="url(#soft)"/><rect x="-38" y="488" width="480" height="160" fill="#f4dfb8" opacity="0.01" filter="url(#soft)"/><rect x="119" y="619" width="544" height="205" fill="#f4dfb8" opacity="0.02" filter="url(#soft)"/><rect x="276" y="750" width="288" height="250" fill="#f4dfb8" opacity="0.03" filter="url(#soft)"/>
    
        <rect x="160" y="80" width="384" height="520" fill="#cfc5b6" opacity="0.11"/>
        <rect x="992" y="60" width="400" height="550" fill="#cfc5b6" opacity="0.09"/>
        <g opacity="0.2"><rect x="256" y="180" width="32" height="75" fill="#ecdcc4" filter="url(#soft)"/><rect x="374.4" y="229.99999999999997" width="32" height="75" fill="#ecdcc4" filter="url(#soft)"/><rect x="492.8" y="180" width="32" height="75" fill="#ecdcc4" filter="url(#soft)"/><rect x="611.2" y="229.99999999999997" width="32" height="75" fill="#ecdcc4" filter="url(#soft)"/><rect x="729.5999999999999" y="180" width="32" height="75" fill="#ecdcc4" filter="url(#soft)"/><rect x="848" y="229.99999999999997" width="32" height="75" fill="#ecdcc4" filter="url(#soft)"/><rect x="966.4" y="180" width="32" height="75" fill="#ecdcc4" filter="url(#soft)"/><rect x="1084.8000000000002" y="229.99999999999997" width="32" height="75" fill="#ecdcc4" filter="url(#soft)"/><rect x="1203.2" y="180" width="32" height="75" fill="#ecdcc4" filter="url(#soft)"/></g>
        <path d="M752 460 C688 540, 688 680, 784 740 C864 660, 848 530, 800 460 Z" fill="#030302" opacity="0.68"/>
        <line x1="64" y1="80" x2="32" y2="500" stroke="#d8d1c2" stroke-width="4" opacity="0.07"/><line x1="176.00000000000003" y1="80" x2="144.00000000000003" y2="500" stroke="#d8d1c2" stroke-width="4" opacity="0.1"/><line x1="288.00000000000006" y1="80" x2="256" y2="500" stroke="#d8d1c2" stroke-width="4" opacity="0.12"/><line x1="400" y1="80" x2="368" y2="500" stroke="#d8d1c2" stroke-width="4" opacity="0.07"/><line x1="512" y1="80" x2="480.00000000000006" y2="500" stroke="#d8d1c2" stroke-width="4" opacity="0.1"/><line x1="624" y1="80" x2="592.0000000000001" y2="500" stroke="#d8d1c2" stroke-width="4" opacity="0.12"/><line x1="736" y1="80" x2="704.0000000000001" y2="500" stroke="#d8d1c2" stroke-width="4" opacity="0.07"/><line x1="848" y1="80" x2="816" y2="500" stroke="#d8d1c2" stroke-width="4" opacity="0.1"/><line x1="960.0000000000001" y1="80" x2="928.0000000000001" y2="500" stroke="#d8d1c2" stroke-width="4" opacity="0.12"/><line x1="1072.0000000000002" y1="80" x2="1040.0000000000002" y2="500" stroke="#d8d1c2" stroke-width="4" opacity="0.07"/><line x1="1184.0000000000002" y1="80" x2="1152.0000000000002" y2="500" stroke="#d8d1c2" stroke-width="4" opacity="0.1"/><line x1="1296" y1="80" x2="1264" y2="500" stroke="#d8d1c2" stroke-width="4" opacity="0.12"/><line x1="1408.0000000000002" y1="80" x2="1376.0000000000002" y2="500" stroke="#d8d1c2" stroke-width="4" opacity="0.07"/><line x1="1520.0000000000002" y1="80" x2="1488.0000000000002" y2="500" stroke="#d8d1c2" stroke-width="4" opacity="0.1"/>
        <path d="M0 700 L576 620 L1600 680" fill="none" stroke="#d49d68" stroke-width="12" opacity="0.24" filter="url(#soft)"/>
  </g>
  
  <rect x="0" y="0" width="320" height="1000" fill="#020201" opacity="0.18" filter="url(#soft)"/>
  <rect x="1280" y="0" width="320" height="1000" fill="#020201" opacity="0.16" filter="url(#soft)"/>
  <rect x="0" y="0" width="1600" height="180" fill="#020201" opacity="0.1" filter="url(#soft)"/>
  <rect x="0" y="820" width="1600" height="180" fill="#020201" opacity="0.22" filter="url(#soft)"/>
  <rect width="1600" height="1000" fill="#0a0806" opacity="0.028"/>
  <rect width="1600" height="1000" filter="url(#grain)" opacity="0.18"/>
  <g><line x1="370" y1="50" x2="367" y2="960" stroke="#f4e6c8" stroke-width="0.8" opacity="0.01"/><line x1="422" y1="50" x2="422" y2="960" stroke="#f4e6c8" stroke-width="0.55" opacity="0.02"/><line x1="475" y1="50" x2="478" y2="960" stroke="#f4e6c8" stroke-width="0.55" opacity="0.03"/><line x1="528" y1="50" x2="525" y2="960" stroke="#f4e6c8" stroke-width="0.55" opacity="0.03"/></g>
  <g><circle cx="535" cy="115" r="0.57" fill="#efe2c6" opacity="0.01"/><circle cx="746" cy="296" r="0.79" fill="#efe2c6" opacity="0.02"/><circle cx="957" cy="477" r="1.01" fill="#efe2c6" opacity="0.02"/><circle cx="1168" cy="658" r="0.35" fill="#efe2c6" opacity="0.03"/><circle cx="1379" cy="839" r="0.57" fill="#efe2c6" opacity="0.04"/><circle cx="1590" cy="20" r="0.79" fill="#efe2c6" opacity="0.01"/><circle cx="201" cy="201" r="1.01" fill="#efe2c6" opacity="0.02"/><circle cx="412" cy="382" r="0.35" fill="#efe2c6" opacity="0.02"/><circle cx="623" cy="563" r="0.57" fill="#efe2c6" opacity="0.03"/><circle cx="834" cy="744" r="0.79" fill="#efe2c6" opacity="0.04"/><circle cx="1045" cy="925" r="1.01" fill="#efe2c6" opacity="0.01"/><circle cx="1256" cy="106" r="0.35" fill="#efe2c6" opacity="0.02"/><circle cx="1467" cy="287" r="0.57" fill="#efe2c6" opacity="0.02"/><circle cx="78" cy="468" r="0.79" fill="#efe2c6" opacity="0.03"/><circle cx="289" cy="649" r="1.01" fill="#efe2c6" opacity="0.04"/><circle cx="500" cy="830" r="0.35" fill="#efe2c6" opacity="0.01"/><circle cx="711" cy="11" r="0.57" fill="#efe2c6" opacity="0.02"/><circle cx="922" cy="192" r="0.79" fill="#efe2c6" opacity="0.02"/><circle cx="1133" cy="373" r="1.01" fill="#efe2c6" opacity="0.03"/><circle cx="1344" cy="554" r="0.35" fill="#efe2c6" opacity="0.04"/><circle cx="1555" cy="735" r="0.57" fill="#efe2c6" opacity="0.01"/><circle cx="166" cy="916" r="0.79" fill="#efe2c6" opacity="0.02"/><circle cx="377" cy="97" r="1.01" fill="#efe2c6" opacity="0.02"/><circle cx="588" cy="278" r="0.35" fill="#efe2c6" opacity="0.03"/><circle cx="799" cy="459" r="0.57" fill="#efe2c6" opacity="0.04"/><circle cx="1010" cy="640" r="0.79" fill="#efe2c6" opacity="0.01"/><circle cx="1221" cy="821" r="1.01" fill="#efe2c6" opacity="0.02"/><circle cx="1432" cy="2" r="0.35" fill="#efe2c6" opacity="0.02"/><circle cx="43" cy="183" r="0.57" fill="#efe2c6" opacity="0.03"/><circle cx="254" cy="364" r="0.79" fill="#efe2c6" opacity="0.04"/><circle cx="465" cy="545" r="1.01" fill="#efe2c6" opacity="0.01"/><circle cx="676" cy="726" r="0.35" fill="#efe2c6" opacity="0.02"/><circle cx="887" cy="907" r="0.57" fill="#efe2c6" opacity="0.02"/><circle cx="1098" cy="88" r="0.79" fill="#efe2c6" opacity="0.03"/><circle cx="1309" cy="269" r="1.01" fill="#efe2c6" opacity="0.04"/><circle cx="1520" cy="450" r="0.35" fill="#efe2c6" opacity="0.01"/><circle cx="131" cy="631" r="0.57" fill="#efe2c6" opacity="0.02"/><circle cx="342" cy="812" r="0.79" fill="#efe2c6" opacity="0.02"/><circle cx="553" cy="993" r="1.01" fill="#efe2c6" opacity="0.03"/><circle cx="764" cy="174" r="0.35" fill="#efe2c6" opacity="0.04"/><circle cx="975" cy="355" r="0.57" fill="#efe2c6" opacity="0.01"/><circle cx="1186" cy="536" r="0.79" fill="#efe2c6" opacity="0.02"/><circle cx="1397" cy="717" r="1.01" fill="#efe2c6" opacity="0.02"/><circle cx="8" cy="898" r="0.35" fill="#efe2c6" opacity="0.03"/><circle cx="219" cy="79" r="0.57" fill="#efe2c6" opacity="0.04"/><circle cx="430" cy="260" r="0.79" fill="#efe2c6" opacity="0.01"/><circle cx="641" cy="441" r="1.01" fill="#efe2c6" opacity="0.02"/><circle cx="852" cy="622" r="0.35" fill="#efe2c6" opacity="0.02"/><circle cx="1063" cy="803" r="0.57" fill="#efe2c6" opacity="0.03"/><circle cx="1274" cy="984" r="0.79" fill="#efe2c6" opacity="0.04"/><circle cx="1485" cy="165" r="1.01" fill="#efe2c6" opacity="0.01"/><circle cx="96" cy="346" r="0.35" fill="#efe2c6" opacity="0.02"/><circle cx="307" cy="527" r="0.57" fill="#efe2c6" opacity="0.02"/><circle cx="518" cy="708" r="0.79" fill="#efe2c6" opacity="0.03"/><circle cx="729" cy="889" r="1.01" fill="#efe2c6" opacity="0.04"/><circle cx="940" cy="70" r="0.35" fill="#efe2c6" opacity="0.01"/><circle cx="1151" cy="251" r="0.57" fill="#efe2c6" opacity="0.02"/><circle cx="1362" cy="432" r="0.79" fill="#efe2c6" opacity="0.02"/><circle cx="1573" cy="613" r="1.01" fill="#efe2c6" opacity="0.03"/><circle cx="184" cy="794" r="0.35" fill="#efe2c6" opacity="0.04"/><circle cx="395" cy="975" r="0.57" fill="#efe2c6" opacity="0.01"/><circle cx="606" cy="156" r="0.79" fill="#efe2c6" opacity="0.02"/><circle cx="817" cy="337" r="1.01" fill="#efe2c6" opacity="0.02"/><circle cx="1028" cy="518" r="0.35" fill="#efe2c6" opacity="0.03"/><circle cx="1239" cy="699" r="0.57" fill="#efe2c6" opacity="0.04"/><circle cx="1450" cy="880" r="0.79" fill="#efe2c6" opacity="0.01"/><circle cx="61" cy="61" r="1.01" fill="#efe2c6" opacity="0.02"/><circle cx="272" cy="242" r="0.35" fill="#efe2c6" opacity="0.02"/><circle cx="483" cy="423" r="0.57" fill="#efe2c6" opacity="0.03"/><circle cx="694" cy="604" r="0.79" fill="#efe2c6" opacity="0.04"/><circle cx="905" cy="785" r="1.01" fill="#efe2c6" opacity="0.01"/><circle cx="1116" cy="966" r="0.35" fill="#efe2c6" opacity="0.02"/><circle cx="1327" cy="147" r="0.57" fill="#efe2c6" opacity="0.02"/><circle cx="1538" cy="328" r="0.79" fill="#efe2c6" opacity="0.03"/><circle cx="149" cy="509" r="1.01" fill="#efe2c6" opacity="0.04"/><circle cx="360" cy="690" r="0.35" fill="#efe2c6" opacity="0.01"/><circle cx="571" cy="871" r="0.57" fill="#efe2c6" opacity="0.02"/><circle cx="782" cy="52" r="0.79" fill="#efe2c6" opacity="0.02"/><circle cx="993" cy="233" r="1.01" fill="#efe2c6" opacity="0.03"/><circle cx="1204" cy="414" r="0.35" fill="#efe2c6" opacity="0.04"/><circle cx="1415" cy="595" r="0.57" fill="#efe2c6" opacity="0.01"/><circle cx="26" cy="776" r="0.79" fill="#efe2c6" opacity="0.02"/><circle cx="237" cy="957" r="1.01" fill="#efe2c6" opacity="0.02"/><circle cx="448" cy="138" r="0.35" fill="#efe2c6" opacity="0.03"/><circle cx="659" cy="319" r="0.57" fill="#efe2c6" opacity="0.04"/><circle cx="870" cy="500" r="0.79" fill="#efe2c6" opacity="0.01"/><circle cx="1081" cy="681" r="1.01" fill="#efe2c6" opacity="0.02"/><circle cx="1292" cy="862" r="0.35" fill="#efe2c6" opacity="0.02"/><circle cx="1503" cy="43" r="0.57" fill="#efe2c6" opacity="0.03"/><circle cx="114" cy="224" r="0.79" fill="#efe2c6" opacity="0.04"/><circle cx="325" cy="405" r="1.01" fill="#efe2c6" opacity="0.01"/><circle cx="536" cy="586" r="0.35" fill="#efe2c6" opacity="0.02"/><circle cx="747" cy="767" r="0.57" fill="#efe2c6" opacity="0.02"/><circle cx="958" cy="948" r="0.79" fill="#efe2c6" opacity="0.03"/><circle cx="1169" cy="129" r="1.01" fill="#efe2c6" opacity="0.04"/><circle cx="1380" cy="310" r="0.35" fill="#efe2c6" opacity="0.01"/><circle cx="1591" cy="491" r="0.57" fill="#efe2c6" opacity="0.02"/><circle cx="202" cy="672" r="0.79" fill="#efe2c6" opacity="0.02"/><circle cx="413" cy="853" r="1.01" fill="#efe2c6" opacity="0.03"/><circle cx="624" cy="34" r="0.35" fill="#efe2c6" opacity="0.04"/><circle cx="835" cy="215" r="0.57" fill="#efe2c6" opacity="0.01"/><circle cx="1046" cy="396" r="0.79" fill="#efe2c6" opacity="0.02"/><circle cx="1257" cy="577" r="1.01" fill="#efe2c6" opacity="0.02"/><circle cx="1468" cy="758" r="0.35" fill="#efe2c6" opacity="0.03"/><circle cx="79" cy="939" r="0.57" fill="#efe2c6" opacity="0.04"/><circle cx="290" cy="120" r="0.79" fill="#efe2c6" opacity="0.01"/><circle cx="501" cy="301" r="1.01" fill="#efe2c6" opacity="0.02"/><circle cx="712" cy="482" r="0.35" fill="#efe2c6" opacity="0.02"/><circle cx="923" cy="663" r="0.57" fill="#efe2c6" opacity="0.03"/><circle cx="1134" cy="844" r="0.79" fill="#efe2c6" opacity="0.04"/></g>
</svg>
