<svg xmlns="http://www.w3.org/2000/svg" viewBox="0 0 1000 1320" width="1000" height="1320" role="img" aria-label="plant-still-life">
  <defs>
    <linearGradient id="paper" x1="0" y1="0" x2="1" y2="1">
      <stop offset="0" stop-color="#0a0806"/>
      <stop offset="0.58" stop-color="#35281d"/>
      <stop offset="1" stop-color="#9d825a"/>
    </linearGradient>
    <filter id="soft">
      <feGaussianBlur stdDeviation="7.92"/>
    </filter>
    <filter id="grain">
      <feTurbulence type="fractalNoise" baseFrequency="0.82" numOctaves="4" seed="106"/>
      <feColorMatrix type="saturate" values="0"/>
      <feComponentTransfer>
        <feFuncA type="table" tableValues="0 0.12"/>
      </feComponentTransfer>
    </filter>
    <filter id="tonalDisplace">
      <feTurbulence type="fractalNoise" baseFrequency="0.018" numOctaves="3" seed="125" result="noise"/>
      <feDisplacementMap in="SourceGraphic" in2="noise" scale="5.28"/>
    </filter>
  </defs>
  <rect width="1000" height="1320" fill="url(#paper)"/>
  <rect width="1000" height="1320" fill="#060504" opacity="0.12"/>
  <g filter="url(#tonalDisplace)">
    <rect x="418" y="842" width="220" height="330" fill="#f4dfb8" opacity="0.01" filter="url(#soft)"/><rect x="575" y="973" width="260" height="389.4" fill="#f4dfb8" opacity="0.02" filter="url(#soft)"/><rect x="732" y="1104" width="300" height="211.2" fill="#f4dfb8" opacity="0.03" filter="url(#soft)"/><rect x="-111" y="-85" width="340" height="270.6" fill="#f4dfb8" opacity="0.01" filter="url(#soft)"/><rect x="46" y="46" width="180" height="330" fill="#f4dfb8" opacity="0.02" filter="url(#soft)"/><rect x="203" y="177" width="220" height="389.4" fill="#f4dfb8" opacity="0.03" filter="url(#soft)"/>
    
        <path d="M160 976.8 H860" stroke="#e0c28e" stroke-width="10.56" opacity="0.18"/>
        <path d="M460 976.8 C360 818.4, 400 646.8, 500 554.4 C620 633.6, 650 871.2, 540 1003.2 Z" fill="#aa844f" opacity="0.2"/>
        <path d="M520 567.6 C420 396, 560 303.6, 480 198" fill="none" stroke="#dec895" stroke-width="5.5" opacity="0.18"/><path d="M520 567.6 C445 435.59999999999997, 585.0000000000001 349.8, 515 258.72" fill="none" stroke="#dec895" stroke-width="5.5" opacity="0.18"/><path d="M520 567.6 C470 475.2, 610.0000000000001 396.00000000000006, 550 319.44" fill="none" stroke="#dec895" stroke-width="5.5" opacity="0.18"/><path d="M520 567.6 C495 514.8000000000001, 635 442.20000000000005, 585 380.16" fill="none" stroke="#dec895" stroke-width="5.5" opacity="0.18"/><path d="M520 567.6 C520 554.4, 660 488.4, 620 440.87999999999994" fill="none" stroke="#dec895" stroke-width="5.5" opacity="0.18"/><path d="M520 567.6 C544.9999999999999 593.9999999999999, 685 534.6, 655 501.6" fill="none" stroke="#dec895" stroke-width="5.5" opacity="0.18"/><path d="M520 567.6 C570.0000000000001 633.6, 710.0000000000001 580.8000000000001, 690 562.32" fill="none" stroke="#dec895" stroke-width="5.5" opacity="0.18"/><path d="M520 567.6 C595 673.2, 735.0000000000001 627, 725 623.04" fill="none" stroke="#dec895" stroke-width="5.5" opacity="0.18"/>
        <path d="M420 422.40000000000003 L480 356.40000000000003 L510 461.99999999999994 Z" fill="#d7c389" opacity="0.12"/><path d="M480 468.59999999999997 L540 402.6000000000001 L565.0000000000001 496.32 Z" fill="#d7c389" opacity="0.12"/><path d="M540 514.8000000000001 L600 448.8 L620 530.64 Z" fill="#d7c389" opacity="0.12"/><path d="M600 561.0000000000001 L659.9999999999999 495 L675 564.96 Z" fill="#d7c389" opacity="0.12"/><path d="M659.9999999999999 607.2 L720 541.2 L730 599.28 Z" fill="#d7c389" opacity="0.12"/>
  </g>
  
  <rect x="0" y="0" width="200" height="1320" fill="#020201" opacity="0.3" filter="url(#soft)"/>
  <rect x="800" y="0" width="200" height="1320" fill="#020201" opacity="0.28" filter="url(#soft)"/>
  <rect x="0" y="0" width="1000" height="237.6" fill="#020201" opacity="0.18" filter="url(#soft)"/>
  <rect x="0" y="1082.4" width="1000" height="237.6" fill="#020201" opacity="0.34" filter="url(#soft)"/>
  <rect width="1000" height="1320" fill="#0a0806" opacity="0.08"/>
  <rect width="1000" height="1320" filter="url(#grain)" opacity="0.24"/>
  <g><line x1="2" y1="66" x2="-1" y2="1267.2" stroke="#f4e6c8" stroke-width="0.8" opacity="0.01"/><line x1="276" y1="66" x2="276" y2="1267.2" stroke="#f4e6c8" stroke-width="0.55" opacity="0.02"/><line x1="551" y1="66" x2="554" y2="1267.2" stroke="#f4e6c8" stroke-width="0.55" opacity="0.03"/><line x1="826" y1="66" x2="823" y2="1267.2" stroke="#f4e6c8" stroke-width="0.55" opacity="0.03"/></g>
  <g><circle cx="462" cy="118" r="0.79" fill="#efe2c6" opacity="0.02"/><circle cx="673" cy="299" r="1.01" fill="#efe2c6" opacity="0.02"/><circle cx="884" cy="480" r="0.35" fill="#efe2c6" opacity="0.03"/><circle cx="95" cy="661" r="0.57" fill="#efe2c6" opacity="0.04"/><circle cx="306" cy="842" r="0.79" fill="#efe2c6" opacity="0.01"/><circle cx="517" cy="1023" r="1.01" fill="#efe2c6" opacity="0.02"/><circle cx="728" cy="1204" r="0.35" fill="#efe2c6" opacity="0.02"/><circle cx="939" cy="65" r="0.57" fill="#efe2c6" opacity="0.03"/><circle cx="150" cy="246" r="0.79" fill="#efe2c6" opacity="0.04"/><circle cx="361" cy="427" r="1.01" fill="#efe2c6" opacity="0.01"/><circle cx="572" cy="608" r="0.35" fill="#efe2c6" opacity="0.02"/><circle cx="783" cy="789" r="0.57" fill="#efe2c6" opacity="0.02"/><circle cx="994" cy="970" r="0.79" fill="#efe2c6" opacity="0.03"/><circle cx="205" cy="1151" r="1.01" fill="#efe2c6" opacity="0.04"/><circle cx="416" cy="12" r="0.35" fill="#efe2c6" opacity="0.01"/><circle cx="627" cy="193" r="0.57" fill="#efe2c6" opacity="0.02"/><circle cx="838" cy="374" r="0.79" fill="#efe2c6" opacity="0.02"/><circle cx="49" cy="555" r="1.01" fill="#efe2c6" opacity="0.03"/><circle cx="260" cy="736" r="0.35" fill="#efe2c6" opacity="0.04"/><circle cx="471" cy="917" r="0.57" fill="#efe2c6" opacity="0.01"/><circle cx="682" cy="1098" r="0.79" fill="#efe2c6" opacity="0.02"/><circle cx="893" cy="1279" r="1.01" fill="#efe2c6" opacity="0.02"/><circle cx="104" cy="140" r="0.35" fill="#efe2c6" opacity="0.03"/><circle cx="315" cy="321" r="0.57" fill="#efe2c6" opacity="0.04"/><circle cx="526" cy="502" r="0.79" fill="#efe2c6" opacity="0.01"/><circle cx="737" cy="683" r="1.01" fill="#efe2c6" opacity="0.02"/><circle cx="948" cy="864" r="0.35" fill="#efe2c6" opacity="0.02"/><circle cx="159" cy="1045" r="0.57" fill="#efe2c6" opacity="0.03"/><circle cx="370" cy="1226" r="0.79" fill="#efe2c6" opacity="0.04"/><circle cx="581" cy="87" r="1.01" fill="#efe2c6" opacity="0.01"/><circle cx="792" cy="268" r="0.35" fill="#efe2c6" opacity="0.02"/><circle cx="3" cy="449" r="0.57" fill="#efe2c6" opacity="0.02"/><circle cx="214" cy="630" r="0.79" fill="#efe2c6" opacity="0.03"/><circle cx="425" cy="811" r="1.01" fill="#efe2c6" opacity="0.04"/><circle cx="636" cy="992" r="0.35" fill="#efe2c6" opacity="0.01"/><circle cx="847" cy="1173" r="0.57" fill="#efe2c6" opacity="0.02"/><circle cx="58" cy="34" r="0.79" fill="#efe2c6" opacity="0.02"/><circle cx="269" cy="215" r="1.01" fill="#efe2c6" opacity="0.03"/><circle cx="480" cy="396" r="0.35" fill="#efe2c6" opacity="0.04"/><circle cx="691" cy="577" r="0.57" fill="#efe2c6" opacity="0.01"/><circle cx="902" cy="758" r="0.79" fill="#efe2c6" opacity="0.02"/><circle cx="113" cy="939" r="1.01" fill="#efe2c6" opacity="0.02"/><circle cx="324" cy="1120" r="0.35" fill="#efe2c6" opacity="0.03"/><circle cx="535" cy="1301" r="0.57" fill="#efe2c6" opacity="0.04"/><circle cx="746" cy="162" r="0.79" fill="#efe2c6" opacity="0.01"/><circle cx="957" cy="343" r="1.01" fill="#efe2c6" opacity="0.02"/><circle cx="168" cy="524" r="0.35" fill="#efe2c6" opacity="0.02"/><circle cx="379" cy="705" r="0.57" fill="#efe2c6" opacity="0.03"/><circle cx="590" cy="886" r="0.79" fill="#efe2c6" opacity="0.04"/><circle cx="801" cy="1067" r="1.01" fill="#efe2c6" opacity="0.01"/><circle cx="12" cy="1248" r="0.35" fill="#efe2c6" opacity="0.02"/><circle cx="223" cy="109" r="0.57" fill="#efe2c6" opacity="0.02"/><circle cx="434" cy="290" r="0.79" fill="#efe2c6" opacity="0.03"/><circle cx="645" cy="471" r="1.01" fill="#efe2c6" opacity="0.04"/><circle cx="856" cy="652" r="0.35" fill="#efe2c6" opacity="0.01"/><circle cx="67" cy="833" r="0.57" fill="#efe2c6" opacity="0.02"/><circle cx="278" cy="1014" r="0.79" fill="#efe2c6" opacity="0.02"/><circle cx="489" cy="1195" r="1.01" fill="#efe2c6" opacity="0.03"/><circle cx="700" cy="56" r="0.35" fill="#efe2c6" opacity="0.04"/><circle cx="911" cy="237" r="0.57" fill="#efe2c6" opacity="0.01"/><circle cx="122" cy="418" r="0.79" fill="#efe2c6" opacity="0.02"/><circle cx="333" cy="599" r="1.01" fill="#efe2c6" opacity="0.02"/><circle cx="544" cy="780" r="0.35" fill="#efe2c6" opacity="0.03"/><circle cx="755" cy="961" r="0.57" fill="#efe2c6" opacity="0.04"/><circle cx="966" cy="1142" r="0.79" fill="#efe2c6" opacity="0.01"/><circle cx="177" cy="3" r="1.01" fill="#efe2c6" opacity="0.02"/><circle cx="388" cy="184" r="0.35" fill="#efe2c6" opacity="0.02"/><circle cx="599" cy="365" r="0.57" fill="#efe2c6" opacity="0.03"/><circle cx="810" cy="546" r="0.79" fill="#efe2c6" opacity="0.04"/><circle cx="21" cy="727" r="1.01" fill="#efe2c6" opacity="0.01"/><circle cx="232" cy="908" r="0.35" fill="#efe2c6" opacity="0.02"/><circle cx="443" cy="1089" r="0.57" fill="#efe2c6" opacity="0.02"/><circle cx="654" cy="1270" r="0.79" fill="#efe2c6" opacity="0.03"/><circle cx="865" cy="131" r="1.01" fill="#efe2c6" opacity="0.04"/><circle cx="76" cy="312" r="0.35" fill="#efe2c6" opacity="0.01"/><circle cx="287" cy="493" r="0.57" fill="#efe2c6" opacity="0.02"/><circle cx="498" cy="674" r="0.79" fill="#efe2c6" opacity="0.02"/><circle cx="709" cy="855" r="1.01" fill="#efe2c6" opacity="0.03"/><circle cx="920" cy="1036" r="0.35" fill="#efe2c6" opacity="0.04"/><circle cx="131" cy="1217" r="0.57" fill="#efe2c6" opacity="0.01"/><circle cx="342" cy="78" r="0.79" fill="#efe2c6" opacity="0.02"/><circle cx="553" cy="259" r="1.01" fill="#efe2c6" opacity="0.02"/><circle cx="764" cy="440" r="0.35" fill="#efe2c6" opacity="0.03"/><circle cx="975" cy="621" r="0.57" fill="#efe2c6" opacity="0.04"/><circle cx="186" cy="802" r="0.79" fill="#efe2c6" opacity="0.01"/><circle cx="397" cy="983" r="1.01" fill="#efe2c6" opacity="0.02"/><circle cx="608" cy="1164" r="0.35" fill="#efe2c6" opacity="0.02"/><circle cx="819" cy="25" r="0.57" fill="#efe2c6" opacity="0.03"/><circle cx="30" cy="206" r="0.79" fill="#efe2c6" opacity="0.04"/><circle cx="241" cy="387" r="1.01" fill="#efe2c6" opacity="0.01"/><circle cx="452" cy="568" r="0.35" fill="#efe2c6" opacity="0.02"/><circle cx="663" cy="749" r="0.57" fill="#efe2c6" opacity="0.02"/><circle cx="874" cy="930" r="0.79" fill="#efe2c6" opacity="0.03"/><circle cx="85" cy="1111" r="1.01" fill="#efe2c6" opacity="0.04"/><circle cx="296" cy="1292" r="0.35" fill="#efe2c6" opacity="0.01"/><circle cx="507" cy="153" r="0.57" fill="#efe2c6" opacity="0.02"/><circle cx="718" cy="334" r="0.79" fill="#efe2c6" opacity="0.02"/><circle cx="929" cy="515" r="1.01" fill="#efe2c6" opacity="0.03"/><circle cx="140" cy="696" r="0.35" fill="#efe2c6" opacity="0.04"/><circle cx="351" cy="877" r="0.57" fill="#efe2c6" opacity="0.01"/><circle cx="562" cy="1058" r="0.79" fill="#efe2c6" opacity="0.02"/><circle cx="773" cy="1239" r="1.01" fill="#efe2c6" opacity="0.02"/><circle cx="984" cy="100" r="0.35" fill="#efe2c6" opacity="0.03"/><circle cx="195" cy="281" r="0.57" fill="#efe2c6" opacity="0.04"/><circle cx="406" cy="462" r="0.79" fill="#efe2c6" opacity="0.01"/><circle cx="617" cy="643" r="1.01" fill="#efe2c6" opacity="0.02"/><circle cx="828" cy="824" r="0.35" fill="#efe2c6" opacity="0.02"/><circle cx="39" cy="1005" r="0.57" fill="#efe2c6" opacity="0.03"/><circle cx="250" cy="1186" r="0.79" fill="#efe2c6" opacity="0.04"/><circle cx="461" cy="47" r="1.01" fill="#efe2c6" opacity="0.01"/></g>
</svg>
