<svg xmlns="http://www.w3.org/2000/svg" viewBox="0 0 1000 1320" width="1000" height="1320" role="img" aria-label="facade-detail">
  <defs>
    <linearGradient id="paper" x1="0" y1="0" x2="1" y2="1">
      <stop offset="0" stop-color="#080807"/>
      <stop offset="0.58" stop-color="#36342e"/>
      <stop offset="1" stop-color="#9f9684"/>
    </linearGradient>
    <filter id="soft">
      <feGaussianBlur stdDeviation="7.92"/>
    </filter>
    <filter id="grain">
      <feTurbulence type="fractalNoise" baseFrequency="0.82" numOctaves="4" seed="107"/>
      <feColorMatrix type="saturate" values="0"/>
      <feComponentTransfer>
        <feFuncA type="table" tableValues="0 0.12"/>
      </feComponentTransfer>
    </filter>
    <filter id="tonalDisplace">
      <feTurbulence type="fractalNoise" baseFrequency="0.018" numOctaves="3" seed="126" result="noise"/>
      <feDisplacementMap in="SourceGraphic" in2="noise" scale="5.28"/>
    </filter>
  </defs>
  <rect width="1000" height="1320" fill="url(#paper)"/>
  <rect width="1000" height="1320" fill="#060504" opacity="0.12"/>
  <g filter="url(#tonalDisplace)">
    <rect x="461" y="901" width="260" height="389.4" fill="#f4dfb8" opacity="0.01" filter="url(#soft)"/><rect x="618" y="1032" width="300" height="211.2" fill="#f4dfb8" opacity="0.02" filter="url(#soft)"/><rect x="775" y="1163" width="340" height="270.6" fill="#f4dfb8" opacity="0.03" filter="url(#soft)"/><rect x="-68" y="-26" width="180" height="330" fill="#f4dfb8" opacity="0.01" filter="url(#soft)"/><rect x="89" y="105" width="220" height="389.4" fill="#f4dfb8" opacity="0.02" filter="url(#soft)"/><rect x="246" y="236" width="260" height="211.2" fill="#f4dfb8" opacity="0.03" filter="url(#soft)"/>
    
        <rect x="160" y="105.60000000000001" width="600" height="871.2" fill="#d6cdbc" opacity="0.1"/>
        <path d="M160 105.60000000000001 L760 105.60000000000001 L620 976.8 L160 976.8 Z" fill="#060605" opacity="0.16"/>
        <g opacity="0.25"><rect x="250" y="237.6" width="70" height="68.64" fill="#080706"/><rect x="410.00000000000006" y="237.6" width="70" height="68.64" fill="#080706"/><rect x="570.0000000000001" y="237.6" width="70" height="68.64" fill="#080706"/><rect x="250" y="396" width="70" height="68.64" fill="#080706"/><rect x="410.00000000000006" y="396" width="70" height="68.64" fill="#080706"/><rect x="570.0000000000001" y="396" width="70" height="68.64" fill="#080706"/><rect x="250" y="554.4" width="70" height="68.64" fill="#080706"/><rect x="410.00000000000006" y="554.4" width="70" height="68.64" fill="#080706"/><rect x="570.0000000000001" y="554.4" width="70" height="68.64" fill="#080706"/><rect x="250" y="712.8000000000001" width="70" height="68.64" fill="#080706"/><rect x="410.00000000000006" y="712.8000000000001" width="70" height="68.64" fill="#080706"/><rect x="570.0000000000001" y="712.8000000000001" width="70" height="68.64" fill="#080706"/></g>
        <path d="M470 884.4000000000001 C430 1003.2, 460 1108.8, 500 1161.6 C550 1056, 530 950.4, 500 884.4000000000001 Z" fill="#030302" opacity="0.5"/>
  </g>
  
  <rect x="0" y="0" width="200" height="1320" fill="#020201" opacity="0.3" filter="url(#soft)"/>
  <rect x="800" y="0" width="200" height="1320" fill="#020201" opacity="0.28" filter="url(#soft)"/>
  <rect x="0" y="0" width="1000" height="237.6" fill="#020201" opacity="0.18" filter="url(#soft)"/>
  <rect x="0" y="1082.4" width="1000" height="237.6" fill="#020201" opacity="0.34" filter="url(#soft)"/>
  <rect width="1000" height="1320" fill="#0a0806" opacity="0.08"/>
  <rect width="1000" height="1320" filter="url(#grain)" opacity="0.24"/>
  <g><line x1="210" y1="66" x2="207" y2="1267.2" stroke="#f4e6c8" stroke-width="0.8" opacity="0.01"/><line x1="515" y1="66" x2="515" y2="1267.2" stroke="#f4e6c8" stroke-width="0.55" opacity="0.02"/><line x1="819" y1="66" x2="822" y2="1267.2" stroke="#f4e6c8" stroke-width="0.55" opacity="0.03"/><line x1="163" y1="66" x2="160" y2="1267.2" stroke="#f4e6c8" stroke-width="0.55" opacity="0.03"/></g>
  <g><circle cx="589" cy="281" r="1.01" fill="#efe2c6" opacity="0.02"/><circle cx="800" cy="462" r="0.35" fill="#efe2c6" opacity="0.03"/><circle cx="11" cy="643" r="0.57" fill="#efe2c6" opacity="0.04"/><circle cx="222" cy="824" r="0.79" fill="#efe2c6" opacity="0.01"/><circle cx="433" cy="1005" r="1.01" fill="#efe2c6" opacity="0.02"/><circle cx="644" cy="1186" r="0.35" fill="#efe2c6" opacity="0.02"/><circle cx="855" cy="47" r="0.57" fill="#efe2c6" opacity="0.03"/><circle cx="66" cy="228" r="0.79" fill="#efe2c6" opacity="0.04"/><circle cx="277" cy="409" r="1.01" fill="#efe2c6" opacity="0.01"/><circle cx="488" cy="590" r="0.35" fill="#efe2c6" opacity="0.02"/><circle cx="699" cy="771" r="0.57" fill="#efe2c6" opacity="0.02"/><circle cx="910" cy="952" r="0.79" fill="#efe2c6" opacity="0.03"/><circle cx="121" cy="1133" r="1.01" fill="#efe2c6" opacity="0.04"/><circle cx="332" cy="1314" r="0.35" fill="#efe2c6" opacity="0.01"/><circle cx="543" cy="175" r="0.57" fill="#efe2c6" opacity="0.02"/><circle cx="754" cy="356" r="0.79" fill="#efe2c6" opacity="0.02"/><circle cx="965" cy="537" r="1.01" fill="#efe2c6" opacity="0.03"/><circle cx="176" cy="718" r="0.35" fill="#efe2c6" opacity="0.04"/><circle cx="387" cy="899" r="0.57" fill="#efe2c6" opacity="0.01"/><circle cx="598" cy="1080" r="0.79" fill="#efe2c6" opacity="0.02"/><circle cx="809" cy="1261" r="1.01" fill="#efe2c6" opacity="0.02"/><circle cx="20" cy="122" r="0.35" fill="#efe2c6" opacity="0.03"/><circle cx="231" cy="303" r="0.57" fill="#efe2c6" opacity="0.04"/><circle cx="442" cy="484" r="0.79" fill="#efe2c6" opacity="0.01"/><circle cx="653" cy="665" r="1.01" fill="#efe2c6" opacity="0.02"/><circle cx="864" cy="846" r="0.35" fill="#efe2c6" opacity="0.02"/><circle cx="75" cy="1027" r="0.57" fill="#efe2c6" opacity="0.03"/><circle cx="286" cy="1208" r="0.79" fill="#efe2c6" opacity="0.04"/><circle cx="497" cy="69" r="1.01" fill="#efe2c6" opacity="0.01"/><circle cx="708" cy="250" r="0.35" fill="#efe2c6" opacity="0.02"/><circle cx="919" cy="431" r="0.57" fill="#efe2c6" opacity="0.02"/><circle cx="130" cy="612" r="0.79" fill="#efe2c6" opacity="0.03"/><circle cx="341" cy="793" r="1.01" fill="#efe2c6" opacity="0.04"/><circle cx="552" cy="974" r="0.35" fill="#efe2c6" opacity="0.01"/><circle cx="763" cy="1155" r="0.57" fill="#efe2c6" opacity="0.02"/><circle cx="974" cy="16" r="0.79" fill="#efe2c6" opacity="0.02"/><circle cx="185" cy="197" r="1.01" fill="#efe2c6" opacity="0.03"/><circle cx="396" cy="378" r="0.35" fill="#efe2c6" opacity="0.04"/><circle cx="607" cy="559" r="0.57" fill="#efe2c6" opacity="0.01"/><circle cx="818" cy="740" r="0.79" fill="#efe2c6" opacity="0.02"/><circle cx="29" cy="921" r="1.01" fill="#efe2c6" opacity="0.02"/><circle cx="240" cy="1102" r="0.35" fill="#efe2c6" opacity="0.03"/><circle cx="451" cy="1283" r="0.57" fill="#efe2c6" opacity="0.04"/><circle cx="662" cy="144" r="0.79" fill="#efe2c6" opacity="0.01"/><circle cx="873" cy="325" r="1.01" fill="#efe2c6" opacity="0.02"/><circle cx="84" cy="506" r="0.35" fill="#efe2c6" opacity="0.02"/><circle cx="295" cy="687" r="0.57" fill="#efe2c6" opacity="0.03"/><circle cx="506" cy="868" r="0.79" fill="#efe2c6" opacity="0.04"/><circle cx="717" cy="1049" r="1.01" fill="#efe2c6" opacity="0.01"/><circle cx="928" cy="1230" r="0.35" fill="#efe2c6" opacity="0.02"/><circle cx="139" cy="91" r="0.57" fill="#efe2c6" opacity="0.02"/><circle cx="350" cy="272" r="0.79" fill="#efe2c6" opacity="0.03"/><circle cx="561" cy="453" r="1.01" fill="#efe2c6" opacity="0.04"/><circle cx="772" cy="634" r="0.35" fill="#efe2c6" opacity="0.01"/><circle cx="983" cy="815" r="0.57" fill="#efe2c6" opacity="0.02"/><circle cx="194" cy="996" r="0.79" fill="#efe2c6" opacity="0.02"/><circle cx="405" cy="1177" r="1.01" fill="#efe2c6" opacity="0.03"/><circle cx="616" cy="38" r="0.35" fill="#efe2c6" opacity="0.04"/><circle cx="827" cy="219" r="0.57" fill="#efe2c6" opacity="0.01"/><circle cx="38" cy="400" r="0.79" fill="#efe2c6" opacity="0.02"/><circle cx="249" cy="581" r="1.01" fill="#efe2c6" opacity="0.02"/><circle cx="460" cy="762" r="0.35" fill="#efe2c6" opacity="0.03"/><circle cx="671" cy="943" r="0.57" fill="#efe2c6" opacity="0.04"/><circle cx="882" cy="1124" r="0.79" fill="#efe2c6" opacity="0.01"/><circle cx="93" cy="1305" r="1.01" fill="#efe2c6" opacity="0.02"/><circle cx="304" cy="166" r="0.35" fill="#efe2c6" opacity="0.02"/><circle cx="515" cy="347" r="0.57" fill="#efe2c6" opacity="0.03"/><circle cx="726" cy="528" r="0.79" fill="#efe2c6" opacity="0.04"/><circle cx="937" cy="709" r="1.01" fill="#efe2c6" opacity="0.01"/><circle cx="148" cy="890" r="0.35" fill="#efe2c6" opacity="0.02"/><circle cx="359" cy="1071" r="0.57" fill="#efe2c6" opacity="0.02"/><circle cx="570" cy="1252" r="0.79" fill="#efe2c6" opacity="0.03"/><circle cx="781" cy="113" r="1.01" fill="#efe2c6" opacity="0.04"/><circle cx="992" cy="294" r="0.35" fill="#efe2c6" opacity="0.01"/><circle cx="203" cy="475" r="0.57" fill="#efe2c6" opacity="0.02"/><circle cx="414" cy="656" r="0.79" fill="#efe2c6" opacity="0.02"/><circle cx="625" cy="837" r="1.01" fill="#efe2c6" opacity="0.03"/><circle cx="836" cy="1018" r="0.35" fill="#efe2c6" opacity="0.04"/><circle cx="47" cy="1199" r="0.57" fill="#efe2c6" opacity="0.01"/><circle cx="258" cy="60" r="0.79" fill="#efe2c6" opacity="0.02"/><circle cx="469" cy="241" r="1.01" fill="#efe2c6" opacity="0.02"/><circle cx="680" cy="422" r="0.35" fill="#efe2c6" opacity="0.03"/><circle cx="891" cy="603" r="0.57" fill="#efe2c6" opacity="0.04"/><circle cx="102" cy="784" r="0.79" fill="#efe2c6" opacity="0.01"/><circle cx="313" cy="965" r="1.01" fill="#efe2c6" opacity="0.02"/><circle cx="524" cy="1146" r="0.35" fill="#efe2c6" opacity="0.02"/><circle cx="735" cy="7" r="0.57" fill="#efe2c6" opacity="0.03"/><circle cx="946" cy="188" r="0.79" fill="#efe2c6" opacity="0.04"/><circle cx="157" cy="369" r="1.01" fill="#efe2c6" opacity="0.01"/><circle cx="368" cy="550" r="0.35" fill="#efe2c6" opacity="0.02"/><circle cx="579" cy="731" r="0.57" fill="#efe2c6" opacity="0.02"/><circle cx="790" cy="912" r="0.79" fill="#efe2c6" opacity="0.03"/><circle cx="1" cy="1093" r="1.01" fill="#efe2c6" opacity="0.04"/><circle cx="212" cy="1274" r="0.35" fill="#efe2c6" opacity="0.01"/><circle cx="423" cy="135" r="0.57" fill="#efe2c6" opacity="0.02"/><circle cx="634" cy="316" r="0.79" fill="#efe2c6" opacity="0.02"/><circle cx="845" cy="497" r="1.01" fill="#efe2c6" opacity="0.03"/><circle cx="56" cy="678" r="0.35" fill="#efe2c6" opacity="0.04"/><circle cx="267" cy="859" r="0.57" fill="#efe2c6" opacity="0.01"/><circle cx="478" cy="1040" r="0.79" fill="#efe2c6" opacity="0.02"/><circle cx="689" cy="1221" r="1.01" fill="#efe2c6" opacity="0.02"/><circle cx="900" cy="82" r="0.35" fill="#efe2c6" opacity="0.03"/><circle cx="111" cy="263" r="0.57" fill="#efe2c6" opacity="0.04"/><circle cx="322" cy="444" r="0.79" fill="#efe2c6" opacity="0.01"/><circle cx="533" cy="625" r="1.01" fill="#efe2c6" opacity="0.02"/><circle cx="744" cy="806" r="0.35" fill="#efe2c6" opacity="0.02"/><circle cx="955" cy="987" r="0.57" fill="#efe2c6" opacity="0.03"/><circle cx="166" cy="1168" r="0.79" fill="#efe2c6" opacity="0.04"/><circle cx="377" cy="29" r="1.01" fill="#efe2c6" opacity="0.01"/><circle cx="588" cy="210" r="0.35" fill="#efe2c6" opacity="0.02"/></g>
</svg>
