<svg xmlns="http://www.w3.org/2000/svg" viewBox="0 0 1000 1320" width="1000" height="1320" role="img" aria-label="tree-shadow">
  <defs>
    <linearGradient id="paper" x1="0" y1="0" x2="1" y2="1">
      <stop offset="0" stop-color="#060807"/>
      <stop offset="0.58" stop-color="#242e24"/>
      <stop offset="1" stop-color="#98936e"/>
    </linearGradient>
    <filter id="soft">
      <feGaussianBlur stdDeviation="7.92"/>
    </filter>
    <filter id="grain">
      <feTurbulence type="fractalNoise" baseFrequency="0.82" numOctaves="4" seed="108"/>
      <feColorMatrix type="saturate" values="0"/>
      <feComponentTransfer>
        <feFuncA type="table" tableValues="0 0.12"/>
      </feComponentTransfer>
    </filter>
    <filter id="tonalDisplace">
      <feTurbulence type="fractalNoise" baseFrequency="0.018" numOctaves="3" seed="127" result="noise"/>
      <feDisplacementMap in="SourceGraphic" in2="noise" scale="5.28"/>
    </filter>
  </defs>
  <rect width="1000" height="1320" fill="url(#paper)"/>
  <rect width="1000" height="1320" fill="#060504" opacity="0.12"/>
  <g filter="url(#tonalDisplace)">
    <rect x="504" y="960" width="300" height="211.2" fill="#f4dfb8" opacity="0.01" filter="url(#soft)"/><rect x="661" y="1091" width="340" height="270.6" fill="#f4dfb8" opacity="0.02" filter="url(#soft)"/><rect x="818" y="-98" width="180" height="330" fill="#f4dfb8" opacity="0.03" filter="url(#soft)"/><rect x="-25" y="33" width="220" height="389.4" fill="#f4dfb8" opacity="0.01" filter="url(#soft)"/><rect x="132" y="164" width="260" height="211.2" fill="#f4dfb8" opacity="0.02" filter="url(#soft)"/><rect x="289" y="295" width="300" height="270.6" fill="#f4dfb8" opacity="0.03" filter="url(#soft)"/>
    
        <rect x="180" y="0" width="500" height="1320" fill="#d8d2bd" opacity="0.075"/>
        <path d="M20 1320 C180 765.5999999999999, 100 422.40000000000003, 300 79.2" stroke="#d3cfa5" stroke-width="5.5" opacity="0.1" fill="none"/><path d="M90.00000000000001 1320 C220 765.5999999999999, 160 422.40000000000003, 337.99999999999994 79.2" stroke="#d3cfa5" stroke-width="5.5" opacity="0.13" fill="none"/><path d="M160 1320 C260 765.5999999999999, 220 422.40000000000003, 376 79.2" stroke="#d3cfa5" stroke-width="5.5" opacity="0.16" fill="none"/><path d="M230 1320 C300 765.5999999999999, 280 422.40000000000003, 414 79.2" stroke="#d3cfa5" stroke-width="5.5" opacity="0.1" fill="none"/><path d="M300.00000000000006 1320 C339.99999999999994 765.5999999999999, 339.99999999999994 422.40000000000003, 451.99999999999994 79.2" stroke="#d3cfa5" stroke-width="5.5" opacity="0.13" fill="none"/><path d="M370.00000000000006 1320 C380 765.5999999999999, 400 422.40000000000003, 490 79.2" stroke="#d3cfa5" stroke-width="5.5" opacity="0.16" fill="none"/><path d="M440.00000000000006 1320 C420 765.5999999999999, 459.99999999999994 422.40000000000003, 528 79.2" stroke="#d3cfa5" stroke-width="5.5" opacity="0.1" fill="none"/><path d="M510 1320 C460 765.5999999999999, 520 422.40000000000003, 566.0000000000001 79.2" stroke="#d3cfa5" stroke-width="5.5" opacity="0.13" fill="none"/><path d="M580.0000000000001 1320 C500 765.5999999999999, 580 422.40000000000003, 604 79.2" stroke="#d3cfa5" stroke-width="5.5" opacity="0.16" fill="none"/><path d="M650.0000000000001 1320 C540 765.5999999999999, 640 422.40000000000003, 641.9999999999999 79.2" stroke="#d3cfa5" stroke-width="5.5" opacity="0.1" fill="none"/><path d="M720.0000000000001 1320 C580.0000000000001 765.5999999999999, 700 422.40000000000003, 679.9999999999999 79.2" stroke="#d3cfa5" stroke-width="5.5" opacity="0.13" fill="none"/><path d="M790 1320 C620 765.5999999999999, 759.9999999999999 422.40000000000003, 718 79.2" stroke="#d3cfa5" stroke-width="5.5" opacity="0.16" fill="none"/><path d="M860.0000000000001 1320 C659.9999999999999 765.5999999999999, 820 422.40000000000003, 756 79.2" stroke="#d3cfa5" stroke-width="5.5" opacity="0.1" fill="none"/><path d="M930.0000000000001 1320 C700 765.5999999999999, 880 422.40000000000003, 794 79.2" stroke="#d3cfa5" stroke-width="5.5" opacity="0.13" fill="none"/>
        <path d="M80 818.4 C360 633.6, 560 950.4, 860 448.8" stroke="#eadbb5" stroke-width="10" opacity="0.08" fill="none"/>
  </g>
  
  <rect x="0" y="0" width="200" height="1320" fill="#020201" opacity="0.3" filter="url(#soft)"/>
  <rect x="800" y="0" width="200" height="1320" fill="#020201" opacity="0.28" filter="url(#soft)"/>
  <rect x="0" y="0" width="1000" height="237.6" fill="#020201" opacity="0.18" filter="url(#soft)"/>
  <rect x="0" y="1082.4" width="1000" height="237.6" fill="#020201" opacity="0.34" filter="url(#soft)"/>
  <rect width="1000" height="1320" fill="#0a0806" opacity="0.08"/>
  <rect width="1000" height="1320" filter="url(#grain)" opacity="0.24"/>
  <g><line x1="419" y1="66" x2="416" y2="1267.2" stroke="#f4e6c8" stroke-width="0.8" opacity="0.01"/><line x1="753" y1="66" x2="753" y2="1267.2" stroke="#f4e6c8" stroke-width="0.55" opacity="0.02"/><line x1="127" y1="66" x2="130" y2="1267.2" stroke="#f4e6c8" stroke-width="0.55" opacity="0.03"/><line x1="461" y1="66" x2="458" y2="1267.2" stroke="#f4e6c8" stroke-width="0.55" opacity="0.03"/></g>
  <g><circle cx="716" cy="444" r="0.35" fill="#efe2c6" opacity="0.03"/><circle cx="927" cy="625" r="0.57" fill="#efe2c6" opacity="0.04"/><circle cx="138" cy="806" r="0.79" fill="#efe2c6" opacity="0.01"/><circle cx="349" cy="987" r="1.01" fill="#efe2c6" opacity="0.02"/><circle cx="560" cy="1168" r="0.35" fill="#efe2c6" opacity="0.02"/><circle cx="771" cy="29" r="0.57" fill="#efe2c6" opacity="0.03"/><circle cx="982" cy="210" r="0.79" fill="#efe2c6" opacity="0.04"/><circle cx="193" cy="391" r="1.01" fill="#efe2c6" opacity="0.01"/><circle cx="404" cy="572" r="0.35" fill="#efe2c6" opacity="0.02"/><circle cx="615" cy="753" r="0.57" fill="#efe2c6" opacity="0.02"/><circle cx="826" cy="934" r="0.79" fill="#efe2c6" opacity="0.03"/><circle cx="37" cy="1115" r="1.01" fill="#efe2c6" opacity="0.04"/><circle cx="248" cy="1296" r="0.35" fill="#efe2c6" opacity="0.01"/><circle cx="459" cy="157" r="0.57" fill="#efe2c6" opacity="0.02"/><circle cx="670" cy="338" r="0.79" fill="#efe2c6" opacity="0.02"/><circle cx="881" cy="519" r="1.01" fill="#efe2c6" opacity="0.03"/><circle cx="92" cy="700" r="0.35" fill="#efe2c6" opacity="0.04"/><circle cx="303" cy="881" r="0.57" fill="#efe2c6" opacity="0.01"/><circle cx="514" cy="1062" r="0.79" fill="#efe2c6" opacity="0.02"/><circle cx="725" cy="1243" r="1.01" fill="#efe2c6" opacity="0.02"/><circle cx="936" cy="104" r="0.35" fill="#efe2c6" opacity="0.03"/><circle cx="147" cy="285" r="0.57" fill="#efe2c6" opacity="0.04"/><circle cx="358" cy="466" r="0.79" fill="#efe2c6" opacity="0.01"/><circle cx="569" cy="647" r="1.01" fill="#efe2c6" opacity="0.02"/><circle cx="780" cy="828" r="0.35" fill="#efe2c6" opacity="0.02"/><circle cx="991" cy="1009" r="0.57" fill="#efe2c6" opacity="0.03"/><circle cx="202" cy="1190" r="0.79" fill="#efe2c6" opacity="0.04"/><circle cx="413" cy="51" r="1.01" fill="#efe2c6" opacity="0.01"/><circle cx="624" cy="232" r="0.35" fill="#efe2c6" opacity="0.02"/><circle cx="835" cy="413" r="0.57" fill="#efe2c6" opacity="0.02"/><circle cx="46" cy="594" r="0.79" fill="#efe2c6" opacity="0.03"/><circle cx="257" cy="775" r="1.01" fill="#efe2c6" opacity="0.04"/><circle cx="468" cy="956" r="0.35" fill="#efe2c6" opacity="0.01"/><circle cx="679" cy="1137" r="0.57" fill="#efe2c6" opacity="0.02"/><circle cx="890" cy="1318" r="0.79" fill="#efe2c6" opacity="0.02"/><circle cx="101" cy="179" r="1.01" fill="#efe2c6" opacity="0.03"/><circle cx="312" cy="360" r="0.35" fill="#efe2c6" opacity="0.04"/><circle cx="523" cy="541" r="0.57" fill="#efe2c6" opacity="0.01"/><circle cx="734" cy="722" r="0.79" fill="#efe2c6" opacity="0.02"/><circle cx="945" cy="903" r="1.01" fill="#efe2c6" opacity="0.02"/><circle cx="156" cy="1084" r="0.35" fill="#efe2c6" opacity="0.03"/><circle cx="367" cy="1265" r="0.57" fill="#efe2c6" opacity="0.04"/><circle cx="578" cy="126" r="0.79" fill="#efe2c6" opacity="0.01"/><circle cx="789" cy="307" r="1.01" fill="#efe2c6" opacity="0.02"/><circle cx="0" cy="488" r="0.35" fill="#efe2c6" opacity="0.02"/><circle cx="211" cy="669" r="0.57" fill="#efe2c6" opacity="0.03"/><circle cx="422" cy="850" r="0.79" fill="#efe2c6" opacity="0.04"/><circle cx="633" cy="1031" r="1.01" fill="#efe2c6" opacity="0.01"/><circle cx="844" cy="1212" r="0.35" fill="#efe2c6" opacity="0.02"/><circle cx="55" cy="73" r="0.57" fill="#efe2c6" opacity="0.02"/><circle cx="266" cy="254" r="0.79" fill="#efe2c6" opacity="0.03"/><circle cx="477" cy="435" r="1.01" fill="#efe2c6" opacity="0.04"/><circle cx="688" cy="616" r="0.35" fill="#efe2c6" opacity="0.01"/><circle cx="899" cy="797" r="0.57" fill="#efe2c6" opacity="0.02"/><circle cx="110" cy="978" r="0.79" fill="#efe2c6" opacity="0.02"/><circle cx="321" cy="1159" r="1.01" fill="#efe2c6" opacity="0.03"/><circle cx="532" cy="20" r="0.35" fill="#efe2c6" opacity="0.04"/><circle cx="743" cy="201" r="0.57" fill="#efe2c6" opacity="0.01"/><circle cx="954" cy="382" r="0.79" fill="#efe2c6" opacity="0.02"/><circle cx="165" cy="563" r="1.01" fill="#efe2c6" opacity="0.02"/><circle cx="376" cy="744" r="0.35" fill="#efe2c6" opacity="0.03"/><circle cx="587" cy="925" r="0.57" fill="#efe2c6" opacity="0.04"/><circle cx="798" cy="1106" r="0.79" fill="#efe2c6" opacity="0.01"/><circle cx="9" cy="1287" r="1.01" fill="#efe2c6" opacity="0.02"/><circle cx="220" cy="148" r="0.35" fill="#efe2c6" opacity="0.02"/><circle cx="431" cy="329" r="0.57" fill="#efe2c6" opacity="0.03"/><circle cx="642" cy="510" r="0.79" fill="#efe2c6" opacity="0.04"/><circle cx="853" cy="691" r="1.01" fill="#efe2c6" opacity="0.01"/><circle cx="64" cy="872" r="0.35" fill="#efe2c6" opacity="0.02"/><circle cx="275" cy="1053" r="0.57" fill="#efe2c6" opacity="0.02"/><circle cx="486" cy="1234" r="0.79" fill="#efe2c6" opacity="0.03"/><circle cx="697" cy="95" r="1.01" fill="#efe2c6" opacity="0.04"/><circle cx="908" cy="276" r="0.35" fill="#efe2c6" opacity="0.01"/><circle cx="119" cy="457" r="0.57" fill="#efe2c6" opacity="0.02"/><circle cx="330" cy="638" r="0.79" fill="#efe2c6" opacity="0.02"/><circle cx="541" cy="819" r="1.01" fill="#efe2c6" opacity="0.03"/><circle cx="752" cy="1000" r="0.35" fill="#efe2c6" opacity="0.04"/><circle cx="963" cy="1181" r="0.57" fill="#efe2c6" opacity="0.01"/><circle cx="174" cy="42" r="0.79" fill="#efe2c6" opacity="0.02"/><circle cx="385" cy="223" r="1.01" fill="#efe2c6" opacity="0.02"/><circle cx="596" cy="404" r="0.35" fill="#efe2c6" opacity="0.03"/><circle cx="807" cy="585" r="0.57" fill="#efe2c6" opacity="0.04"/><circle cx="18" cy="766" r="0.79" fill="#efe2c6" opacity="0.01"/><circle cx="229" cy="947" r="1.01" fill="#efe2c6" opacity="0.02"/><circle cx="440" cy="1128" r="0.35" fill="#efe2c6" opacity="0.02"/><circle cx="651" cy="1309" r="0.57" fill="#efe2c6" opacity="0.03"/><circle cx="862" cy="170" r="0.79" fill="#efe2c6" opacity="0.04"/><circle cx="73" cy="351" r="1.01" fill="#efe2c6" opacity="0.01"/><circle cx="284" cy="532" r="0.35" fill="#efe2c6" opacity="0.02"/><circle cx="495" cy="713" r="0.57" fill="#efe2c6" opacity="0.02"/><circle cx="706" cy="894" r="0.79" fill="#efe2c6" opacity="0.03"/><circle cx="917" cy="1075" r="1.01" fill="#efe2c6" opacity="0.04"/><circle cx="128" cy="1256" r="0.35" fill="#efe2c6" opacity="0.01"/><circle cx="339" cy="117" r="0.57" fill="#efe2c6" opacity="0.02"/><circle cx="550" cy="298" r="0.79" fill="#efe2c6" opacity="0.02"/><circle cx="761" cy="479" r="1.01" fill="#efe2c6" opacity="0.03"/><circle cx="972" cy="660" r="0.35" fill="#efe2c6" opacity="0.04"/><circle cx="183" cy="841" r="0.57" fill="#efe2c6" opacity="0.01"/><circle cx="394" cy="1022" r="0.79" fill="#efe2c6" opacity="0.02"/><circle cx="605" cy="1203" r="1.01" fill="#efe2c6" opacity="0.02"/><circle cx="816" cy="64" r="0.35" fill="#efe2c6" opacity="0.03"/><circle cx="27" cy="245" r="0.57" fill="#efe2c6" opacity="0.04"/><circle cx="238" cy="426" r="0.79" fill="#efe2c6" opacity="0.01"/><circle cx="449" cy="607" r="1.01" fill="#efe2c6" opacity="0.02"/><circle cx="660" cy="788" r="0.35" fill="#efe2c6" opacity="0.02"/><circle cx="871" cy="969" r="0.57" fill="#efe2c6" opacity="0.03"/><circle cx="82" cy="1150" r="0.79" fill="#efe2c6" opacity="0.04"/><circle cx="293" cy="11" r="1.01" fill="#efe2c6" opacity="0.01"/><circle cx="504" cy="192" r="0.35" fill="#efe2c6" opacity="0.02"/><circle cx="715" cy="373" r="0.57" fill="#efe2c6" opacity="0.02"/></g>
</svg>
