<svg xmlns="http://www.w3.org/2000/svg" viewBox="0 0 1000 1320" width="1000" height="1320" role="img" aria-label="wind-portrait">
  <defs>
    <linearGradient id="paper" x1="0" y1="0" x2="1" y2="1">
      <stop offset="0" stop-color="#080807"/>
      <stop offset="0.58" stop-color="#332f29"/>
      <stop offset="1" stop-color="#b0a188"/>
    </linearGradient>
    <filter id="soft">
      <feGaussianBlur stdDeviation="7.92"/>
    </filter>
    <filter id="grain">
      <feTurbulence type="fractalNoise" baseFrequency="0.82" numOctaves="4" seed="109"/>
      <feColorMatrix type="saturate" values="0"/>
      <feComponentTransfer>
        <feFuncA type="table" tableValues="0 0.12"/>
      </feComponentTransfer>
    </filter>
    <filter id="tonalDisplace">
      <feTurbulence type="fractalNoise" baseFrequency="0.018" numOctaves="3" seed="128" result="noise"/>
      <feDisplacementMap in="SourceGraphic" in2="noise" scale="5.28"/>
    </filter>
  </defs>
  <rect width="1000" height="1320" fill="url(#paper)"/>
  <rect width="1000" height="1320" fill="#060504" opacity="0.12"/>
  <g filter="url(#tonalDisplace)">
    <rect x="547" y="1019" width="340" height="270.6" fill="#f4dfb8" opacity="0.01" filter="url(#soft)"/><rect x="704" y="1150" width="180" height="330" fill="#f4dfb8" opacity="0.02" filter="url(#soft)"/><rect x="-139" y="-39" width="220" height="389.4" fill="#f4dfb8" opacity="0.03" filter="url(#soft)"/><rect x="18" y="92" width="260" height="211.2" fill="#f4dfb8" opacity="0.01" filter="url(#soft)"/><rect x="175" y="223" width="300" height="270.6" fill="#f4dfb8" opacity="0.02" filter="url(#soft)"/><rect x="332" y="354" width="340" height="330" fill="#f4dfb8" opacity="0.03" filter="url(#soft)"/>
    
        <rect x="120" y="0" width="180" height="1320" fill="#e7d5b6" opacity="0.055"/>
        <path d="M420 303.6 L550 264 L660 409.2 L640 633.6 L550 792 L430 739.2 L380 554.4 Z" fill="#d0c3ab" opacity="0.16" filter="url(#soft)"/>
        <path d="M250 1320 C300 910.8, 680 858, 740 1320 Z" fill="#c2b196" opacity="0.13"/>
        <line x1="280" y1="237.6" x2="340" y2="897.6" stroke="#ddcbb0" stroke-width="4.5" opacity="0.09"/><line x1="370" y1="237.6" x2="420.00000000000006" y2="897.6" stroke="#ddcbb0" stroke-width="4.5" opacity="0.105"/><line x1="460" y1="237.6" x2="500" y2="897.6" stroke="#ddcbb0" stroke-width="4.5" opacity="0.12"/><line x1="550" y1="237.6" x2="580.0000000000001" y2="897.6" stroke="#ddcbb0" stroke-width="4.5" opacity="0.135"/><line x1="640" y1="237.6" x2="660" y2="897.6" stroke="#ddcbb0" stroke-width="4.5" opacity="0.15"/>
        <path d="M500 303.6 L690 461.99999999999994 L660 739.2 L520 858 L480 660 Z" fill="#060504" opacity="0.32"/>
  </g>
  
  <rect x="0" y="0" width="200" height="1320" fill="#020201" opacity="0.3" filter="url(#soft)"/>
  <rect x="800" y="0" width="200" height="1320" fill="#020201" opacity="0.28" filter="url(#soft)"/>
  <rect x="0" y="0" width="1000" height="237.6" fill="#020201" opacity="0.18" filter="url(#soft)"/>
  <rect x="0" y="1082.4" width="1000" height="237.6" fill="#020201" opacity="0.34" filter="url(#soft)"/>
  <rect width="1000" height="1320" fill="#0a0806" opacity="0.08"/>
  <rect width="1000" height="1320" filter="url(#grain)" opacity="0.24"/>
  <g><line x1="627" y1="66" x2="624" y2="1267.2" stroke="#f4e6c8" stroke-width="0.8" opacity="0.01"/><line x1="31" y1="66" x2="31" y2="1267.2" stroke="#f4e6c8" stroke-width="0.55" opacity="0.02"/><line x1="395" y1="66" x2="398" y2="1267.2" stroke="#f4e6c8" stroke-width="0.55" opacity="0.03"/><line x1="758" y1="66" x2="755" y2="1267.2" stroke="#f4e6c8" stroke-width="0.55" opacity="0.03"/></g>
  <g><circle cx="843" cy="607" r="0.57" fill="#efe2c6" opacity="0.04"/><circle cx="54" cy="788" r="0.79" fill="#efe2c6" opacity="0.01"/><circle cx="265" cy="969" r="1.01" fill="#efe2c6" opacity="0.02"/><circle cx="476" cy="1150" r="0.35" fill="#efe2c6" opacity="0.02"/><circle cx="687" cy="11" r="0.57" fill="#efe2c6" opacity="0.03"/><circle cx="898" cy="192" r="0.79" fill="#efe2c6" opacity="0.04"/><circle cx="109" cy="373" r="1.01" fill="#efe2c6" opacity="0.01"/><circle cx="320" cy="554" r="0.35" fill="#efe2c6" opacity="0.02"/><circle cx="531" cy="735" r="0.57" fill="#efe2c6" opacity="0.02"/><circle cx="742" cy="916" r="0.79" fill="#efe2c6" opacity="0.03"/><circle cx="953" cy="1097" r="1.01" fill="#efe2c6" opacity="0.04"/><circle cx="164" cy="1278" r="0.35" fill="#efe2c6" opacity="0.01"/><circle cx="375" cy="139" r="0.57" fill="#efe2c6" opacity="0.02"/><circle cx="586" cy="320" r="0.79" fill="#efe2c6" opacity="0.02"/><circle cx="797" cy="501" r="1.01" fill="#efe2c6" opacity="0.03"/><circle cx="8" cy="682" r="0.35" fill="#efe2c6" opacity="0.04"/><circle cx="219" cy="863" r="0.57" fill="#efe2c6" opacity="0.01"/><circle cx="430" cy="1044" r="0.79" fill="#efe2c6" opacity="0.02"/><circle cx="641" cy="1225" r="1.01" fill="#efe2c6" opacity="0.02"/><circle cx="852" cy="86" r="0.35" fill="#efe2c6" opacity="0.03"/><circle cx="63" cy="267" r="0.57" fill="#efe2c6" opacity="0.04"/><circle cx="274" cy="448" r="0.79" fill="#efe2c6" opacity="0.01"/><circle cx="485" cy="629" r="1.01" fill="#efe2c6" opacity="0.02"/><circle cx="696" cy="810" r="0.35" fill="#efe2c6" opacity="0.02"/><circle cx="907" cy="991" r="0.57" fill="#efe2c6" opacity="0.03"/><circle cx="118" cy="1172" r="0.79" fill="#efe2c6" opacity="0.04"/><circle cx="329" cy="33" r="1.01" fill="#efe2c6" opacity="0.01"/><circle cx="540" cy="214" r="0.35" fill="#efe2c6" opacity="0.02"/><circle cx="751" cy="395" r="0.57" fill="#efe2c6" opacity="0.02"/><circle cx="962" cy="576" r="0.79" fill="#efe2c6" opacity="0.03"/><circle cx="173" cy="757" r="1.01" fill="#efe2c6" opacity="0.04"/><circle cx="384" cy="938" r="0.35" fill="#efe2c6" opacity="0.01"/><circle cx="595" cy="1119" r="0.57" fill="#efe2c6" opacity="0.02"/><circle cx="806" cy="1300" r="0.79" fill="#efe2c6" opacity="0.02"/><circle cx="17" cy="161" r="1.01" fill="#efe2c6" opacity="0.03"/><circle cx="228" cy="342" r="0.35" fill="#efe2c6" opacity="0.04"/><circle cx="439" cy="523" r="0.57" fill="#efe2c6" opacity="0.01"/><circle cx="650" cy="704" r="0.79" fill="#efe2c6" opacity="0.02"/><circle cx="861" cy="885" r="1.01" fill="#efe2c6" opacity="0.02"/><circle cx="72" cy="1066" r="0.35" fill="#efe2c6" opacity="0.03"/><circle cx="283" cy="1247" r="0.57" fill="#efe2c6" opacity="0.04"/><circle cx="494" cy="108" r="0.79" fill="#efe2c6" opacity="0.01"/><circle cx="705" cy="289" r="1.01" fill="#efe2c6" opacity="0.02"/><circle cx="916" cy="470" r="0.35" fill="#efe2c6" opacity="0.02"/><circle cx="127" cy="651" r="0.57" fill="#efe2c6" opacity="0.03"/><circle cx="338" cy="832" r="0.79" fill="#efe2c6" opacity="0.04"/><circle cx="549" cy="1013" r="1.01" fill="#efe2c6" opacity="0.01"/><circle cx="760" cy="1194" r="0.35" fill="#efe2c6" opacity="0.02"/><circle cx="971" cy="55" r="0.57" fill="#efe2c6" opacity="0.02"/><circle cx="182" cy="236" r="0.79" fill="#efe2c6" opacity="0.03"/><circle cx="393" cy="417" r="1.01" fill="#efe2c6" opacity="0.04"/><circle cx="604" cy="598" r="0.35" fill="#efe2c6" opacity="0.01"/><circle cx="815" cy="779" r="0.57" fill="#efe2c6" opacity="0.02"/><circle cx="26" cy="960" r="0.79" fill="#efe2c6" opacity="0.02"/><circle cx="237" cy="1141" r="1.01" fill="#efe2c6" opacity="0.03"/><circle cx="448" cy="2" r="0.35" fill="#efe2c6" opacity="0.04"/><circle cx="659" cy="183" r="0.57" fill="#efe2c6" opacity="0.01"/><circle cx="870" cy="364" r="0.79" fill="#efe2c6" opacity="0.02"/><circle cx="81" cy="545" r="1.01" fill="#efe2c6" opacity="0.02"/><circle cx="292" cy="726" r="0.35" fill="#efe2c6" opacity="0.03"/><circle cx="503" cy="907" r="0.57" fill="#efe2c6" opacity="0.04"/><circle cx="714" cy="1088" r="0.79" fill="#efe2c6" opacity="0.01"/><circle cx="925" cy="1269" r="1.01" fill="#efe2c6" opacity="0.02"/><circle cx="136" cy="130" r="0.35" fill="#efe2c6" opacity="0.02"/><circle cx="347" cy="311" r="0.57" fill="#efe2c6" opacity="0.03"/><circle cx="558" cy="492" r="0.79" fill="#efe2c6" opacity="0.04"/><circle cx="769" cy="673" r="1.01" fill="#efe2c6" opacity="0.01"/><circle cx="980" cy="854" r="0.35" fill="#efe2c6" opacity="0.02"/><circle cx="191" cy="1035" r="0.57" fill="#efe2c6" opacity="0.02"/><circle cx="402" cy="1216" r="0.79" fill="#efe2c6" opacity="0.03"/><circle cx="613" cy="77" r="1.01" fill="#efe2c6" opacity="0.04"/><circle cx="824" cy="258" r="0.35" fill="#efe2c6" opacity="0.01"/><circle cx="35" cy="439" r="0.57" fill="#efe2c6" opacity="0.02"/><circle cx="246" cy="620" r="0.79" fill="#efe2c6" opacity="0.02"/><circle cx="457" cy="801" r="1.01" fill="#efe2c6" opacity="0.03"/><circle cx="668" cy="982" r="0.35" fill="#efe2c6" opacity="0.04"/><circle cx="879" cy="1163" r="0.57" fill="#efe2c6" opacity="0.01"/><circle cx="90" cy="24" r="0.79" fill="#efe2c6" opacity="0.02"/><circle cx="301" cy="205" r="1.01" fill="#efe2c6" opacity="0.02"/><circle cx="512" cy="386" r="0.35" fill="#efe2c6" opacity="0.03"/><circle cx="723" cy="567" r="0.57" fill="#efe2c6" opacity="0.04"/><circle cx="934" cy="748" r="0.79" fill="#efe2c6" opacity="0.01"/><circle cx="145" cy="929" r="1.01" fill="#efe2c6" opacity="0.02"/><circle cx="356" cy="1110" r="0.35" fill="#efe2c6" opacity="0.02"/><circle cx="567" cy="1291" r="0.57" fill="#efe2c6" opacity="0.03"/><circle cx="778" cy="152" r="0.79" fill="#efe2c6" opacity="0.04"/><circle cx="989" cy="333" r="1.01" fill="#efe2c6" opacity="0.01"/><circle cx="200" cy="514" r="0.35" fill="#efe2c6" opacity="0.02"/><circle cx="411" cy="695" r="0.57" fill="#efe2c6" opacity="0.02"/><circle cx="622" cy="876" r="0.79" fill="#efe2c6" opacity="0.03"/><circle cx="833" cy="1057" r="1.01" fill="#efe2c6" opacity="0.04"/><circle cx="44" cy="1238" r="0.35" fill="#efe2c6" opacity="0.01"/><circle cx="255" cy="99" r="0.57" fill="#efe2c6" opacity="0.02"/><circle cx="466" cy="280" r="0.79" fill="#efe2c6" opacity="0.02"/><circle cx="677" cy="461" r="1.01" fill="#efe2c6" opacity="0.03"/><circle cx="888" cy="642" r="0.35" fill="#efe2c6" opacity="0.04"/><circle cx="99" cy="823" r="0.57" fill="#efe2c6" opacity="0.01"/><circle cx="310" cy="1004" r="0.79" fill="#efe2c6" opacity="0.02"/><circle cx="521" cy="1185" r="1.01" fill="#efe2c6" opacity="0.02"/><circle cx="732" cy="46" r="0.35" fill="#efe2c6" opacity="0.03"/><circle cx="943" cy="227" r="0.57" fill="#efe2c6" opacity="0.04"/><circle cx="154" cy="408" r="0.79" fill="#efe2c6" opacity="0.01"/><circle cx="365" cy="589" r="1.01" fill="#efe2c6" opacity="0.02"/><circle cx="576" cy="770" r="0.35" fill="#efe2c6" opacity="0.02"/><circle cx="787" cy="951" r="0.57" fill="#efe2c6" opacity="0.03"/><circle cx="998" cy="1132" r="0.79" fill="#efe2c6" opacity="0.04"/><circle cx="209" cy="1313" r="1.01" fill="#efe2c6" opacity="0.01"/><circle cx="420" cy="174" r="0.35" fill="#efe2c6" opacity="0.02"/><circle cx="631" cy="355" r="0.57" fill="#efe2c6" opacity="0.02"/><circle cx="842" cy="536" r="0.79" fill="#efe2c6" opacity="0.03"/></g>
</svg>
