<svg xmlns="http://www.w3.org/2000/svg" viewBox="0 0 1600 1000" width="1600" height="1000" role="img" aria-label="sea-rock">
  <defs>
    <linearGradient id="paper" x1="0" y1="0" x2="1" y2="1">
      <stop offset="0" stop-color="#07090a"/>
      <stop offset="0.58" stop-color="#324247"/>
      <stop offset="1" stop-color="#aaa498"/>
    </linearGradient>
    <filter id="soft">
      <feGaussianBlur stdDeviation="9.6"/>
    </filter>
    <filter id="grain">
      <feTurbulence type="fractalNoise" baseFrequency="0.82" numOctaves="4" seed="110"/>
      <feColorMatrix type="saturate" values="0"/>
      <feComponentTransfer>
        <feFuncA type="table" tableValues="0 0.12"/>
      </feComponentTransfer>
    </filter>
    <filter id="tonalDisplace">
      <feTurbulence type="fractalNoise" baseFrequency="0.018" numOctaves="3" seed="129" result="noise"/>
      <feDisplacementMap in="SourceGraphic" in2="noise" scale="6.4"/>
    </filter>
  </defs>
  <rect width="1600" height="1000" fill="url(#paper)"/>
  <rect width="1600" height="1000" fill="#060504" opacity="0.12"/>
  <g filter="url(#tonalDisplace)">
    <rect x="1306" y="390" width="288" height="250" fill="#f4dfb8" opacity="0.01" filter="url(#soft)"/><rect x="-137" y="521" width="352" height="295" fill="#f4dfb8" opacity="0.02" filter="url(#soft)"/><rect x="20" y="652" width="416" height="160" fill="#f4dfb8" opacity="0.03" filter="url(#soft)"/><rect x="177" y="783" width="480" height="205" fill="#f4dfb8" opacity="0.01" filter="url(#soft)"/><rect x="334" y="-86" width="544" height="250" fill="#f4dfb8" opacity="0.02" filter="url(#soft)"/><rect x="491" y="45" width="288" height="295" fill="#f4dfb8" opacity="0.03" filter="url(#soft)"/>
    
        <rect x="0" y="470" width="1600" height="260" fill="#d0cdc0" opacity="0.1"/>
        <line x1="0" y1="510" x2="1600" y2="500" stroke="#e1d7c5" stroke-width="7" opacity="0.17"/>
        <path d="M288 760 C368 540, 544 640, 672 770 Z" fill="#0a0807" opacity="0.58"/>
        <path d="M960 720 C1072 560, 1200 660, 1280 730 Z" fill="#0a0807" opacity="0.46"/>
        <path d="M0 660 L480 610 L992 650 L1600 600" fill="none" stroke="#e8ddc7" stroke-width="10" opacity="0.15"/>
  </g>
  
  <rect x="0" y="0" width="320" height="1000" fill="#020201" opacity="0.3" filter="url(#soft)"/>
  <rect x="1280" y="0" width="320" height="1000" fill="#020201" opacity="0.28" filter="url(#soft)"/>
  <rect x="0" y="0" width="1600" height="180" fill="#020201" opacity="0.18" filter="url(#soft)"/>
  <rect x="0" y="820" width="1600" height="180" fill="#020201" opacity="0.34" filter="url(#soft)"/>
  <rect width="1600" height="1000" fill="#0a0806" opacity="0.08"/>
  <rect width="1600" height="1000" filter="url(#grain)" opacity="0.24"/>
  <g><line x1="1411" y1="50" x2="1408" y2="960" stroke="#f4e6c8" stroke-width="0.8" opacity="0.01"/><line x1="77" y1="50" x2="77" y2="960" stroke="#f4e6c8" stroke-width="0.55" opacity="0.02"/><line x1="278" y1="50" x2="281" y2="960" stroke="#f4e6c8" stroke-width="0.55" opacity="0.03"/><line x1="480" y1="50" x2="477" y2="960" stroke="#f4e6c8" stroke-width="0.55" opacity="0.03"/></g>
  <g><circle cx="1170" cy="930" r="0.79" fill="#efe2c6" opacity="0.01"/><circle cx="1381" cy="111" r="1.01" fill="#efe2c6" opacity="0.02"/><circle cx="1592" cy="292" r="0.35" fill="#efe2c6" opacity="0.02"/><circle cx="203" cy="473" r="0.57" fill="#efe2c6" opacity="0.03"/><circle cx="414" cy="654" r="0.79" fill="#efe2c6" opacity="0.04"/><circle cx="625" cy="835" r="1.01" fill="#efe2c6" opacity="0.01"/><circle cx="836" cy="16" r="0.35" fill="#efe2c6" opacity="0.02"/><circle cx="1047" cy="197" r="0.57" fill="#efe2c6" opacity="0.02"/><circle cx="1258" cy="378" r="0.79" fill="#efe2c6" opacity="0.03"/><circle cx="1469" cy="559" r="1.01" fill="#efe2c6" opacity="0.04"/><circle cx="80" cy="740" r="0.35" fill="#efe2c6" opacity="0.01"/><circle cx="291" cy="921" r="0.57" fill="#efe2c6" opacity="0.02"/><circle cx="502" cy="102" r="0.79" fill="#efe2c6" opacity="0.02"/><circle cx="713" cy="283" r="1.01" fill="#efe2c6" opacity="0.03"/><circle cx="924" cy="464" r="0.35" fill="#efe2c6" opacity="0.04"/><circle cx="1135" cy="645" r="0.57" fill="#efe2c6" opacity="0.01"/><circle cx="1346" cy="826" r="0.79" fill="#efe2c6" opacity="0.02"/><circle cx="1557" cy="7" r="1.01" fill="#efe2c6" opacity="0.02"/><circle cx="168" cy="188" r="0.35" fill="#efe2c6" opacity="0.03"/><circle cx="379" cy="369" r="0.57" fill="#efe2c6" opacity="0.04"/><circle cx="590" cy="550" r="0.79" fill="#efe2c6" opacity="0.01"/><circle cx="801" cy="731" r="1.01" fill="#efe2c6" opacity="0.02"/><circle cx="1012" cy="912" r="0.35" fill="#efe2c6" opacity="0.02"/><circle cx="1223" cy="93" r="0.57" fill="#efe2c6" opacity="0.03"/><circle cx="1434" cy="274" r="0.79" fill="#efe2c6" opacity="0.04"/><circle cx="45" cy="455" r="1.01" fill="#efe2c6" opacity="0.01"/><circle cx="256" cy="636" r="0.35" fill="#efe2c6" opacity="0.02"/><circle cx="467" cy="817" r="0.57" fill="#efe2c6" opacity="0.02"/><circle cx="678" cy="998" r="0.79" fill="#efe2c6" opacity="0.03"/><circle cx="889" cy="179" r="1.01" fill="#efe2c6" opacity="0.04"/><circle cx="1100" cy="360" r="0.35" fill="#efe2c6" opacity="0.01"/><circle cx="1311" cy="541" r="0.57" fill="#efe2c6" opacity="0.02"/><circle cx="1522" cy="722" r="0.79" fill="#efe2c6" opacity="0.02"/><circle cx="133" cy="903" r="1.01" fill="#efe2c6" opacity="0.03"/><circle cx="344" cy="84" r="0.35" fill="#efe2c6" opacity="0.04"/><circle cx="555" cy="265" r="0.57" fill="#efe2c6" opacity="0.01"/><circle cx="766" cy="446" r="0.79" fill="#efe2c6" opacity="0.02"/><circle cx="977" cy="627" r="1.01" fill="#efe2c6" opacity="0.02"/><circle cx="1188" cy="808" r="0.35" fill="#efe2c6" opacity="0.03"/><circle cx="1399" cy="989" r="0.57" fill="#efe2c6" opacity="0.04"/><circle cx="10" cy="170" r="0.79" fill="#efe2c6" opacity="0.01"/><circle cx="221" cy="351" r="1.01" fill="#efe2c6" opacity="0.02"/><circle cx="432" cy="532" r="0.35" fill="#efe2c6" opacity="0.02"/><circle cx="643" cy="713" r="0.57" fill="#efe2c6" opacity="0.03"/><circle cx="854" cy="894" r="0.79" fill="#efe2c6" opacity="0.04"/><circle cx="1065" cy="75" r="1.01" fill="#efe2c6" opacity="0.01"/><circle cx="1276" cy="256" r="0.35" fill="#efe2c6" opacity="0.02"/><circle cx="1487" cy="437" r="0.57" fill="#efe2c6" opacity="0.02"/><circle cx="98" cy="618" r="0.79" fill="#efe2c6" opacity="0.03"/><circle cx="309" cy="799" r="1.01" fill="#efe2c6" opacity="0.04"/><circle cx="520" cy="980" r="0.35" fill="#efe2c6" opacity="0.01"/><circle cx="731" cy="161" r="0.57" fill="#efe2c6" opacity="0.02"/><circle cx="942" cy="342" r="0.79" fill="#efe2c6" opacity="0.02"/><circle cx="1153" cy="523" r="1.01" fill="#efe2c6" opacity="0.03"/><circle cx="1364" cy="704" r="0.35" fill="#efe2c6" opacity="0.04"/><circle cx="1575" cy="885" r="0.57" fill="#efe2c6" opacity="0.01"/><circle cx="186" cy="66" r="0.79" fill="#efe2c6" opacity="0.02"/><circle cx="397" cy="247" r="1.01" fill="#efe2c6" opacity="0.02"/><circle cx="608" cy="428" r="0.35" fill="#efe2c6" opacity="0.03"/><circle cx="819" cy="609" r="0.57" fill="#efe2c6" opacity="0.04"/><circle cx="1030" cy="790" r="0.79" fill="#efe2c6" opacity="0.01"/><circle cx="1241" cy="971" r="1.01" fill="#efe2c6" opacity="0.02"/><circle cx="1452" cy="152" r="0.35" fill="#efe2c6" opacity="0.02"/><circle cx="63" cy="333" r="0.57" fill="#efe2c6" opacity="0.03"/><circle cx="274" cy="514" r="0.79" fill="#efe2c6" opacity="0.04"/><circle cx="485" cy="695" r="1.01" fill="#efe2c6" opacity="0.01"/><circle cx="696" cy="876" r="0.35" fill="#efe2c6" opacity="0.02"/><circle cx="907" cy="57" r="0.57" fill="#efe2c6" opacity="0.02"/><circle cx="1118" cy="238" r="0.79" fill="#efe2c6" opacity="0.03"/><circle cx="1329" cy="419" r="1.01" fill="#efe2c6" opacity="0.04"/><circle cx="1540" cy="600" r="0.35" fill="#efe2c6" opacity="0.01"/><circle cx="151" cy="781" r="0.57" fill="#efe2c6" opacity="0.02"/><circle cx="362" cy="962" r="0.79" fill="#efe2c6" opacity="0.02"/><circle cx="573" cy="143" r="1.01" fill="#efe2c6" opacity="0.03"/><circle cx="784" cy="324" r="0.35" fill="#efe2c6" opacity="0.04"/><circle cx="995" cy="505" r="0.57" fill="#efe2c6" opacity="0.01"/><circle cx="1206" cy="686" r="0.79" fill="#efe2c6" opacity="0.02"/><circle cx="1417" cy="867" r="1.01" fill="#efe2c6" opacity="0.02"/><circle cx="28" cy="48" r="0.35" fill="#efe2c6" opacity="0.03"/><circle cx="239" cy="229" r="0.57" fill="#efe2c6" opacity="0.04"/><circle cx="450" cy="410" r="0.79" fill="#efe2c6" opacity="0.01"/><circle cx="661" cy="591" r="1.01" fill="#efe2c6" opacity="0.02"/><circle cx="872" cy="772" r="0.35" fill="#efe2c6" opacity="0.02"/><circle cx="1083" cy="953" r="0.57" fill="#efe2c6" opacity="0.03"/><circle cx="1294" cy="134" r="0.79" fill="#efe2c6" opacity="0.04"/><circle cx="1505" cy="315" r="1.01" fill="#efe2c6" opacity="0.01"/><circle cx="116" cy="496" r="0.35" fill="#efe2c6" opacity="0.02"/><circle cx="327" cy="677" r="0.57" fill="#efe2c6" opacity="0.02"/><circle cx="538" cy="858" r="0.79" fill="#efe2c6" opacity="0.03"/><circle cx="749" cy="39" r="1.01" fill="#efe2c6" opacity="0.04"/><circle cx="960" cy="220" r="0.35" fill="#efe2c6" opacity="0.01"/><circle cx="1171" cy="401" r="0.57" fill="#efe2c6" opacity="0.02"/><circle cx="1382" cy="582" r="0.79" fill="#efe2c6" opacity="0.02"/><circle cx="1593" cy="763" r="1.01" fill="#efe2c6" opacity="0.03"/><circle cx="204" cy="944" r="0.35" fill="#efe2c6" opacity="0.04"/><circle cx="415" cy="125" r="0.57" fill="#efe2c6" opacity="0.01"/><circle cx="626" cy="306" r="0.79" fill="#efe2c6" opacity="0.02"/><circle cx="837" cy="487" r="1.01" fill="#efe2c6" opacity="0.02"/><circle cx="1048" cy="668" r="0.35" fill="#efe2c6" opacity="0.03"/><circle cx="1259" cy="849" r="0.57" fill="#efe2c6" opacity="0.04"/><circle cx="1470" cy="30" r="0.79" fill="#efe2c6" opacity="0.01"/><circle cx="81" cy="211" r="1.01" fill="#efe2c6" opacity="0.02"/><circle cx="292" cy="392" r="0.35" fill="#efe2c6" opacity="0.02"/><circle cx="503" cy="573" r="0.57" fill="#efe2c6" opacity="0.03"/><circle cx="714" cy="754" r="0.79" fill="#efe2c6" opacity="0.04"/><circle cx="925" cy="935" r="1.01" fill="#efe2c6" opacity="0.01"/><circle cx="1136" cy="116" r="0.35" fill="#efe2c6" opacity="0.02"/><circle cx="1347" cy="297" r="0.57" fill="#efe2c6" opacity="0.02"/><circle cx="1558" cy="478" r="0.79" fill="#efe2c6" opacity="0.03"/><circle cx="169" cy="659" r="1.01" fill="#efe2c6" opacity="0.04"/></g>
</svg>
