<svg xmlns="http://www.w3.org/2000/svg" viewBox="0 0 1200 1200" width="1200" height="1200" role="img" aria-label="interior-window">
  <defs>
    <linearGradient id="paper" x1="0" y1="0" x2="1" y2="1">
      <stop offset="0" stop-color="#070706"/>
      <stop offset="0.58" stop-color="#2d2b26"/>
      <stop offset="1" stop-color="#ad9b76"/>
    </linearGradient>
    <filter id="soft">
      <feGaussianBlur stdDeviation="7.2"/>
    </filter>
    <filter id="grain">
      <feTurbulence type="fractalNoise" baseFrequency="0.82" numOctaves="4" seed="111"/>
      <feColorMatrix type="saturate" values="0"/>
      <feComponentTransfer>
        <feFuncA type="table" tableValues="0 0.12"/>
      </feComponentTransfer>
    </filter>
    <filter id="tonalDisplace">
      <feTurbulence type="fractalNoise" baseFrequency="0.018" numOctaves="3" seed="130" result="noise"/>
      <feDisplacementMap in="SourceGraphic" in2="noise" scale="4.8"/>
    </filter>
  </defs>
  <rect width="1200" height="1200" fill="url(#paper)"/>
  <rect width="1200" height="1200" fill="#060504" opacity="0.055"/>
  <rect width="1200" height="1200" fill="#e6d1ad" opacity="0.028"/>
  <g filter="url(#tonalDisplace)">
    <rect x="1005" y="429" width="264" height="354" fill="#f4dfb8" opacity="0.01" filter="url(#soft)"/><rect x="-38" y="560" width="312" height="192" fill="#f4dfb8" opacity="0.02" filter="url(#soft)"/><rect x="119" y="691" width="360" height="246" fill="#f4dfb8" opacity="0.03" filter="url(#soft)"/><rect x="276" y="822" width="408" height="300" fill="#f4dfb8" opacity="0.01" filter="url(#soft)"/><rect x="433" y="953" width="216" height="354" fill="#f4dfb8" opacity="0.02" filter="url(#soft)"/><rect x="590" y="-116" width="264" height="192" fill="#f4dfb8" opacity="0.03" filter="url(#soft)"/>
    
        
    <rect x="216" y="144" width="552" height="648" fill="#ecd8ad" opacity="0.2" filter="url(#soft)"/>
    <line x1="480.96" y1="144" x2="480.96" y2="792" stroke="#f1d9a9" stroke-width="4.8" opacity="0.19"/>
    <line x1="216" y1="480.96000000000004" x2="768" y2="480.96000000000004" stroke="#f1d9a9" stroke-width="4.2" opacity="0.16"/>
        <path d="M792 144 C672.0000000000001 408.00000000000006, 732 624, 804 816.0000000000001" stroke="#e5ce9d" stroke-width="9.6" opacity="0.19" fill="none"/>
        <path d="M408.00000000000006 816.0000000000001 H648 M432 816.0000000000001 L360 1056 M624 816.0000000000001 L732 1056" stroke="#dec593" stroke-width="12" opacity="0.22" fill="none"/>
        <path d="M768 744 C720 900, 768 1008, 840 1032 C888 888, 864 792, 816.0000000000001 744 Z" fill="#080706" opacity="0.63"/>
  </g>
  
  <rect x="0" y="0" width="240" height="1200" fill="#020201" opacity="0.18" filter="url(#soft)"/>
  <rect x="960" y="0" width="240" height="1200" fill="#020201" opacity="0.16" filter="url(#soft)"/>
  <rect x="0" y="0" width="1200" height="216" fill="#020201" opacity="0.1" filter="url(#soft)"/>
  <rect x="0" y="984" width="1200" height="216" fill="#020201" opacity="0.22" filter="url(#soft)"/>
  <rect width="1200" height="1200" fill="#0a0806" opacity="0.028"/>
  <rect width="1200" height="1200" filter="url(#grain)" opacity="0.18"/>
  <g><line x1="84" y1="60" x2="81" y2="1152" stroke="#f4e6c8" stroke-width="0.8" opacity="0.01"/><line x1="1083" y1="60" x2="1083" y2="1152" stroke="#f4e6c8" stroke-width="0.55" opacity="0.02"/><line x1="930" y1="60" x2="933" y2="1152" stroke="#f4e6c8" stroke-width="0.55" opacity="0.03"/><line x1="778" y1="60" x2="775" y2="1152" stroke="#f4e6c8" stroke-width="0.55" opacity="0.03"/></g>
  <g><circle cx="897" cy="93" r="1.01" fill="#efe2c6" opacity="0.02"/><circle cx="1108" cy="274" r="0.35" fill="#efe2c6" opacity="0.02"/><circle cx="119" cy="455" r="0.57" fill="#efe2c6" opacity="0.03"/><circle cx="330" cy="636" r="0.79" fill="#efe2c6" opacity="0.04"/><circle cx="541" cy="817" r="1.01" fill="#efe2c6" opacity="0.01"/><circle cx="752" cy="998" r="0.35" fill="#efe2c6" opacity="0.02"/><circle cx="963" cy="1179" r="0.57" fill="#efe2c6" opacity="0.02"/><circle cx="1174" cy="160" r="0.79" fill="#efe2c6" opacity="0.03"/><circle cx="185" cy="341" r="1.01" fill="#efe2c6" opacity="0.04"/><circle cx="396" cy="522" r="0.35" fill="#efe2c6" opacity="0.01"/><circle cx="607" cy="703" r="0.57" fill="#efe2c6" opacity="0.02"/><circle cx="818" cy="884" r="0.79" fill="#efe2c6" opacity="0.02"/><circle cx="1029" cy="1065" r="1.01" fill="#efe2c6" opacity="0.03"/><circle cx="40" cy="46" r="0.35" fill="#efe2c6" opacity="0.04"/><circle cx="251" cy="227" r="0.57" fill="#efe2c6" opacity="0.01"/><circle cx="462" cy="408" r="0.79" fill="#efe2c6" opacity="0.02"/><circle cx="673" cy="589" r="1.01" fill="#efe2c6" opacity="0.02"/><circle cx="884" cy="770" r="0.35" fill="#efe2c6" opacity="0.03"/><circle cx="1095" cy="951" r="0.57" fill="#efe2c6" opacity="0.04"/><circle cx="106" cy="1132" r="0.79" fill="#efe2c6" opacity="0.01"/><circle cx="317" cy="113" r="1.01" fill="#efe2c6" opacity="0.02"/><circle cx="528" cy="294" r="0.35" fill="#efe2c6" opacity="0.02"/><circle cx="739" cy="475" r="0.57" fill="#efe2c6" opacity="0.03"/><circle cx="950" cy="656" r="0.79" fill="#efe2c6" opacity="0.04"/><circle cx="1161" cy="837" r="1.01" fill="#efe2c6" opacity="0.01"/><circle cx="172" cy="1018" r="0.35" fill="#efe2c6" opacity="0.02"/><circle cx="383" cy="1199" r="0.57" fill="#efe2c6" opacity="0.02"/><circle cx="594" cy="180" r="0.79" fill="#efe2c6" opacity="0.03"/><circle cx="805" cy="361" r="1.01" fill="#efe2c6" opacity="0.04"/><circle cx="1016" cy="542" r="0.35" fill="#efe2c6" opacity="0.01"/><circle cx="27" cy="723" r="0.57" fill="#efe2c6" opacity="0.02"/><circle cx="238" cy="904" r="0.79" fill="#efe2c6" opacity="0.02"/><circle cx="449" cy="1085" r="1.01" fill="#efe2c6" opacity="0.03"/><circle cx="660" cy="66" r="0.35" fill="#efe2c6" opacity="0.04"/><circle cx="871" cy="247" r="0.57" fill="#efe2c6" opacity="0.01"/><circle cx="1082" cy="428" r="0.79" fill="#efe2c6" opacity="0.02"/><circle cx="93" cy="609" r="1.01" fill="#efe2c6" opacity="0.02"/><circle cx="304" cy="790" r="0.35" fill="#efe2c6" opacity="0.03"/><circle cx="515" cy="971" r="0.57" fill="#efe2c6" opacity="0.04"/><circle cx="726" cy="1152" r="0.79" fill="#efe2c6" opacity="0.01"/><circle cx="937" cy="133" r="1.01" fill="#efe2c6" opacity="0.02"/><circle cx="1148" cy="314" r="0.35" fill="#efe2c6" opacity="0.02"/><circle cx="159" cy="495" r="0.57" fill="#efe2c6" opacity="0.03"/><circle cx="370" cy="676" r="0.79" fill="#efe2c6" opacity="0.04"/><circle cx="581" cy="857" r="1.01" fill="#efe2c6" opacity="0.01"/><circle cx="792" cy="1038" r="0.35" fill="#efe2c6" opacity="0.02"/><circle cx="1003" cy="19" r="0.57" fill="#efe2c6" opacity="0.02"/><circle cx="14" cy="200" r="0.79" fill="#efe2c6" opacity="0.03"/><circle cx="225" cy="381" r="1.01" fill="#efe2c6" opacity="0.04"/><circle cx="436" cy="562" r="0.35" fill="#efe2c6" opacity="0.01"/><circle cx="647" cy="743" r="0.57" fill="#efe2c6" opacity="0.02"/><circle cx="858" cy="924" r="0.79" fill="#efe2c6" opacity="0.02"/><circle cx="1069" cy="1105" r="1.01" fill="#efe2c6" opacity="0.03"/><circle cx="80" cy="86" r="0.35" fill="#efe2c6" opacity="0.04"/><circle cx="291" cy="267" r="0.57" fill="#efe2c6" opacity="0.01"/><circle cx="502" cy="448" r="0.79" fill="#efe2c6" opacity="0.02"/><circle cx="713" cy="629" r="1.01" fill="#efe2c6" opacity="0.02"/><circle cx="924" cy="810" r="0.35" fill="#efe2c6" opacity="0.03"/><circle cx="1135" cy="991" r="0.57" fill="#efe2c6" opacity="0.04"/><circle cx="146" cy="1172" r="0.79" fill="#efe2c6" opacity="0.01"/><circle cx="357" cy="153" r="1.01" fill="#efe2c6" opacity="0.02"/><circle cx="568" cy="334" r="0.35" fill="#efe2c6" opacity="0.02"/><circle cx="779" cy="515" r="0.57" fill="#efe2c6" opacity="0.03"/><circle cx="990" cy="696" r="0.79" fill="#efe2c6" opacity="0.04"/><circle cx="1" cy="877" r="1.01" fill="#efe2c6" opacity="0.01"/><circle cx="212" cy="1058" r="0.35" fill="#efe2c6" opacity="0.02"/><circle cx="423" cy="39" r="0.57" fill="#efe2c6" opacity="0.02"/><circle cx="634" cy="220" r="0.79" fill="#efe2c6" opacity="0.03"/><circle cx="845" cy="401" r="1.01" fill="#efe2c6" opacity="0.04"/><circle cx="1056" cy="582" r="0.35" fill="#efe2c6" opacity="0.01"/><circle cx="67" cy="763" r="0.57" fill="#efe2c6" opacity="0.02"/><circle cx="278" cy="944" r="0.79" fill="#efe2c6" opacity="0.02"/><circle cx="489" cy="1125" r="1.01" fill="#efe2c6" opacity="0.03"/><circle cx="700" cy="106" r="0.35" fill="#efe2c6" opacity="0.04"/><circle cx="911" cy="287" r="0.57" fill="#efe2c6" opacity="0.01"/><circle cx="1122" cy="468" r="0.79" fill="#efe2c6" opacity="0.02"/><circle cx="133" cy="649" r="1.01" fill="#efe2c6" opacity="0.02"/><circle cx="344" cy="830" r="0.35" fill="#efe2c6" opacity="0.03"/><circle cx="555" cy="1011" r="0.57" fill="#efe2c6" opacity="0.04"/><circle cx="766" cy="1192" r="0.79" fill="#efe2c6" opacity="0.01"/><circle cx="977" cy="173" r="1.01" fill="#efe2c6" opacity="0.02"/><circle cx="1188" cy="354" r="0.35" fill="#efe2c6" opacity="0.02"/><circle cx="199" cy="535" r="0.57" fill="#efe2c6" opacity="0.03"/><circle cx="410" cy="716" r="0.79" fill="#efe2c6" opacity="0.04"/><circle cx="621" cy="897" r="1.01" fill="#efe2c6" opacity="0.01"/><circle cx="832" cy="1078" r="0.35" fill="#efe2c6" opacity="0.02"/><circle cx="1043" cy="59" r="0.57" fill="#efe2c6" opacity="0.02"/><circle cx="54" cy="240" r="0.79" fill="#efe2c6" opacity="0.03"/><circle cx="265" cy="421" r="1.01" fill="#efe2c6" opacity="0.04"/><circle cx="476" cy="602" r="0.35" fill="#efe2c6" opacity="0.01"/><circle cx="687" cy="783" r="0.57" fill="#efe2c6" opacity="0.02"/><circle cx="898" cy="964" r="0.79" fill="#efe2c6" opacity="0.02"/><circle cx="1109" cy="1145" r="1.01" fill="#efe2c6" opacity="0.03"/><circle cx="120" cy="126" r="0.35" fill="#efe2c6" opacity="0.04"/><circle cx="331" cy="307" r="0.57" fill="#efe2c6" opacity="0.01"/><circle cx="542" cy="488" r="0.79" fill="#efe2c6" opacity="0.02"/><circle cx="753" cy="669" r="1.01" fill="#efe2c6" opacity="0.02"/><circle cx="964" cy="850" r="0.35" fill="#efe2c6" opacity="0.03"/><circle cx="1175" cy="1031" r="0.57" fill="#efe2c6" opacity="0.04"/><circle cx="186" cy="12" r="0.79" fill="#efe2c6" opacity="0.01"/><circle cx="397" cy="193" r="1.01" fill="#efe2c6" opacity="0.02"/><circle cx="608" cy="374" r="0.35" fill="#efe2c6" opacity="0.02"/><circle cx="819" cy="555" r="0.57" fill="#efe2c6" opacity="0.03"/><circle cx="1030" cy="736" r="0.79" fill="#efe2c6" opacity="0.04"/><circle cx="41" cy="917" r="1.01" fill="#efe2c6" opacity="0.01"/><circle cx="252" cy="1098" r="0.35" fill="#efe2c6" opacity="0.02"/><circle cx="463" cy="79" r="0.57" fill="#efe2c6" opacity="0.02"/><circle cx="674" cy="260" r="0.79" fill="#efe2c6" opacity="0.03"/><circle cx="885" cy="441" r="1.01" fill="#efe2c6" opacity="0.04"/><circle cx="1096" cy="622" r="0.35" fill="#efe2c6" opacity="0.01"/></g>
</svg>
