<svg xmlns="http://www.w3.org/2000/svg" viewBox="0 0 1600 1000" width="1600" height="1000" role="img" aria-label="distant-field">
  <defs>
    <linearGradient id="paper" x1="0" y1="0" x2="1" y2="1">
      <stop offset="0" stop-color="#0a0806"/>
      <stop offset="0.58" stop-color="#473923"/>
      <stop offset="1" stop-color="#a88c64"/>
    </linearGradient>
    <filter id="soft">
      <feGaussianBlur stdDeviation="9.6"/>
    </filter>
    <filter id="grain">
      <feTurbulence type="fractalNoise" baseFrequency="0.82" numOctaves="4" seed="112"/>
      <feColorMatrix type="saturate" values="0"/>
      <feComponentTransfer>
        <feFuncA type="table" tableValues="0 0.12"/>
      </feComponentTransfer>
    </filter>
    <filter id="tonalDisplace">
      <feTurbulence type="fractalNoise" baseFrequency="0.018" numOctaves="3" seed="131" result="noise"/>
      <feDisplacementMap in="SourceGraphic" in2="noise" scale="6.4"/>
    </filter>
  </defs>
  <rect width="1600" height="1000" fill="url(#paper)"/>
  <rect width="1600" height="1000" fill="#060504" opacity="0.055"/>
  <rect width="1600" height="1000" fill="#e6d1ad" opacity="0.028"/>
  <g filter="url(#tonalDisplace)">
    <rect x="-208" y="508" width="416" height="160" fill="#f4dfb8" opacity="0.01" filter="url(#soft)"/><rect x="-51" y="639" width="480" height="205" fill="#f4dfb8" opacity="0.02" filter="url(#soft)"/><rect x="106" y="770" width="544" height="250" fill="#f4dfb8" opacity="0.03" filter="url(#soft)"/><rect x="263" y="-99" width="288" height="295" fill="#f4dfb8" opacity="0.01" filter="url(#soft)"/><rect x="420" y="32" width="352" height="160" fill="#f4dfb8" opacity="0.02" filter="url(#soft)"/><rect x="577" y="163" width="416" height="205" fill="#f4dfb8" opacity="0.03" filter="url(#soft)"/>
    
        <path d="M0 500 L256 430 L544 510 L768 390 L1040 520 L1312 440 L1600 500 L1600 1000 L0 1000 Z" fill="#a4865c" opacity="0.24"/>
        <line x1="0" y1="580" x2="1600" y2="540" stroke="#e0c396" stroke-width="9" opacity="0.18"/>
        <path d="M927.9999999999999 450 C1088 500, 1184 550, 1376 500" fill="none" stroke="#070504" stroke-width="12" opacity="0.22"/>
  </g>
  
  <rect x="0" y="0" width="320" height="1000" fill="#020201" opacity="0.18" filter="url(#soft)"/>
  <rect x="1280" y="0" width="320" height="1000" fill="#020201" opacity="0.16" filter="url(#soft)"/>
  <rect x="0" y="0" width="1600" height="180" fill="#020201" opacity="0.1" filter="url(#soft)"/>
  <rect x="0" y="820" width="1600" height="180" fill="#020201" opacity="0.22" filter="url(#soft)"/>
  <rect width="1600" height="1000" fill="#0a0806" opacity="0.028"/>
  <rect width="1600" height="1000" filter="url(#grain)" opacity="0.18"/>
  <g><line x1="292" y1="50" x2="289" y2="960" stroke="#f4e6c8" stroke-width="0.8" opacity="0.01"/><line x1="553" y1="50" x2="553" y2="960" stroke="#f4e6c8" stroke-width="0.55" opacity="0.02"/><line x1="814" y1="50" x2="817" y2="960" stroke="#f4e6c8" stroke-width="0.55" opacity="0.03"/><line x1="1075" y1="50" x2="1072" y2="960" stroke="#f4e6c8" stroke-width="0.55" opacity="0.03"/></g>
  <g><circle cx="1424" cy="256" r="0.35" fill="#efe2c6" opacity="0.02"/><circle cx="35" cy="437" r="0.57" fill="#efe2c6" opacity="0.03"/><circle cx="246" cy="618" r="0.79" fill="#efe2c6" opacity="0.04"/><circle cx="457" cy="799" r="1.01" fill="#efe2c6" opacity="0.01"/><circle cx="668" cy="980" r="0.35" fill="#efe2c6" opacity="0.02"/><circle cx="879" cy="161" r="0.57" fill="#efe2c6" opacity="0.02"/><circle cx="1090" cy="342" r="0.79" fill="#efe2c6" opacity="0.03"/><circle cx="1301" cy="523" r="1.01" fill="#efe2c6" opacity="0.04"/><circle cx="1512" cy="704" r="0.35" fill="#efe2c6" opacity="0.01"/><circle cx="123" cy="885" r="0.57" fill="#efe2c6" opacity="0.02"/><circle cx="334" cy="66" r="0.79" fill="#efe2c6" opacity="0.02"/><circle cx="545" cy="247" r="1.01" fill="#efe2c6" opacity="0.03"/><circle cx="756" cy="428" r="0.35" fill="#efe2c6" opacity="0.04"/><circle cx="967" cy="609" r="0.57" fill="#efe2c6" opacity="0.01"/><circle cx="1178" cy="790" r="0.79" fill="#efe2c6" opacity="0.02"/><circle cx="1389" cy="971" r="1.01" fill="#efe2c6" opacity="0.02"/><circle cx="0" cy="152" r="0.35" fill="#efe2c6" opacity="0.03"/><circle cx="211" cy="333" r="0.57" fill="#efe2c6" opacity="0.04"/><circle cx="422" cy="514" r="0.79" fill="#efe2c6" opacity="0.01"/><circle cx="633" cy="695" r="1.01" fill="#efe2c6" opacity="0.02"/><circle cx="844" cy="876" r="0.35" fill="#efe2c6" opacity="0.02"/><circle cx="1055" cy="57" r="0.57" fill="#efe2c6" opacity="0.03"/><circle cx="1266" cy="238" r="0.79" fill="#efe2c6" opacity="0.04"/><circle cx="1477" cy="419" r="1.01" fill="#efe2c6" opacity="0.01"/><circle cx="88" cy="600" r="0.35" fill="#efe2c6" opacity="0.02"/><circle cx="299" cy="781" r="0.57" fill="#efe2c6" opacity="0.02"/><circle cx="510" cy="962" r="0.79" fill="#efe2c6" opacity="0.03"/><circle cx="721" cy="143" r="1.01" fill="#efe2c6" opacity="0.04"/><circle cx="932" cy="324" r="0.35" fill="#efe2c6" opacity="0.01"/><circle cx="1143" cy="505" r="0.57" fill="#efe2c6" opacity="0.02"/><circle cx="1354" cy="686" r="0.79" fill="#efe2c6" opacity="0.02"/><circle cx="1565" cy="867" r="1.01" fill="#efe2c6" opacity="0.03"/><circle cx="176" cy="48" r="0.35" fill="#efe2c6" opacity="0.04"/><circle cx="387" cy="229" r="0.57" fill="#efe2c6" opacity="0.01"/><circle cx="598" cy="410" r="0.79" fill="#efe2c6" opacity="0.02"/><circle cx="809" cy="591" r="1.01" fill="#efe2c6" opacity="0.02"/><circle cx="1020" cy="772" r="0.35" fill="#efe2c6" opacity="0.03"/><circle cx="1231" cy="953" r="0.57" fill="#efe2c6" opacity="0.04"/><circle cx="1442" cy="134" r="0.79" fill="#efe2c6" opacity="0.01"/><circle cx="53" cy="315" r="1.01" fill="#efe2c6" opacity="0.02"/><circle cx="264" cy="496" r="0.35" fill="#efe2c6" opacity="0.02"/><circle cx="475" cy="677" r="0.57" fill="#efe2c6" opacity="0.03"/><circle cx="686" cy="858" r="0.79" fill="#efe2c6" opacity="0.04"/><circle cx="897" cy="39" r="1.01" fill="#efe2c6" opacity="0.01"/><circle cx="1108" cy="220" r="0.35" fill="#efe2c6" opacity="0.02"/><circle cx="1319" cy="401" r="0.57" fill="#efe2c6" opacity="0.02"/><circle cx="1530" cy="582" r="0.79" fill="#efe2c6" opacity="0.03"/><circle cx="141" cy="763" r="1.01" fill="#efe2c6" opacity="0.04"/><circle cx="352" cy="944" r="0.35" fill="#efe2c6" opacity="0.01"/><circle cx="563" cy="125" r="0.57" fill="#efe2c6" opacity="0.02"/><circle cx="774" cy="306" r="0.79" fill="#efe2c6" opacity="0.02"/><circle cx="985" cy="487" r="1.01" fill="#efe2c6" opacity="0.03"/><circle cx="1196" cy="668" r="0.35" fill="#efe2c6" opacity="0.04"/><circle cx="1407" cy="849" r="0.57" fill="#efe2c6" opacity="0.01"/><circle cx="18" cy="30" r="0.79" fill="#efe2c6" opacity="0.02"/><circle cx="229" cy="211" r="1.01" fill="#efe2c6" opacity="0.02"/><circle cx="440" cy="392" r="0.35" fill="#efe2c6" opacity="0.03"/><circle cx="651" cy="573" r="0.57" fill="#efe2c6" opacity="0.04"/><circle cx="862" cy="754" r="0.79" fill="#efe2c6" opacity="0.01"/><circle cx="1073" cy="935" r="1.01" fill="#efe2c6" opacity="0.02"/><circle cx="1284" cy="116" r="0.35" fill="#efe2c6" opacity="0.02"/><circle cx="1495" cy="297" r="0.57" fill="#efe2c6" opacity="0.03"/><circle cx="106" cy="478" r="0.79" fill="#efe2c6" opacity="0.04"/><circle cx="317" cy="659" r="1.01" fill="#efe2c6" opacity="0.01"/><circle cx="528" cy="840" r="0.35" fill="#efe2c6" opacity="0.02"/><circle cx="739" cy="21" r="0.57" fill="#efe2c6" opacity="0.02"/><circle cx="950" cy="202" r="0.79" fill="#efe2c6" opacity="0.03"/><circle cx="1161" cy="383" r="1.01" fill="#efe2c6" opacity="0.04"/><circle cx="1372" cy="564" r="0.35" fill="#efe2c6" opacity="0.01"/><circle cx="1583" cy="745" r="0.57" fill="#efe2c6" opacity="0.02"/><circle cx="194" cy="926" r="0.79" fill="#efe2c6" opacity="0.02"/><circle cx="405" cy="107" r="1.01" fill="#efe2c6" opacity="0.03"/><circle cx="616" cy="288" r="0.35" fill="#efe2c6" opacity="0.04"/><circle cx="827" cy="469" r="0.57" fill="#efe2c6" opacity="0.01"/><circle cx="1038" cy="650" r="0.79" fill="#efe2c6" opacity="0.02"/><circle cx="1249" cy="831" r="1.01" fill="#efe2c6" opacity="0.02"/><circle cx="1460" cy="12" r="0.35" fill="#efe2c6" opacity="0.03"/><circle cx="71" cy="193" r="0.57" fill="#efe2c6" opacity="0.04"/><circle cx="282" cy="374" r="0.79" fill="#efe2c6" opacity="0.01"/><circle cx="493" cy="555" r="1.01" fill="#efe2c6" opacity="0.02"/><circle cx="704" cy="736" r="0.35" fill="#efe2c6" opacity="0.02"/><circle cx="915" cy="917" r="0.57" fill="#efe2c6" opacity="0.03"/><circle cx="1126" cy="98" r="0.79" fill="#efe2c6" opacity="0.04"/><circle cx="1337" cy="279" r="1.01" fill="#efe2c6" opacity="0.01"/><circle cx="1548" cy="460" r="0.35" fill="#efe2c6" opacity="0.02"/><circle cx="159" cy="641" r="0.57" fill="#efe2c6" opacity="0.02"/><circle cx="370" cy="822" r="0.79" fill="#efe2c6" opacity="0.03"/><circle cx="581" cy="3" r="1.01" fill="#efe2c6" opacity="0.04"/><circle cx="792" cy="184" r="0.35" fill="#efe2c6" opacity="0.01"/><circle cx="1003" cy="365" r="0.57" fill="#efe2c6" opacity="0.02"/><circle cx="1214" cy="546" r="0.79" fill="#efe2c6" opacity="0.02"/><circle cx="1425" cy="727" r="1.01" fill="#efe2c6" opacity="0.03"/><circle cx="36" cy="908" r="0.35" fill="#efe2c6" opacity="0.04"/><circle cx="247" cy="89" r="0.57" fill="#efe2c6" opacity="0.01"/><circle cx="458" cy="270" r="0.79" fill="#efe2c6" opacity="0.02"/><circle cx="669" cy="451" r="1.01" fill="#efe2c6" opacity="0.02"/><circle cx="880" cy="632" r="0.35" fill="#efe2c6" opacity="0.03"/><circle cx="1091" cy="813" r="0.57" fill="#efe2c6" opacity="0.04"/><circle cx="1302" cy="994" r="0.79" fill="#efe2c6" opacity="0.01"/><circle cx="1513" cy="175" r="1.01" fill="#efe2c6" opacity="0.02"/><circle cx="124" cy="356" r="0.35" fill="#efe2c6" opacity="0.02"/><circle cx="335" cy="537" r="0.57" fill="#efe2c6" opacity="0.03"/><circle cx="546" cy="718" r="0.79" fill="#efe2c6" opacity="0.04"/><circle cx="757" cy="899" r="1.01" fill="#efe2c6" opacity="0.01"/><circle cx="968" cy="80" r="0.35" fill="#efe2c6" opacity="0.02"/><circle cx="1179" cy="261" r="0.57" fill="#efe2c6" opacity="0.02"/><circle cx="1390" cy="442" r="0.79" fill="#efe2c6" opacity="0.03"/><circle cx="1" cy="623" r="1.01" fill="#efe2c6" opacity="0.04"/><circle cx="212" cy="804" r="0.35" fill="#efe2c6" opacity="0.01"/><circle cx="423" cy="985" r="0.57" fill="#efe2c6" opacity="0.02"/></g>
</svg>
