<svg xmlns="http://www.w3.org/2000/svg" viewBox="0 0 1000 1320" width="1000" height="1320" role="img" aria-label="plaster-passage">
  <defs>
    <linearGradient id="paper" x1="0" y1="0" x2="1" y2="1">
      <stop offset="0" stop-color="#0b0806"/>
      <stop offset="0.58" stop-color="#5f4932"/>
      <stop offset="1" stop-color="#b79a70"/>
    </linearGradient>
    <filter id="soft">
      <feGaussianBlur stdDeviation="7.92"/>
    </filter>
    <filter id="grain">
      <feTurbulence type="fractalNoise" baseFrequency="0.82" numOctaves="4" seed="113"/>
      <feColorMatrix type="saturate" values="0"/>
      <feComponentTransfer>
        <feFuncA type="table" tableValues="0 0.12"/>
      </feComponentTransfer>
    </filter>
    <filter id="tonalDisplace">
      <feTurbulence type="fractalNoise" baseFrequency="0.018" numOctaves="3" seed="132" result="noise"/>
      <feDisplacementMap in="SourceGraphic" in2="noise" scale="5.28"/>
    </filter>
  </defs>
  <rect width="1000" height="1320" fill="url(#paper)"/>
  <rect width="1000" height="1320" fill="#060504" opacity="0.12"/>
  <g filter="url(#tonalDisplace)">
    <rect x="719" y="-65" width="300" height="270.6" fill="#f4dfb8" opacity="0.01" filter="url(#soft)"/><rect x="-124" y="66" width="340" height="330" fill="#f4dfb8" opacity="0.02" filter="url(#soft)"/><rect x="33" y="197" width="180" height="389.4" fill="#f4dfb8" opacity="0.03" filter="url(#soft)"/><rect x="190" y="328" width="220" height="211.2" fill="#f4dfb8" opacity="0.01" filter="url(#soft)"/><rect x="347" y="459" width="260" height="270.6" fill="#f4dfb8" opacity="0.02" filter="url(#soft)"/><rect x="504" y="590" width="300" height="330" fill="#f4dfb8" opacity="0.03" filter="url(#soft)"/>
    
        <rect x="100" y="0" width="780" height="1320" fill="#c7ad82" opacity="0.1"/>
        <path d="M150 1320 L450 607.2 L590 1320 Z" fill="#050403" opacity="0.38"/>
        <path d="M880 0 L660 1320 H1000 V0 Z" fill="#050403" opacity="0.16"/>
        <rect x="480" y="396" width="130" height="184.8" fill="#070504" opacity="0.34"/>
        <path d="M340 871.2 C300 1003.2, 340 1108.8, 390 1174.8 C440 1042.8, 420 923.9999999999999, 380 871.2 Z" fill="#050403" opacity="0.58"/>
  </g>
  
  <rect x="0" y="0" width="200" height="1320" fill="#020201" opacity="0.3" filter="url(#soft)"/>
  <rect x="800" y="0" width="200" height="1320" fill="#020201" opacity="0.28" filter="url(#soft)"/>
  <rect x="0" y="0" width="1000" height="237.6" fill="#020201" opacity="0.18" filter="url(#soft)"/>
  <rect x="0" y="1082.4" width="1000" height="237.6" fill="#020201" opacity="0.34" filter="url(#soft)"/>
  <rect width="1000" height="1320" fill="#0a0806" opacity="0.08"/>
  <rect width="1000" height="1320" filter="url(#grain)" opacity="0.24"/>
  <g><line x1="500" y1="66" x2="497" y2="1267.2" stroke="#f4e6c8" stroke-width="0.8" opacity="0.01"/><line x1="23" y1="66" x2="23" y2="1267.2" stroke="#f4e6c8" stroke-width="0.55" opacity="0.02"/><line x1="506" y1="66" x2="509" y2="1267.2" stroke="#f4e6c8" stroke-width="0.55" opacity="0.03"/><line x1="29" y1="66" x2="26" y2="1267.2" stroke="#f4e6c8" stroke-width="0.55" opacity="0.03"/></g>
  <g><circle cx="351" cy="1259" r="0.57" fill="#efe2c6" opacity="0.03"/><circle cx="562" cy="120" r="0.79" fill="#efe2c6" opacity="0.04"/><circle cx="773" cy="301" r="1.01" fill="#efe2c6" opacity="0.01"/><circle cx="984" cy="482" r="0.35" fill="#efe2c6" opacity="0.02"/><circle cx="195" cy="663" r="0.57" fill="#efe2c6" opacity="0.02"/><circle cx="406" cy="844" r="0.79" fill="#efe2c6" opacity="0.03"/><circle cx="617" cy="1025" r="1.01" fill="#efe2c6" opacity="0.04"/><circle cx="828" cy="1206" r="0.35" fill="#efe2c6" opacity="0.01"/><circle cx="39" cy="67" r="0.57" fill="#efe2c6" opacity="0.02"/><circle cx="250" cy="248" r="0.79" fill="#efe2c6" opacity="0.02"/><circle cx="461" cy="429" r="1.01" fill="#efe2c6" opacity="0.03"/><circle cx="672" cy="610" r="0.35" fill="#efe2c6" opacity="0.04"/><circle cx="883" cy="791" r="0.57" fill="#efe2c6" opacity="0.01"/><circle cx="94" cy="972" r="0.79" fill="#efe2c6" opacity="0.02"/><circle cx="305" cy="1153" r="1.01" fill="#efe2c6" opacity="0.02"/><circle cx="516" cy="14" r="0.35" fill="#efe2c6" opacity="0.03"/><circle cx="727" cy="195" r="0.57" fill="#efe2c6" opacity="0.04"/><circle cx="938" cy="376" r="0.79" fill="#efe2c6" opacity="0.01"/><circle cx="149" cy="557" r="1.01" fill="#efe2c6" opacity="0.02"/><circle cx="360" cy="738" r="0.35" fill="#efe2c6" opacity="0.02"/><circle cx="571" cy="919" r="0.57" fill="#efe2c6" opacity="0.03"/><circle cx="782" cy="1100" r="0.79" fill="#efe2c6" opacity="0.04"/><circle cx="993" cy="1281" r="1.01" fill="#efe2c6" opacity="0.01"/><circle cx="204" cy="142" r="0.35" fill="#efe2c6" opacity="0.02"/><circle cx="415" cy="323" r="0.57" fill="#efe2c6" opacity="0.02"/><circle cx="626" cy="504" r="0.79" fill="#efe2c6" opacity="0.03"/><circle cx="837" cy="685" r="1.01" fill="#efe2c6" opacity="0.04"/><circle cx="48" cy="866" r="0.35" fill="#efe2c6" opacity="0.01"/><circle cx="259" cy="1047" r="0.57" fill="#efe2c6" opacity="0.02"/><circle cx="470" cy="1228" r="0.79" fill="#efe2c6" opacity="0.02"/><circle cx="681" cy="89" r="1.01" fill="#efe2c6" opacity="0.03"/><circle cx="892" cy="270" r="0.35" fill="#efe2c6" opacity="0.04"/><circle cx="103" cy="451" r="0.57" fill="#efe2c6" opacity="0.01"/><circle cx="314" cy="632" r="0.79" fill="#efe2c6" opacity="0.02"/><circle cx="525" cy="813" r="1.01" fill="#efe2c6" opacity="0.02"/><circle cx="736" cy="994" r="0.35" fill="#efe2c6" opacity="0.03"/><circle cx="947" cy="1175" r="0.57" fill="#efe2c6" opacity="0.04"/><circle cx="158" cy="36" r="0.79" fill="#efe2c6" opacity="0.01"/><circle cx="369" cy="217" r="1.01" fill="#efe2c6" opacity="0.02"/><circle cx="580" cy="398" r="0.35" fill="#efe2c6" opacity="0.02"/><circle cx="791" cy="579" r="0.57" fill="#efe2c6" opacity="0.03"/><circle cx="2" cy="760" r="0.79" fill="#efe2c6" opacity="0.04"/><circle cx="213" cy="941" r="1.01" fill="#efe2c6" opacity="0.01"/><circle cx="424" cy="1122" r="0.35" fill="#efe2c6" opacity="0.02"/><circle cx="635" cy="1303" r="0.57" fill="#efe2c6" opacity="0.02"/><circle cx="846" cy="164" r="0.79" fill="#efe2c6" opacity="0.03"/><circle cx="57" cy="345" r="1.01" fill="#efe2c6" opacity="0.04"/><circle cx="268" cy="526" r="0.35" fill="#efe2c6" opacity="0.01"/><circle cx="479" cy="707" r="0.57" fill="#efe2c6" opacity="0.02"/><circle cx="690" cy="888" r="0.79" fill="#efe2c6" opacity="0.02"/><circle cx="901" cy="1069" r="1.01" fill="#efe2c6" opacity="0.03"/><circle cx="112" cy="1250" r="0.35" fill="#efe2c6" opacity="0.04"/><circle cx="323" cy="111" r="0.57" fill="#efe2c6" opacity="0.01"/><circle cx="534" cy="292" r="0.79" fill="#efe2c6" opacity="0.02"/><circle cx="745" cy="473" r="1.01" fill="#efe2c6" opacity="0.02"/><circle cx="956" cy="654" r="0.35" fill="#efe2c6" opacity="0.03"/><circle cx="167" cy="835" r="0.57" fill="#efe2c6" opacity="0.04"/><circle cx="378" cy="1016" r="0.79" fill="#efe2c6" opacity="0.01"/><circle cx="589" cy="1197" r="1.01" fill="#efe2c6" opacity="0.02"/><circle cx="800" cy="58" r="0.35" fill="#efe2c6" opacity="0.02"/><circle cx="11" cy="239" r="0.57" fill="#efe2c6" opacity="0.03"/><circle cx="222" cy="420" r="0.79" fill="#efe2c6" opacity="0.04"/><circle cx="433" cy="601" r="1.01" fill="#efe2c6" opacity="0.01"/><circle cx="644" cy="782" r="0.35" fill="#efe2c6" opacity="0.02"/><circle cx="855" cy="963" r="0.57" fill="#efe2c6" opacity="0.02"/><circle cx="66" cy="1144" r="0.79" fill="#efe2c6" opacity="0.03"/><circle cx="277" cy="5" r="1.01" fill="#efe2c6" opacity="0.04"/><circle cx="488" cy="186" r="0.35" fill="#efe2c6" opacity="0.01"/><circle cx="699" cy="367" r="0.57" fill="#efe2c6" opacity="0.02"/><circle cx="910" cy="548" r="0.79" fill="#efe2c6" opacity="0.02"/><circle cx="121" cy="729" r="1.01" fill="#efe2c6" opacity="0.03"/><circle cx="332" cy="910" r="0.35" fill="#efe2c6" opacity="0.04"/><circle cx="543" cy="1091" r="0.57" fill="#efe2c6" opacity="0.01"/><circle cx="754" cy="1272" r="0.79" fill="#efe2c6" opacity="0.02"/><circle cx="965" cy="133" r="1.01" fill="#efe2c6" opacity="0.02"/><circle cx="176" cy="314" r="0.35" fill="#efe2c6" opacity="0.03"/><circle cx="387" cy="495" r="0.57" fill="#efe2c6" opacity="0.04"/><circle cx="598" cy="676" r="0.79" fill="#efe2c6" opacity="0.01"/><circle cx="809" cy="857" r="1.01" fill="#efe2c6" opacity="0.02"/><circle cx="20" cy="1038" r="0.35" fill="#efe2c6" opacity="0.02"/><circle cx="231" cy="1219" r="0.57" fill="#efe2c6" opacity="0.03"/><circle cx="442" cy="80" r="0.79" fill="#efe2c6" opacity="0.04"/><circle cx="653" cy="261" r="1.01" fill="#efe2c6" opacity="0.01"/><circle cx="864" cy="442" r="0.35" fill="#efe2c6" opacity="0.02"/><circle cx="75" cy="623" r="0.57" fill="#efe2c6" opacity="0.02"/><circle cx="286" cy="804" r="0.79" fill="#efe2c6" opacity="0.03"/><circle cx="497" cy="985" r="1.01" fill="#efe2c6" opacity="0.04"/><circle cx="708" cy="1166" r="0.35" fill="#efe2c6" opacity="0.01"/><circle cx="919" cy="27" r="0.57" fill="#efe2c6" opacity="0.02"/><circle cx="130" cy="208" r="0.79" fill="#efe2c6" opacity="0.02"/><circle cx="341" cy="389" r="1.01" fill="#efe2c6" opacity="0.03"/><circle cx="552" cy="570" r="0.35" fill="#efe2c6" opacity="0.04"/><circle cx="763" cy="751" r="0.57" fill="#efe2c6" opacity="0.01"/><circle cx="974" cy="932" r="0.79" fill="#efe2c6" opacity="0.02"/><circle cx="185" cy="1113" r="1.01" fill="#efe2c6" opacity="0.02"/><circle cx="396" cy="1294" r="0.35" fill="#efe2c6" opacity="0.03"/><circle cx="607" cy="155" r="0.57" fill="#efe2c6" opacity="0.04"/><circle cx="818" cy="336" r="0.79" fill="#efe2c6" opacity="0.01"/><circle cx="29" cy="517" r="1.01" fill="#efe2c6" opacity="0.02"/><circle cx="240" cy="698" r="0.35" fill="#efe2c6" opacity="0.02"/><circle cx="451" cy="879" r="0.57" fill="#efe2c6" opacity="0.03"/><circle cx="662" cy="1060" r="0.79" fill="#efe2c6" opacity="0.04"/><circle cx="873" cy="1241" r="1.01" fill="#efe2c6" opacity="0.01"/><circle cx="84" cy="102" r="0.35" fill="#efe2c6" opacity="0.02"/><circle cx="295" cy="283" r="0.57" fill="#efe2c6" opacity="0.02"/><circle cx="506" cy="464" r="0.79" fill="#efe2c6" opacity="0.03"/><circle cx="717" cy="645" r="1.01" fill="#efe2c6" opacity="0.04"/><circle cx="928" cy="826" r="0.35" fill="#efe2c6" opacity="0.01"/><circle cx="139" cy="1007" r="0.57" fill="#efe2c6" opacity="0.02"/><circle cx="350" cy="1188" r="0.79" fill="#efe2c6" opacity="0.02"/></g>
</svg>
