<svg xmlns="http://www.w3.org/2000/svg" viewBox="0 0 1200 1200" width="1200" height="1200" role="img" aria-label="shore-detail">
  <defs>
    <linearGradient id="paper" x1="0" y1="0" x2="1" y2="1">
      <stop offset="0" stop-color="#07090a"/>
      <stop offset="0.58" stop-color="#303d43"/>
      <stop offset="1" stop-color="#9f998e"/>
    </linearGradient>
    <filter id="soft">
      <feGaussianBlur stdDeviation="7.2"/>
    </filter>
    <filter id="grain">
      <feTurbulence type="fractalNoise" baseFrequency="0.82" numOctaves="4" seed="114"/>
      <feColorMatrix type="saturate" values="0"/>
      <feComponentTransfer>
        <feFuncA type="table" tableValues="0 0.12"/>
      </feComponentTransfer>
    </filter>
    <filter id="tonalDisplace">
      <feTurbulence type="fractalNoise" baseFrequency="0.018" numOctaves="3" seed="133" result="noise"/>
      <feDisplacementMap in="SourceGraphic" in2="noise" scale="4.8"/>
    </filter>
  </defs>
  <rect width="1200" height="1200" fill="url(#paper)"/>
  <rect width="1200" height="1200" fill="#060504" opacity="0.12"/>
  <g filter="url(#tonalDisplace)">
    <rect x="-66" y="606" width="408" height="300" fill="#f4dfb8" opacity="0.01" filter="url(#soft)"/><rect x="91" y="737" width="216" height="354" fill="#f4dfb8" opacity="0.02" filter="url(#soft)"/><rect x="248" y="868" width="264" height="192" fill="#f4dfb8" opacity="0.03" filter="url(#soft)"/><rect x="405" y="999" width="312" height="246" fill="#f4dfb8" opacity="0.01" filter="url(#soft)"/><rect x="562" y="-70" width="360" height="300" fill="#f4dfb8" opacity="0.02" filter="url(#soft)"/><rect x="719" y="61" width="408" height="354" fill="#f4dfb8" opacity="0.03" filter="url(#soft)"/>
    
        <path d="M0 720 L264 636 L528 792 L864 660 L1200 756" fill="none" stroke="#d7cfbd" stroke-width="19.2" opacity="0.18"/>
        <path d="M216 912 L432 744 L672.0000000000001 816.0000000000001 L528 983.9999999999999 Z" fill="#060504" opacity="0.34"/>
        <path d="M768 660 L983.9999999999999 744 L912 864 L696 804 Z" fill="#ddd5c2" opacity="0.12"/>
  </g>
  
  <rect x="0" y="0" width="240" height="1200" fill="#020201" opacity="0.3" filter="url(#soft)"/>
  <rect x="960" y="0" width="240" height="1200" fill="#020201" opacity="0.28" filter="url(#soft)"/>
  <rect x="0" y="0" width="1200" height="216" fill="#020201" opacity="0.18" filter="url(#soft)"/>
  <rect x="0" y="984" width="1200" height="216" fill="#020201" opacity="0.34" filter="url(#soft)"/>
  <rect width="1200" height="1200" fill="#0a0806" opacity="0.08"/>
  <rect width="1200" height="1200" filter="url(#grain)" opacity="0.24"/>
  <g><line x1="708" y1="60" x2="705" y2="1152" stroke="#f4e6c8" stroke-width="0.8" opacity="0.01"/><line x1="645" y1="60" x2="645" y2="1152" stroke="#f4e6c8" stroke-width="0.55" opacity="0.02"/><line x1="582" y1="60" x2="585" y2="1152" stroke="#f4e6c8" stroke-width="0.55" opacity="0.03"/><line x1="518" y1="60" x2="515" y2="1152" stroke="#f4e6c8" stroke-width="0.55" opacity="0.03"/></g>
  <g><circle cx="78" cy="582" r="0.79" fill="#efe2c6" opacity="0.04"/><circle cx="289" cy="763" r="1.01" fill="#efe2c6" opacity="0.01"/><circle cx="500" cy="944" r="0.35" fill="#efe2c6" opacity="0.02"/><circle cx="711" cy="1125" r="0.57" fill="#efe2c6" opacity="0.02"/><circle cx="922" cy="106" r="0.79" fill="#efe2c6" opacity="0.03"/><circle cx="1133" cy="287" r="1.01" fill="#efe2c6" opacity="0.04"/><circle cx="144" cy="468" r="0.35" fill="#efe2c6" opacity="0.01"/><circle cx="355" cy="649" r="0.57" fill="#efe2c6" opacity="0.02"/><circle cx="566" cy="830" r="0.79" fill="#efe2c6" opacity="0.02"/><circle cx="777" cy="1011" r="1.01" fill="#efe2c6" opacity="0.03"/><circle cx="988" cy="1192" r="0.35" fill="#efe2c6" opacity="0.04"/><circle cx="1199" cy="173" r="0.57" fill="#efe2c6" opacity="0.01"/><circle cx="210" cy="354" r="0.79" fill="#efe2c6" opacity="0.02"/><circle cx="421" cy="535" r="1.01" fill="#efe2c6" opacity="0.02"/><circle cx="632" cy="716" r="0.35" fill="#efe2c6" opacity="0.03"/><circle cx="843" cy="897" r="0.57" fill="#efe2c6" opacity="0.04"/><circle cx="1054" cy="1078" r="0.79" fill="#efe2c6" opacity="0.01"/><circle cx="65" cy="59" r="1.01" fill="#efe2c6" opacity="0.02"/><circle cx="276" cy="240" r="0.35" fill="#efe2c6" opacity="0.02"/><circle cx="487" cy="421" r="0.57" fill="#efe2c6" opacity="0.03"/><circle cx="698" cy="602" r="0.79" fill="#efe2c6" opacity="0.04"/><circle cx="909" cy="783" r="1.01" fill="#efe2c6" opacity="0.01"/><circle cx="1120" cy="964" r="0.35" fill="#efe2c6" opacity="0.02"/><circle cx="131" cy="1145" r="0.57" fill="#efe2c6" opacity="0.02"/><circle cx="342" cy="126" r="0.79" fill="#efe2c6" opacity="0.03"/><circle cx="553" cy="307" r="1.01" fill="#efe2c6" opacity="0.04"/><circle cx="764" cy="488" r="0.35" fill="#efe2c6" opacity="0.01"/><circle cx="975" cy="669" r="0.57" fill="#efe2c6" opacity="0.02"/><circle cx="1186" cy="850" r="0.79" fill="#efe2c6" opacity="0.02"/><circle cx="197" cy="1031" r="1.01" fill="#efe2c6" opacity="0.03"/><circle cx="408" cy="12" r="0.35" fill="#efe2c6" opacity="0.04"/><circle cx="619" cy="193" r="0.57" fill="#efe2c6" opacity="0.01"/><circle cx="830" cy="374" r="0.79" fill="#efe2c6" opacity="0.02"/><circle cx="1041" cy="555" r="1.01" fill="#efe2c6" opacity="0.02"/><circle cx="52" cy="736" r="0.35" fill="#efe2c6" opacity="0.03"/><circle cx="263" cy="917" r="0.57" fill="#efe2c6" opacity="0.04"/><circle cx="474" cy="1098" r="0.79" fill="#efe2c6" opacity="0.01"/><circle cx="685" cy="79" r="1.01" fill="#efe2c6" opacity="0.02"/><circle cx="896" cy="260" r="0.35" fill="#efe2c6" opacity="0.02"/><circle cx="1107" cy="441" r="0.57" fill="#efe2c6" opacity="0.03"/><circle cx="118" cy="622" r="0.79" fill="#efe2c6" opacity="0.04"/><circle cx="329" cy="803" r="1.01" fill="#efe2c6" opacity="0.01"/><circle cx="540" cy="984" r="0.35" fill="#efe2c6" opacity="0.02"/><circle cx="751" cy="1165" r="0.57" fill="#efe2c6" opacity="0.02"/><circle cx="962" cy="146" r="0.79" fill="#efe2c6" opacity="0.03"/><circle cx="1173" cy="327" r="1.01" fill="#efe2c6" opacity="0.04"/><circle cx="184" cy="508" r="0.35" fill="#efe2c6" opacity="0.01"/><circle cx="395" cy="689" r="0.57" fill="#efe2c6" opacity="0.02"/><circle cx="606" cy="870" r="0.79" fill="#efe2c6" opacity="0.02"/><circle cx="817" cy="1051" r="1.01" fill="#efe2c6" opacity="0.03"/><circle cx="1028" cy="32" r="0.35" fill="#efe2c6" opacity="0.04"/><circle cx="39" cy="213" r="0.57" fill="#efe2c6" opacity="0.01"/><circle cx="250" cy="394" r="0.79" fill="#efe2c6" opacity="0.02"/><circle cx="461" cy="575" r="1.01" fill="#efe2c6" opacity="0.02"/><circle cx="672" cy="756" r="0.35" fill="#efe2c6" opacity="0.03"/><circle cx="883" cy="937" r="0.57" fill="#efe2c6" opacity="0.04"/><circle cx="1094" cy="1118" r="0.79" fill="#efe2c6" opacity="0.01"/><circle cx="105" cy="99" r="1.01" fill="#efe2c6" opacity="0.02"/><circle cx="316" cy="280" r="0.35" fill="#efe2c6" opacity="0.02"/><circle cx="527" cy="461" r="0.57" fill="#efe2c6" opacity="0.03"/><circle cx="738" cy="642" r="0.79" fill="#efe2c6" opacity="0.04"/><circle cx="949" cy="823" r="1.01" fill="#efe2c6" opacity="0.01"/><circle cx="1160" cy="1004" r="0.35" fill="#efe2c6" opacity="0.02"/><circle cx="171" cy="1185" r="0.57" fill="#efe2c6" opacity="0.02"/><circle cx="382" cy="166" r="0.79" fill="#efe2c6" opacity="0.03"/><circle cx="593" cy="347" r="1.01" fill="#efe2c6" opacity="0.04"/><circle cx="804" cy="528" r="0.35" fill="#efe2c6" opacity="0.01"/><circle cx="1015" cy="709" r="0.57" fill="#efe2c6" opacity="0.02"/><circle cx="26" cy="890" r="0.79" fill="#efe2c6" opacity="0.02"/><circle cx="237" cy="1071" r="1.01" fill="#efe2c6" opacity="0.03"/><circle cx="448" cy="52" r="0.35" fill="#efe2c6" opacity="0.04"/><circle cx="659" cy="233" r="0.57" fill="#efe2c6" opacity="0.01"/><circle cx="870" cy="414" r="0.79" fill="#efe2c6" opacity="0.02"/><circle cx="1081" cy="595" r="1.01" fill="#efe2c6" opacity="0.02"/><circle cx="92" cy="776" r="0.35" fill="#efe2c6" opacity="0.03"/><circle cx="303" cy="957" r="0.57" fill="#efe2c6" opacity="0.04"/><circle cx="514" cy="1138" r="0.79" fill="#efe2c6" opacity="0.01"/><circle cx="725" cy="119" r="1.01" fill="#efe2c6" opacity="0.02"/><circle cx="936" cy="300" r="0.35" fill="#efe2c6" opacity="0.02"/><circle cx="1147" cy="481" r="0.57" fill="#efe2c6" opacity="0.03"/><circle cx="158" cy="662" r="0.79" fill="#efe2c6" opacity="0.04"/><circle cx="369" cy="843" r="1.01" fill="#efe2c6" opacity="0.01"/><circle cx="580" cy="1024" r="0.35" fill="#efe2c6" opacity="0.02"/><circle cx="791" cy="5" r="0.57" fill="#efe2c6" opacity="0.02"/><circle cx="1002" cy="186" r="0.79" fill="#efe2c6" opacity="0.03"/><circle cx="13" cy="367" r="1.01" fill="#efe2c6" opacity="0.04"/><circle cx="224" cy="548" r="0.35" fill="#efe2c6" opacity="0.01"/><circle cx="435" cy="729" r="0.57" fill="#efe2c6" opacity="0.02"/><circle cx="646" cy="910" r="0.79" fill="#efe2c6" opacity="0.02"/><circle cx="857" cy="1091" r="1.01" fill="#efe2c6" opacity="0.03"/><circle cx="1068" cy="72" r="0.35" fill="#efe2c6" opacity="0.04"/><circle cx="79" cy="253" r="0.57" fill="#efe2c6" opacity="0.01"/><circle cx="290" cy="434" r="0.79" fill="#efe2c6" opacity="0.02"/><circle cx="501" cy="615" r="1.01" fill="#efe2c6" opacity="0.02"/><circle cx="712" cy="796" r="0.35" fill="#efe2c6" opacity="0.03"/><circle cx="923" cy="977" r="0.57" fill="#efe2c6" opacity="0.04"/><circle cx="1134" cy="1158" r="0.79" fill="#efe2c6" opacity="0.01"/><circle cx="145" cy="139" r="1.01" fill="#efe2c6" opacity="0.02"/><circle cx="356" cy="320" r="0.35" fill="#efe2c6" opacity="0.02"/><circle cx="567" cy="501" r="0.57" fill="#efe2c6" opacity="0.03"/><circle cx="778" cy="682" r="0.79" fill="#efe2c6" opacity="0.04"/><circle cx="989" cy="863" r="1.01" fill="#efe2c6" opacity="0.01"/><circle cx="0" cy="1044" r="0.35" fill="#efe2c6" opacity="0.02"/><circle cx="211" cy="25" r="0.57" fill="#efe2c6" opacity="0.02"/><circle cx="422" cy="206" r="0.79" fill="#efe2c6" opacity="0.03"/><circle cx="633" cy="387" r="1.01" fill="#efe2c6" opacity="0.04"/><circle cx="844" cy="568" r="0.35" fill="#efe2c6" opacity="0.01"/><circle cx="1055" cy="749" r="0.57" fill="#efe2c6" opacity="0.02"/><circle cx="66" cy="930" r="0.79" fill="#efe2c6" opacity="0.02"/><circle cx="277" cy="1111" r="1.01" fill="#efe2c6" opacity="0.03"/></g>
</svg>
