<svg xmlns="http://www.w3.org/2000/svg" viewBox="0 0 1000 1320" width="1000" height="1320" role="img" aria-label="chair-light">
  <defs>
    <linearGradient id="paper" x1="0" y1="0" x2="1" y2="1">
      <stop offset="0" stop-color="#080706"/>
      <stop offset="0.58" stop-color="#2f2b24"/>
      <stop offset="1" stop-color="#af986e"/>
    </linearGradient>
    <filter id="soft">
      <feGaussianBlur stdDeviation="7.92"/>
    </filter>
    <filter id="grain">
      <feTurbulence type="fractalNoise" baseFrequency="0.82" numOctaves="4" seed="115"/>
      <feColorMatrix type="saturate" values="0"/>
      <feComponentTransfer>
        <feFuncA type="table" tableValues="0 0.12"/>
      </feComponentTransfer>
    </filter>
    <filter id="tonalDisplace">
      <feTurbulence type="fractalNoise" baseFrequency="0.018" numOctaves="3" seed="134" result="noise"/>
      <feDisplacementMap in="SourceGraphic" in2="noise" scale="5.28"/>
    </filter>
  </defs>
  <rect width="1000" height="1320" fill="url(#paper)"/>
  <rect width="1000" height="1320" fill="#060504" opacity="0.12"/>
  <g filter="url(#tonalDisplace)">
    <rect x="805" y="53" width="180" height="389.4" fill="#f4dfb8" opacity="0.01" filter="url(#soft)"/><rect x="-38" y="184" width="220" height="211.2" fill="#f4dfb8" opacity="0.02" filter="url(#soft)"/><rect x="119" y="315" width="260" height="270.6" fill="#f4dfb8" opacity="0.03" filter="url(#soft)"/><rect x="276" y="446" width="300" height="330" fill="#f4dfb8" opacity="0.01" filter="url(#soft)"/><rect x="433" y="577" width="340" height="389.4" fill="#f4dfb8" opacity="0.02" filter="url(#soft)"/><rect x="590" y="708" width="180" height="211.2" fill="#f4dfb8" opacity="0.03" filter="url(#soft)"/>
    
        <rect x="580" y="0" width="260" height="1320" fill="#efd9a8" opacity="0.075"/>
        <path d="M360 660 H580 M380 660 L320 1029.6000000000001 M560 660 L660 1029.6000000000001 M500 369.6 L570 660" stroke="#e2c795" stroke-width="11" opacity="0.19" fill="none"/>
        <path d="M160 897.6 L420 792 L820 765.5999999999999" stroke="#f0d7a3" stroke-width="7.92" opacity="0.11" fill="none"/>
        <path d="M620 264 L840 1029.6000000000001 L650 1095.6 Z" fill="#e9d0a0" opacity="0.055"/>
  </g>
  
  <rect x="0" y="0" width="200" height="1320" fill="#020201" opacity="0.3" filter="url(#soft)"/>
  <rect x="800" y="0" width="200" height="1320" fill="#020201" opacity="0.28" filter="url(#soft)"/>
  <rect x="0" y="0" width="1000" height="237.6" fill="#020201" opacity="0.18" filter="url(#soft)"/>
  <rect x="0" y="1082.4" width="1000" height="237.6" fill="#020201" opacity="0.34" filter="url(#soft)"/>
  <rect width="1000" height="1320" fill="#0a0806" opacity="0.08"/>
  <rect width="1000" height="1320" filter="url(#grain)" opacity="0.24"/>
  <g><line x1="917" y1="66" x2="914" y2="1267.2" stroke="#f4e6c8" stroke-width="0.8" opacity="0.01"/><line x1="499" y1="66" x2="499" y2="1267.2" stroke="#f4e6c8" stroke-width="0.55" opacity="0.02"/><line x1="82" y1="66" x2="85" y2="1267.2" stroke="#f4e6c8" stroke-width="0.55" opacity="0.03"/><line x1="624" y1="66" x2="621" y2="1267.2" stroke="#f4e6c8" stroke-width="0.55" opacity="0.03"/></g>
  <g><circle cx="605" cy="265" r="1.01" fill="#efe2c6" opacity="0.01"/><circle cx="816" cy="446" r="0.35" fill="#efe2c6" opacity="0.02"/><circle cx="27" cy="627" r="0.57" fill="#efe2c6" opacity="0.02"/><circle cx="238" cy="808" r="0.79" fill="#efe2c6" opacity="0.03"/><circle cx="449" cy="989" r="1.01" fill="#efe2c6" opacity="0.04"/><circle cx="660" cy="1170" r="0.35" fill="#efe2c6" opacity="0.01"/><circle cx="871" cy="31" r="0.57" fill="#efe2c6" opacity="0.02"/><circle cx="82" cy="212" r="0.79" fill="#efe2c6" opacity="0.02"/><circle cx="293" cy="393" r="1.01" fill="#efe2c6" opacity="0.03"/><circle cx="504" cy="574" r="0.35" fill="#efe2c6" opacity="0.04"/><circle cx="715" cy="755" r="0.57" fill="#efe2c6" opacity="0.01"/><circle cx="926" cy="936" r="0.79" fill="#efe2c6" opacity="0.02"/><circle cx="137" cy="1117" r="1.01" fill="#efe2c6" opacity="0.02"/><circle cx="348" cy="1298" r="0.35" fill="#efe2c6" opacity="0.03"/><circle cx="559" cy="159" r="0.57" fill="#efe2c6" opacity="0.04"/><circle cx="770" cy="340" r="0.79" fill="#efe2c6" opacity="0.01"/><circle cx="981" cy="521" r="1.01" fill="#efe2c6" opacity="0.02"/><circle cx="192" cy="702" r="0.35" fill="#efe2c6" opacity="0.02"/><circle cx="403" cy="883" r="0.57" fill="#efe2c6" opacity="0.03"/><circle cx="614" cy="1064" r="0.79" fill="#efe2c6" opacity="0.04"/><circle cx="825" cy="1245" r="1.01" fill="#efe2c6" opacity="0.01"/><circle cx="36" cy="106" r="0.35" fill="#efe2c6" opacity="0.02"/><circle cx="247" cy="287" r="0.57" fill="#efe2c6" opacity="0.02"/><circle cx="458" cy="468" r="0.79" fill="#efe2c6" opacity="0.03"/><circle cx="669" cy="649" r="1.01" fill="#efe2c6" opacity="0.04"/><circle cx="880" cy="830" r="0.35" fill="#efe2c6" opacity="0.01"/><circle cx="91" cy="1011" r="0.57" fill="#efe2c6" opacity="0.02"/><circle cx="302" cy="1192" r="0.79" fill="#efe2c6" opacity="0.02"/><circle cx="513" cy="53" r="1.01" fill="#efe2c6" opacity="0.03"/><circle cx="724" cy="234" r="0.35" fill="#efe2c6" opacity="0.04"/><circle cx="935" cy="415" r="0.57" fill="#efe2c6" opacity="0.01"/><circle cx="146" cy="596" r="0.79" fill="#efe2c6" opacity="0.02"/><circle cx="357" cy="777" r="1.01" fill="#efe2c6" opacity="0.02"/><circle cx="568" cy="958" r="0.35" fill="#efe2c6" opacity="0.03"/><circle cx="779" cy="1139" r="0.57" fill="#efe2c6" opacity="0.04"/><circle cx="990" cy="0" r="0.79" fill="#efe2c6" opacity="0.01"/><circle cx="201" cy="181" r="1.01" fill="#efe2c6" opacity="0.02"/><circle cx="412" cy="362" r="0.35" fill="#efe2c6" opacity="0.02"/><circle cx="623" cy="543" r="0.57" fill="#efe2c6" opacity="0.03"/><circle cx="834" cy="724" r="0.79" fill="#efe2c6" opacity="0.04"/><circle cx="45" cy="905" r="1.01" fill="#efe2c6" opacity="0.01"/><circle cx="256" cy="1086" r="0.35" fill="#efe2c6" opacity="0.02"/><circle cx="467" cy="1267" r="0.57" fill="#efe2c6" opacity="0.02"/><circle cx="678" cy="128" r="0.79" fill="#efe2c6" opacity="0.03"/><circle cx="889" cy="309" r="1.01" fill="#efe2c6" opacity="0.04"/><circle cx="100" cy="490" r="0.35" fill="#efe2c6" opacity="0.01"/><circle cx="311" cy="671" r="0.57" fill="#efe2c6" opacity="0.02"/><circle cx="522" cy="852" r="0.79" fill="#efe2c6" opacity="0.02"/><circle cx="733" cy="1033" r="1.01" fill="#efe2c6" opacity="0.03"/><circle cx="944" cy="1214" r="0.35" fill="#efe2c6" opacity="0.04"/><circle cx="155" cy="75" r="0.57" fill="#efe2c6" opacity="0.01"/><circle cx="366" cy="256" r="0.79" fill="#efe2c6" opacity="0.02"/><circle cx="577" cy="437" r="1.01" fill="#efe2c6" opacity="0.02"/><circle cx="788" cy="618" r="0.35" fill="#efe2c6" opacity="0.03"/><circle cx="999" cy="799" r="0.57" fill="#efe2c6" opacity="0.04"/><circle cx="210" cy="980" r="0.79" fill="#efe2c6" opacity="0.01"/><circle cx="421" cy="1161" r="1.01" fill="#efe2c6" opacity="0.02"/><circle cx="632" cy="22" r="0.35" fill="#efe2c6" opacity="0.02"/><circle cx="843" cy="203" r="0.57" fill="#efe2c6" opacity="0.03"/><circle cx="54" cy="384" r="0.79" fill="#efe2c6" opacity="0.04"/><circle cx="265" cy="565" r="1.01" fill="#efe2c6" opacity="0.01"/><circle cx="476" cy="746" r="0.35" fill="#efe2c6" opacity="0.02"/><circle cx="687" cy="927" r="0.57" fill="#efe2c6" opacity="0.02"/><circle cx="898" cy="1108" r="0.79" fill="#efe2c6" opacity="0.03"/><circle cx="109" cy="1289" r="1.01" fill="#efe2c6" opacity="0.04"/><circle cx="320" cy="150" r="0.35" fill="#efe2c6" opacity="0.01"/><circle cx="531" cy="331" r="0.57" fill="#efe2c6" opacity="0.02"/><circle cx="742" cy="512" r="0.79" fill="#efe2c6" opacity="0.02"/><circle cx="953" cy="693" r="1.01" fill="#efe2c6" opacity="0.03"/><circle cx="164" cy="874" r="0.35" fill="#efe2c6" opacity="0.04"/><circle cx="375" cy="1055" r="0.57" fill="#efe2c6" opacity="0.01"/><circle cx="586" cy="1236" r="0.79" fill="#efe2c6" opacity="0.02"/><circle cx="797" cy="97" r="1.01" fill="#efe2c6" opacity="0.02"/><circle cx="8" cy="278" r="0.35" fill="#efe2c6" opacity="0.03"/><circle cx="219" cy="459" r="0.57" fill="#efe2c6" opacity="0.04"/><circle cx="430" cy="640" r="0.79" fill="#efe2c6" opacity="0.01"/><circle cx="641" cy="821" r="1.01" fill="#efe2c6" opacity="0.02"/><circle cx="852" cy="1002" r="0.35" fill="#efe2c6" opacity="0.02"/><circle cx="63" cy="1183" r="0.57" fill="#efe2c6" opacity="0.03"/><circle cx="274" cy="44" r="0.79" fill="#efe2c6" opacity="0.04"/><circle cx="485" cy="225" r="1.01" fill="#efe2c6" opacity="0.01"/><circle cx="696" cy="406" r="0.35" fill="#efe2c6" opacity="0.02"/><circle cx="907" cy="587" r="0.57" fill="#efe2c6" opacity="0.02"/><circle cx="118" cy="768" r="0.79" fill="#efe2c6" opacity="0.03"/><circle cx="329" cy="949" r="1.01" fill="#efe2c6" opacity="0.04"/><circle cx="540" cy="1130" r="0.35" fill="#efe2c6" opacity="0.01"/><circle cx="751" cy="1311" r="0.57" fill="#efe2c6" opacity="0.02"/><circle cx="962" cy="172" r="0.79" fill="#efe2c6" opacity="0.02"/><circle cx="173" cy="353" r="1.01" fill="#efe2c6" opacity="0.03"/><circle cx="384" cy="534" r="0.35" fill="#efe2c6" opacity="0.04"/><circle cx="595" cy="715" r="0.57" fill="#efe2c6" opacity="0.01"/><circle cx="806" cy="896" r="0.79" fill="#efe2c6" opacity="0.02"/><circle cx="17" cy="1077" r="1.01" fill="#efe2c6" opacity="0.02"/><circle cx="228" cy="1258" r="0.35" fill="#efe2c6" opacity="0.03"/><circle cx="439" cy="119" r="0.57" fill="#efe2c6" opacity="0.04"/><circle cx="650" cy="300" r="0.79" fill="#efe2c6" opacity="0.01"/><circle cx="861" cy="481" r="1.01" fill="#efe2c6" opacity="0.02"/><circle cx="72" cy="662" r="0.35" fill="#efe2c6" opacity="0.02"/><circle cx="283" cy="843" r="0.57" fill="#efe2c6" opacity="0.03"/><circle cx="494" cy="1024" r="0.79" fill="#efe2c6" opacity="0.04"/><circle cx="705" cy="1205" r="1.01" fill="#efe2c6" opacity="0.01"/><circle cx="916" cy="66" r="0.35" fill="#efe2c6" opacity="0.02"/><circle cx="127" cy="247" r="0.57" fill="#efe2c6" opacity="0.02"/><circle cx="338" cy="428" r="0.79" fill="#efe2c6" opacity="0.03"/><circle cx="549" cy="609" r="1.01" fill="#efe2c6" opacity="0.04"/><circle cx="760" cy="790" r="0.35" fill="#efe2c6" opacity="0.01"/><circle cx="971" cy="971" r="0.57" fill="#efe2c6" opacity="0.02"/><circle cx="182" cy="1152" r="0.79" fill="#efe2c6" opacity="0.02"/><circle cx="393" cy="13" r="1.01" fill="#efe2c6" opacity="0.03"/><circle cx="604" cy="194" r="0.35" fill="#efe2c6" opacity="0.04"/></g>
</svg>
