<svg xmlns="http://www.w3.org/2000/svg" viewBox="0 0 1000 1320" width="1000" height="1320" role="img" aria-label="narrow-alley">
  <defs>
    <linearGradient id="paper" x1="0" y1="0" x2="1" y2="1">
      <stop offset="0" stop-color="#070604"/>
      <stop offset="0.58" stop-color="#51402f"/>
      <stop offset="1" stop-color="#b39970"/>
    </linearGradient>
    <filter id="soft">
      <feGaussianBlur stdDeviation="7.92"/>
    </filter>
    <filter id="grain">
      <feTurbulence type="fractalNoise" baseFrequency="0.82" numOctaves="4" seed="116"/>
      <feColorMatrix type="saturate" values="0"/>
      <feComponentTransfer>
        <feFuncA type="table" tableValues="0 0.12"/>
      </feComponentTransfer>
    </filter>
    <filter id="tonalDisplace">
      <feTurbulence type="fractalNoise" baseFrequency="0.018" numOctaves="3" seed="135" result="noise"/>
      <feDisplacementMap in="SourceGraphic" in2="noise" scale="5.28"/>
    </filter>
  </defs>
  <rect width="1000" height="1320" fill="url(#paper)"/>
  <rect width="1000" height="1320" fill="#060504" opacity="0.055"/>
  <rect width="1000" height="1320" fill="#e6d1ad" opacity="0.028"/>
  <g filter="url(#tonalDisplace)">
    <rect x="848" y="112" width="220" height="211.2" fill="#f4dfb8" opacity="0.01" filter="url(#soft)"/><rect x="5" y="243" width="260" height="270.6" fill="#f4dfb8" opacity="0.02" filter="url(#soft)"/><rect x="162" y="374" width="300" height="330" fill="#f4dfb8" opacity="0.03" filter="url(#soft)"/><rect x="319" y="505" width="340" height="389.4" fill="#f4dfb8" opacity="0.01" filter="url(#soft)"/><rect x="476" y="636" width="180" height="211.2" fill="#f4dfb8" opacity="0.02" filter="url(#soft)"/><rect x="633" y="767" width="220" height="270.6" fill="#f4dfb8" opacity="0.03" filter="url(#soft)"/>
    
        <path d="M120 0 L430 1320 H0 V0 Z" fill="#bd9f74" opacity="0.18"/>
        <path d="M880 0 L580 1320 H1000 V0 Z" fill="#d0b98d" opacity="0.2"/>
        <path d="M450 1320 L500 554.4 L560 1320 Z" fill="#060403" opacity="0.6"/>
        <path d="M490 739.2 C440 871.2, 470 1056, 520 1135.2 C580 976.8, 550 818.4, 520 739.2 Z" fill="#050403" opacity="0.68"/>
  </g>
  
  <rect x="0" y="0" width="200" height="1320" fill="#020201" opacity="0.18" filter="url(#soft)"/>
  <rect x="800" y="0" width="200" height="1320" fill="#020201" opacity="0.16" filter="url(#soft)"/>
  <rect x="0" y="0" width="1000" height="237.6" fill="#020201" opacity="0.1" filter="url(#soft)"/>
  <rect x="0" y="1082.4" width="1000" height="237.6" fill="#020201" opacity="0.22" filter="url(#soft)"/>
  <rect width="1000" height="1320" fill="#0a0806" opacity="0.028"/>
  <rect width="1000" height="1320" filter="url(#grain)" opacity="0.18"/>
  <g><line x1="165" y1="66" x2="162" y2="1267.2" stroke="#f4e6c8" stroke-width="0.8" opacity="0.01"/><line x1="737" y1="66" x2="737" y2="1267.2" stroke="#f4e6c8" stroke-width="0.55" opacity="0.02"/><line x1="349" y1="66" x2="352" y2="1267.2" stroke="#f4e6c8" stroke-width="0.55" opacity="0.03"/><line x1="922" y1="66" x2="919" y2="1267.2" stroke="#f4e6c8" stroke-width="0.55" opacity="0.03"/></g>
  <g><circle cx="732" cy="428" r="0.35" fill="#efe2c6" opacity="0.02"/><circle cx="943" cy="609" r="0.57" fill="#efe2c6" opacity="0.02"/><circle cx="154" cy="790" r="0.79" fill="#efe2c6" opacity="0.03"/><circle cx="365" cy="971" r="1.01" fill="#efe2c6" opacity="0.04"/><circle cx="576" cy="1152" r="0.35" fill="#efe2c6" opacity="0.01"/><circle cx="787" cy="13" r="0.57" fill="#efe2c6" opacity="0.02"/><circle cx="998" cy="194" r="0.79" fill="#efe2c6" opacity="0.02"/><circle cx="209" cy="375" r="1.01" fill="#efe2c6" opacity="0.03"/><circle cx="420" cy="556" r="0.35" fill="#efe2c6" opacity="0.04"/><circle cx="631" cy="737" r="0.57" fill="#efe2c6" opacity="0.01"/><circle cx="842" cy="918" r="0.79" fill="#efe2c6" opacity="0.02"/><circle cx="53" cy="1099" r="1.01" fill="#efe2c6" opacity="0.02"/><circle cx="264" cy="1280" r="0.35" fill="#efe2c6" opacity="0.03"/><circle cx="475" cy="141" r="0.57" fill="#efe2c6" opacity="0.04"/><circle cx="686" cy="322" r="0.79" fill="#efe2c6" opacity="0.01"/><circle cx="897" cy="503" r="1.01" fill="#efe2c6" opacity="0.02"/><circle cx="108" cy="684" r="0.35" fill="#efe2c6" opacity="0.02"/><circle cx="319" cy="865" r="0.57" fill="#efe2c6" opacity="0.03"/><circle cx="530" cy="1046" r="0.79" fill="#efe2c6" opacity="0.04"/><circle cx="741" cy="1227" r="1.01" fill="#efe2c6" opacity="0.01"/><circle cx="952" cy="88" r="0.35" fill="#efe2c6" opacity="0.02"/><circle cx="163" cy="269" r="0.57" fill="#efe2c6" opacity="0.02"/><circle cx="374" cy="450" r="0.79" fill="#efe2c6" opacity="0.03"/><circle cx="585" cy="631" r="1.01" fill="#efe2c6" opacity="0.04"/><circle cx="796" cy="812" r="0.35" fill="#efe2c6" opacity="0.01"/><circle cx="7" cy="993" r="0.57" fill="#efe2c6" opacity="0.02"/><circle cx="218" cy="1174" r="0.79" fill="#efe2c6" opacity="0.02"/><circle cx="429" cy="35" r="1.01" fill="#efe2c6" opacity="0.03"/><circle cx="640" cy="216" r="0.35" fill="#efe2c6" opacity="0.04"/><circle cx="851" cy="397" r="0.57" fill="#efe2c6" opacity="0.01"/><circle cx="62" cy="578" r="0.79" fill="#efe2c6" opacity="0.02"/><circle cx="273" cy="759" r="1.01" fill="#efe2c6" opacity="0.02"/><circle cx="484" cy="940" r="0.35" fill="#efe2c6" opacity="0.03"/><circle cx="695" cy="1121" r="0.57" fill="#efe2c6" opacity="0.04"/><circle cx="906" cy="1302" r="0.79" fill="#efe2c6" opacity="0.01"/><circle cx="117" cy="163" r="1.01" fill="#efe2c6" opacity="0.02"/><circle cx="328" cy="344" r="0.35" fill="#efe2c6" opacity="0.02"/><circle cx="539" cy="525" r="0.57" fill="#efe2c6" opacity="0.03"/><circle cx="750" cy="706" r="0.79" fill="#efe2c6" opacity="0.04"/><circle cx="961" cy="887" r="1.01" fill="#efe2c6" opacity="0.01"/><circle cx="172" cy="1068" r="0.35" fill="#efe2c6" opacity="0.02"/><circle cx="383" cy="1249" r="0.57" fill="#efe2c6" opacity="0.02"/><circle cx="594" cy="110" r="0.79" fill="#efe2c6" opacity="0.03"/><circle cx="805" cy="291" r="1.01" fill="#efe2c6" opacity="0.04"/><circle cx="16" cy="472" r="0.35" fill="#efe2c6" opacity="0.01"/><circle cx="227" cy="653" r="0.57" fill="#efe2c6" opacity="0.02"/><circle cx="438" cy="834" r="0.79" fill="#efe2c6" opacity="0.02"/><circle cx="649" cy="1015" r="1.01" fill="#efe2c6" opacity="0.03"/><circle cx="860" cy="1196" r="0.35" fill="#efe2c6" opacity="0.04"/><circle cx="71" cy="57" r="0.57" fill="#efe2c6" opacity="0.01"/><circle cx="282" cy="238" r="0.79" fill="#efe2c6" opacity="0.02"/><circle cx="493" cy="419" r="1.01" fill="#efe2c6" opacity="0.02"/><circle cx="704" cy="600" r="0.35" fill="#efe2c6" opacity="0.03"/><circle cx="915" cy="781" r="0.57" fill="#efe2c6" opacity="0.04"/><circle cx="126" cy="962" r="0.79" fill="#efe2c6" opacity="0.01"/><circle cx="337" cy="1143" r="1.01" fill="#efe2c6" opacity="0.02"/><circle cx="548" cy="4" r="0.35" fill="#efe2c6" opacity="0.02"/><circle cx="759" cy="185" r="0.57" fill="#efe2c6" opacity="0.03"/><circle cx="970" cy="366" r="0.79" fill="#efe2c6" opacity="0.04"/><circle cx="181" cy="547" r="1.01" fill="#efe2c6" opacity="0.01"/><circle cx="392" cy="728" r="0.35" fill="#efe2c6" opacity="0.02"/><circle cx="603" cy="909" r="0.57" fill="#efe2c6" opacity="0.02"/><circle cx="814" cy="1090" r="0.79" fill="#efe2c6" opacity="0.03"/><circle cx="25" cy="1271" r="1.01" fill="#efe2c6" opacity="0.04"/><circle cx="236" cy="132" r="0.35" fill="#efe2c6" opacity="0.01"/><circle cx="447" cy="313" r="0.57" fill="#efe2c6" opacity="0.02"/><circle cx="658" cy="494" r="0.79" fill="#efe2c6" opacity="0.02"/><circle cx="869" cy="675" r="1.01" fill="#efe2c6" opacity="0.03"/><circle cx="80" cy="856" r="0.35" fill="#efe2c6" opacity="0.04"/><circle cx="291" cy="1037" r="0.57" fill="#efe2c6" opacity="0.01"/><circle cx="502" cy="1218" r="0.79" fill="#efe2c6" opacity="0.02"/><circle cx="713" cy="79" r="1.01" fill="#efe2c6" opacity="0.02"/><circle cx="924" cy="260" r="0.35" fill="#efe2c6" opacity="0.03"/><circle cx="135" cy="441" r="0.57" fill="#efe2c6" opacity="0.04"/><circle cx="346" cy="622" r="0.79" fill="#efe2c6" opacity="0.01"/><circle cx="557" cy="803" r="1.01" fill="#efe2c6" opacity="0.02"/><circle cx="768" cy="984" r="0.35" fill="#efe2c6" opacity="0.02"/><circle cx="979" cy="1165" r="0.57" fill="#efe2c6" opacity="0.03"/><circle cx="190" cy="26" r="0.79" fill="#efe2c6" opacity="0.04"/><circle cx="401" cy="207" r="1.01" fill="#efe2c6" opacity="0.01"/><circle cx="612" cy="388" r="0.35" fill="#efe2c6" opacity="0.02"/><circle cx="823" cy="569" r="0.57" fill="#efe2c6" opacity="0.02"/><circle cx="34" cy="750" r="0.79" fill="#efe2c6" opacity="0.03"/><circle cx="245" cy="931" r="1.01" fill="#efe2c6" opacity="0.04"/><circle cx="456" cy="1112" r="0.35" fill="#efe2c6" opacity="0.01"/><circle cx="667" cy="1293" r="0.57" fill="#efe2c6" opacity="0.02"/><circle cx="878" cy="154" r="0.79" fill="#efe2c6" opacity="0.02"/><circle cx="89" cy="335" r="1.01" fill="#efe2c6" opacity="0.03"/><circle cx="300" cy="516" r="0.35" fill="#efe2c6" opacity="0.04"/><circle cx="511" cy="697" r="0.57" fill="#efe2c6" opacity="0.01"/><circle cx="722" cy="878" r="0.79" fill="#efe2c6" opacity="0.02"/><circle cx="933" cy="1059" r="1.01" fill="#efe2c6" opacity="0.02"/><circle cx="144" cy="1240" r="0.35" fill="#efe2c6" opacity="0.03"/><circle cx="355" cy="101" r="0.57" fill="#efe2c6" opacity="0.04"/><circle cx="566" cy="282" r="0.79" fill="#efe2c6" opacity="0.01"/><circle cx="777" cy="463" r="1.01" fill="#efe2c6" opacity="0.02"/><circle cx="988" cy="644" r="0.35" fill="#efe2c6" opacity="0.02"/><circle cx="199" cy="825" r="0.57" fill="#efe2c6" opacity="0.03"/><circle cx="410" cy="1006" r="0.79" fill="#efe2c6" opacity="0.04"/><circle cx="621" cy="1187" r="1.01" fill="#efe2c6" opacity="0.01"/><circle cx="832" cy="48" r="0.35" fill="#efe2c6" opacity="0.02"/><circle cx="43" cy="229" r="0.57" fill="#efe2c6" opacity="0.02"/><circle cx="254" cy="410" r="0.79" fill="#efe2c6" opacity="0.03"/><circle cx="465" cy="591" r="1.01" fill="#efe2c6" opacity="0.04"/><circle cx="676" cy="772" r="0.35" fill="#efe2c6" opacity="0.01"/><circle cx="887" cy="953" r="0.57" fill="#efe2c6" opacity="0.02"/><circle cx="98" cy="1134" r="0.79" fill="#efe2c6" opacity="0.02"/><circle cx="309" cy="1315" r="1.01" fill="#efe2c6" opacity="0.03"/><circle cx="520" cy="176" r="0.35" fill="#efe2c6" opacity="0.04"/><circle cx="731" cy="357" r="0.57" fill="#efe2c6" opacity="0.01"/></g>
</svg>
