<svg xmlns="http://www.w3.org/2000/svg" viewBox="0 0 1600 1000" width="1600" height="1000" role="img" aria-label="fog-river">
  <defs>
    <linearGradient id="paper" x1="0" y1="0" x2="1" y2="1">
      <stop offset="0" stop-color="#070908"/>
      <stop offset="0.58" stop-color="#38423b"/>
      <stop offset="1" stop-color="#aaa596"/>
    </linearGradient>
    <filter id="soft">
      <feGaussianBlur stdDeviation="9.6"/>
    </filter>
    <filter id="grain">
      <feTurbulence type="fractalNoise" baseFrequency="0.82" numOctaves="4" seed="117"/>
      <feColorMatrix type="saturate" values="0"/>
      <feComponentTransfer>
        <feFuncA type="table" tableValues="0 0.12"/>
      </feComponentTransfer>
    </filter>
    <filter id="tonalDisplace">
      <feTurbulence type="fractalNoise" baseFrequency="0.018" numOctaves="3" seed="136" result="noise"/>
      <feDisplacementMap in="SourceGraphic" in2="noise" scale="6.4"/>
    </filter>
  </defs>
  <rect width="1600" height="1000" fill="url(#paper)"/>
  <rect width="1600" height="1000" fill="#060504" opacity="0.055"/>
  <rect width="1600" height="1000" fill="#e6d1ad" opacity="0.028"/>
  <g filter="url(#tonalDisplace)">
    <rect x="7" y="803" width="416" height="205" fill="#f4dfb8" opacity="0.01" filter="url(#soft)"/><rect x="164" y="-66" width="480" height="250" fill="#f4dfb8" opacity="0.02" filter="url(#soft)"/><rect x="321" y="65" width="544" height="295" fill="#f4dfb8" opacity="0.03" filter="url(#soft)"/><rect x="478" y="196" width="288" height="160" fill="#f4dfb8" opacity="0.01" filter="url(#soft)"/><rect x="635" y="327" width="352" height="205" fill="#f4dfb8" opacity="0.02" filter="url(#soft)"/><rect x="792" y="458" width="416" height="250" fill="#f4dfb8" opacity="0.03" filter="url(#soft)"/>
    
        <rect x="0" y="420" width="1600" height="240" fill="#d2d0c2" opacity="0.16" filter="url(#soft)"/>
        <line x1="0" y1="500" x2="1600" y2="480" stroke="#e5dfcc" stroke-width="5" opacity="0.14"/><line x1="0" y1="534" x2="1600" y2="510" stroke="#e5dfcc" stroke-width="5" opacity="0.14"/><line x1="0" y1="568.0000000000001" x2="1600" y2="540" stroke="#e5dfcc" stroke-width="5" opacity="0.14"/><line x1="0" y1="602" x2="1600" y2="570" stroke="#e5dfcc" stroke-width="5" opacity="0.14"/><line x1="0" y1="636" x2="1600" y2="600" stroke="#e5dfcc" stroke-width="5" opacity="0.14"/><line x1="0" y1="670" x2="1600" y2="630" stroke="#e5dfcc" stroke-width="5" opacity="0.14"/>
        <path d="M1152 550 C1248 380, 1408 350, 1536 520" stroke="#d4ceb9" stroke-width="11.200000000000001" opacity="0.18" fill="none"/>
        <path d="M128 670 L480 580 L832 650" fill="none" stroke="#070706" stroke-width="10" opacity="0.3"/>
  </g>
  
  <rect x="0" y="0" width="320" height="1000" fill="#020201" opacity="0.18" filter="url(#soft)"/>
  <rect x="1280" y="0" width="320" height="1000" fill="#020201" opacity="0.16" filter="url(#soft)"/>
  <rect x="0" y="0" width="1600" height="180" fill="#020201" opacity="0.1" filter="url(#soft)"/>
  <rect x="0" y="820" width="1600" height="180" fill="#020201" opacity="0.22" filter="url(#soft)"/>
  <rect width="1600" height="1000" fill="#0a0806" opacity="0.028"/>
  <rect width="1600" height="1000" filter="url(#grain)" opacity="0.18"/>
  <g><line x1="1333" y1="50" x2="1330" y2="960" stroke="#f4e6c8" stroke-width="0.8" opacity="0.01"/><line x1="207" y1="50" x2="207" y2="960" stroke="#f4e6c8" stroke-width="0.55" opacity="0.02"/><line x1="617" y1="50" x2="620" y2="960" stroke="#f4e6c8" stroke-width="0.55" opacity="0.03"/><line x1="1027" y1="50" x2="1024" y2="960" stroke="#f4e6c8" stroke-width="0.55" opacity="0.03"/></g>
  <g><circle cx="459" cy="71" r="0.57" fill="#efe2c6" opacity="0.02"/><circle cx="670" cy="252" r="0.79" fill="#efe2c6" opacity="0.03"/><circle cx="881" cy="433" r="1.01" fill="#efe2c6" opacity="0.04"/><circle cx="1092" cy="614" r="0.35" fill="#efe2c6" opacity="0.01"/><circle cx="1303" cy="795" r="0.57" fill="#efe2c6" opacity="0.02"/><circle cx="1514" cy="976" r="0.79" fill="#efe2c6" opacity="0.02"/><circle cx="125" cy="157" r="1.01" fill="#efe2c6" opacity="0.03"/><circle cx="336" cy="338" r="0.35" fill="#efe2c6" opacity="0.04"/><circle cx="547" cy="519" r="0.57" fill="#efe2c6" opacity="0.01"/><circle cx="758" cy="700" r="0.79" fill="#efe2c6" opacity="0.02"/><circle cx="969" cy="881" r="1.01" fill="#efe2c6" opacity="0.02"/><circle cx="1180" cy="62" r="0.35" fill="#efe2c6" opacity="0.03"/><circle cx="1391" cy="243" r="0.57" fill="#efe2c6" opacity="0.04"/><circle cx="2" cy="424" r="0.79" fill="#efe2c6" opacity="0.01"/><circle cx="213" cy="605" r="1.01" fill="#efe2c6" opacity="0.02"/><circle cx="424" cy="786" r="0.35" fill="#efe2c6" opacity="0.02"/><circle cx="635" cy="967" r="0.57" fill="#efe2c6" opacity="0.03"/><circle cx="846" cy="148" r="0.79" fill="#efe2c6" opacity="0.04"/><circle cx="1057" cy="329" r="1.01" fill="#efe2c6" opacity="0.01"/><circle cx="1268" cy="510" r="0.35" fill="#efe2c6" opacity="0.02"/><circle cx="1479" cy="691" r="0.57" fill="#efe2c6" opacity="0.02"/><circle cx="90" cy="872" r="0.79" fill="#efe2c6" opacity="0.03"/><circle cx="301" cy="53" r="1.01" fill="#efe2c6" opacity="0.04"/><circle cx="512" cy="234" r="0.35" fill="#efe2c6" opacity="0.01"/><circle cx="723" cy="415" r="0.57" fill="#efe2c6" opacity="0.02"/><circle cx="934" cy="596" r="0.79" fill="#efe2c6" opacity="0.02"/><circle cx="1145" cy="777" r="1.01" fill="#efe2c6" opacity="0.03"/><circle cx="1356" cy="958" r="0.35" fill="#efe2c6" opacity="0.04"/><circle cx="1567" cy="139" r="0.57" fill="#efe2c6" opacity="0.01"/><circle cx="178" cy="320" r="0.79" fill="#efe2c6" opacity="0.02"/><circle cx="389" cy="501" r="1.01" fill="#efe2c6" opacity="0.02"/><circle cx="600" cy="682" r="0.35" fill="#efe2c6" opacity="0.03"/><circle cx="811" cy="863" r="0.57" fill="#efe2c6" opacity="0.04"/><circle cx="1022" cy="44" r="0.79" fill="#efe2c6" opacity="0.01"/><circle cx="1233" cy="225" r="1.01" fill="#efe2c6" opacity="0.02"/><circle cx="1444" cy="406" r="0.35" fill="#efe2c6" opacity="0.02"/><circle cx="55" cy="587" r="0.57" fill="#efe2c6" opacity="0.03"/><circle cx="266" cy="768" r="0.79" fill="#efe2c6" opacity="0.04"/><circle cx="477" cy="949" r="1.01" fill="#efe2c6" opacity="0.01"/><circle cx="688" cy="130" r="0.35" fill="#efe2c6" opacity="0.02"/><circle cx="899" cy="311" r="0.57" fill="#efe2c6" opacity="0.02"/><circle cx="1110" cy="492" r="0.79" fill="#efe2c6" opacity="0.03"/><circle cx="1321" cy="673" r="1.01" fill="#efe2c6" opacity="0.04"/><circle cx="1532" cy="854" r="0.35" fill="#efe2c6" opacity="0.01"/><circle cx="143" cy="35" r="0.57" fill="#efe2c6" opacity="0.02"/><circle cx="354" cy="216" r="0.79" fill="#efe2c6" opacity="0.02"/><circle cx="565" cy="397" r="1.01" fill="#efe2c6" opacity="0.03"/><circle cx="776" cy="578" r="0.35" fill="#efe2c6" opacity="0.04"/><circle cx="987" cy="759" r="0.57" fill="#efe2c6" opacity="0.01"/><circle cx="1198" cy="940" r="0.79" fill="#efe2c6" opacity="0.02"/><circle cx="1409" cy="121" r="1.01" fill="#efe2c6" opacity="0.02"/><circle cx="20" cy="302" r="0.35" fill="#efe2c6" opacity="0.03"/><circle cx="231" cy="483" r="0.57" fill="#efe2c6" opacity="0.04"/><circle cx="442" cy="664" r="0.79" fill="#efe2c6" opacity="0.01"/><circle cx="653" cy="845" r="1.01" fill="#efe2c6" opacity="0.02"/><circle cx="864" cy="26" r="0.35" fill="#efe2c6" opacity="0.02"/><circle cx="1075" cy="207" r="0.57" fill="#efe2c6" opacity="0.03"/><circle cx="1286" cy="388" r="0.79" fill="#efe2c6" opacity="0.04"/><circle cx="1497" cy="569" r="1.01" fill="#efe2c6" opacity="0.01"/><circle cx="108" cy="750" r="0.35" fill="#efe2c6" opacity="0.02"/><circle cx="319" cy="931" r="0.57" fill="#efe2c6" opacity="0.02"/><circle cx="530" cy="112" r="0.79" fill="#efe2c6" opacity="0.03"/><circle cx="741" cy="293" r="1.01" fill="#efe2c6" opacity="0.04"/><circle cx="952" cy="474" r="0.35" fill="#efe2c6" opacity="0.01"/><circle cx="1163" cy="655" r="0.57" fill="#efe2c6" opacity="0.02"/><circle cx="1374" cy="836" r="0.79" fill="#efe2c6" opacity="0.02"/><circle cx="1585" cy="17" r="1.01" fill="#efe2c6" opacity="0.03"/><circle cx="196" cy="198" r="0.35" fill="#efe2c6" opacity="0.04"/><circle cx="407" cy="379" r="0.57" fill="#efe2c6" opacity="0.01"/><circle cx="618" cy="560" r="0.79" fill="#efe2c6" opacity="0.02"/><circle cx="829" cy="741" r="1.01" fill="#efe2c6" opacity="0.02"/><circle cx="1040" cy="922" r="0.35" fill="#efe2c6" opacity="0.03"/><circle cx="1251" cy="103" r="0.57" fill="#efe2c6" opacity="0.04"/><circle cx="1462" cy="284" r="0.79" fill="#efe2c6" opacity="0.01"/><circle cx="73" cy="465" r="1.01" fill="#efe2c6" opacity="0.02"/><circle cx="284" cy="646" r="0.35" fill="#efe2c6" opacity="0.02"/><circle cx="495" cy="827" r="0.57" fill="#efe2c6" opacity="0.03"/><circle cx="706" cy="8" r="0.79" fill="#efe2c6" opacity="0.04"/><circle cx="917" cy="189" r="1.01" fill="#efe2c6" opacity="0.01"/><circle cx="1128" cy="370" r="0.35" fill="#efe2c6" opacity="0.02"/><circle cx="1339" cy="551" r="0.57" fill="#efe2c6" opacity="0.02"/><circle cx="1550" cy="732" r="0.79" fill="#efe2c6" opacity="0.03"/><circle cx="161" cy="913" r="1.01" fill="#efe2c6" opacity="0.04"/><circle cx="372" cy="94" r="0.35" fill="#efe2c6" opacity="0.01"/><circle cx="583" cy="275" r="0.57" fill="#efe2c6" opacity="0.02"/><circle cx="794" cy="456" r="0.79" fill="#efe2c6" opacity="0.02"/><circle cx="1005" cy="637" r="1.01" fill="#efe2c6" opacity="0.03"/><circle cx="1216" cy="818" r="0.35" fill="#efe2c6" opacity="0.04"/><circle cx="1427" cy="999" r="0.57" fill="#efe2c6" opacity="0.01"/><circle cx="38" cy="180" r="0.79" fill="#efe2c6" opacity="0.02"/><circle cx="249" cy="361" r="1.01" fill="#efe2c6" opacity="0.02"/><circle cx="460" cy="542" r="0.35" fill="#efe2c6" opacity="0.03"/><circle cx="671" cy="723" r="0.57" fill="#efe2c6" opacity="0.04"/><circle cx="882" cy="904" r="0.79" fill="#efe2c6" opacity="0.01"/><circle cx="1093" cy="85" r="1.01" fill="#efe2c6" opacity="0.02"/><circle cx="1304" cy="266" r="0.35" fill="#efe2c6" opacity="0.02"/><circle cx="1515" cy="447" r="0.57" fill="#efe2c6" opacity="0.03"/><circle cx="126" cy="628" r="0.79" fill="#efe2c6" opacity="0.04"/><circle cx="337" cy="809" r="1.01" fill="#efe2c6" opacity="0.01"/><circle cx="548" cy="990" r="0.35" fill="#efe2c6" opacity="0.02"/><circle cx="759" cy="171" r="0.57" fill="#efe2c6" opacity="0.02"/><circle cx="970" cy="352" r="0.79" fill="#efe2c6" opacity="0.03"/><circle cx="1181" cy="533" r="1.01" fill="#efe2c6" opacity="0.04"/><circle cx="1392" cy="714" r="0.35" fill="#efe2c6" opacity="0.01"/><circle cx="3" cy="895" r="0.57" fill="#efe2c6" opacity="0.02"/><circle cx="214" cy="76" r="0.79" fill="#efe2c6" opacity="0.02"/><circle cx="425" cy="257" r="1.01" fill="#efe2c6" opacity="0.03"/><circle cx="636" cy="438" r="0.35" fill="#efe2c6" opacity="0.04"/><circle cx="847" cy="619" r="0.57" fill="#efe2c6" opacity="0.01"/><circle cx="1058" cy="800" r="0.79" fill="#efe2c6" opacity="0.02"/></g>
</svg>
