<svg xmlns="http://www.w3.org/2000/svg" viewBox="0 0 1600 1000" width="1600" height="1000" role="img" aria-label="table-glass">
  <defs>
    <linearGradient id="paper" x1="0" y1="0" x2="1" y2="1">
      <stop offset="0" stop-color="#0a0705"/>
      <stop offset="0.58" stop-color="#3d2c22"/>
      <stop offset="1" stop-color="#aa8e6d"/>
    </linearGradient>
    <filter id="soft">
      <feGaussianBlur stdDeviation="9.6"/>
    </filter>
    <filter id="grain">
      <feTurbulence type="fractalNoise" baseFrequency="0.82" numOctaves="4" seed="118"/>
      <feColorMatrix type="saturate" values="0"/>
      <feComponentTransfer>
        <feFuncA type="table" tableValues="0 0.12"/>
      </feComponentTransfer>
    </filter>
    <filter id="tonalDisplace">
      <feTurbulence type="fractalNoise" baseFrequency="0.018" numOctaves="3" seed="137" result="noise"/>
      <feDisplacementMap in="SourceGraphic" in2="noise" scale="6.4"/>
    </filter>
  </defs>
  <rect width="1600" height="1000" fill="url(#paper)"/>
  <rect width="1600" height="1000" fill="#060504" opacity="0.055"/>
  <rect width="1600" height="1000" fill="#e6d1ad" opacity="0.028"/>
  <g filter="url(#tonalDisplace)">
    <rect x="50" y="862" width="480" height="250" fill="#f4dfb8" opacity="0.01" filter="url(#soft)"/><rect x="207" y="-7" width="544" height="295" fill="#f4dfb8" opacity="0.02" filter="url(#soft)"/><rect x="364" y="124" width="288" height="160" fill="#f4dfb8" opacity="0.03" filter="url(#soft)"/><rect x="521" y="255" width="352" height="205" fill="#f4dfb8" opacity="0.01" filter="url(#soft)"/><rect x="678" y="386" width="416" height="250" fill="#f4dfb8" opacity="0.02" filter="url(#soft)"/><rect x="835" y="517" width="480" height="295" fill="#f4dfb8" opacity="0.03" filter="url(#soft)"/>
    
        <path d="M160 660 H1440" stroke="#e0c391" stroke-width="12" opacity="0.27"/>
        <path d="M960 420 L1088 440 L1072 580 L976 580 Z" fill="#d9a46e" opacity="0.27" filter="url(#soft)"/>
        <path d="M432 570 L768 530 L864 610 L496 670 Z" fill="#d8c096" opacity="0.16"/>
        <path d="M352 580 C544 480, 704 620, 848 540" stroke="#e8d0a8" stroke-width="11.200000000000001" opacity="0.19" fill="none"/>
  </g>
  
  <rect x="0" y="0" width="320" height="1000" fill="#020201" opacity="0.18" filter="url(#soft)"/>
  <rect x="1280" y="0" width="320" height="1000" fill="#020201" opacity="0.16" filter="url(#soft)"/>
  <rect x="0" y="0" width="1600" height="180" fill="#020201" opacity="0.1" filter="url(#soft)"/>
  <rect x="0" y="820" width="1600" height="180" fill="#020201" opacity="0.22" filter="url(#soft)"/>
  <rect width="1600" height="1000" fill="#0a0806" opacity="0.028"/>
  <rect width="1600" height="1000" filter="url(#grain)" opacity="0.18"/>
  <g><line x1="6" y1="50" x2="3" y2="960" stroke="#f4e6c8" stroke-width="0.8" opacity="0.01"/><line x1="445" y1="50" x2="445" y2="960" stroke="#f4e6c8" stroke-width="0.55" opacity="0.02"/><line x1="885" y1="50" x2="888" y2="960" stroke="#f4e6c8" stroke-width="0.55" opacity="0.03"/><line x1="1325" y1="50" x2="1322" y2="960" stroke="#f4e6c8" stroke-width="0.55" opacity="0.03"/></g>
  <g><circle cx="586" cy="234" r="0.79" fill="#efe2c6" opacity="0.03"/><circle cx="797" cy="415" r="1.01" fill="#efe2c6" opacity="0.04"/><circle cx="1008" cy="596" r="0.35" fill="#efe2c6" opacity="0.01"/><circle cx="1219" cy="777" r="0.57" fill="#efe2c6" opacity="0.02"/><circle cx="1430" cy="958" r="0.79" fill="#efe2c6" opacity="0.02"/><circle cx="41" cy="139" r="1.01" fill="#efe2c6" opacity="0.03"/><circle cx="252" cy="320" r="0.35" fill="#efe2c6" opacity="0.04"/><circle cx="463" cy="501" r="0.57" fill="#efe2c6" opacity="0.01"/><circle cx="674" cy="682" r="0.79" fill="#efe2c6" opacity="0.02"/><circle cx="885" cy="863" r="1.01" fill="#efe2c6" opacity="0.02"/><circle cx="1096" cy="44" r="0.35" fill="#efe2c6" opacity="0.03"/><circle cx="1307" cy="225" r="0.57" fill="#efe2c6" opacity="0.04"/><circle cx="1518" cy="406" r="0.79" fill="#efe2c6" opacity="0.01"/><circle cx="129" cy="587" r="1.01" fill="#efe2c6" opacity="0.02"/><circle cx="340" cy="768" r="0.35" fill="#efe2c6" opacity="0.02"/><circle cx="551" cy="949" r="0.57" fill="#efe2c6" opacity="0.03"/><circle cx="762" cy="130" r="0.79" fill="#efe2c6" opacity="0.04"/><circle cx="973" cy="311" r="1.01" fill="#efe2c6" opacity="0.01"/><circle cx="1184" cy="492" r="0.35" fill="#efe2c6" opacity="0.02"/><circle cx="1395" cy="673" r="0.57" fill="#efe2c6" opacity="0.02"/><circle cx="6" cy="854" r="0.79" fill="#efe2c6" opacity="0.03"/><circle cx="217" cy="35" r="1.01" fill="#efe2c6" opacity="0.04"/><circle cx="428" cy="216" r="0.35" fill="#efe2c6" opacity="0.01"/><circle cx="639" cy="397" r="0.57" fill="#efe2c6" opacity="0.02"/><circle cx="850" cy="578" r="0.79" fill="#efe2c6" opacity="0.02"/><circle cx="1061" cy="759" r="1.01" fill="#efe2c6" opacity="0.03"/><circle cx="1272" cy="940" r="0.35" fill="#efe2c6" opacity="0.04"/><circle cx="1483" cy="121" r="0.57" fill="#efe2c6" opacity="0.01"/><circle cx="94" cy="302" r="0.79" fill="#efe2c6" opacity="0.02"/><circle cx="305" cy="483" r="1.01" fill="#efe2c6" opacity="0.02"/><circle cx="516" cy="664" r="0.35" fill="#efe2c6" opacity="0.03"/><circle cx="727" cy="845" r="0.57" fill="#efe2c6" opacity="0.04"/><circle cx="938" cy="26" r="0.79" fill="#efe2c6" opacity="0.01"/><circle cx="1149" cy="207" r="1.01" fill="#efe2c6" opacity="0.02"/><circle cx="1360" cy="388" r="0.35" fill="#efe2c6" opacity="0.02"/><circle cx="1571" cy="569" r="0.57" fill="#efe2c6" opacity="0.03"/><circle cx="182" cy="750" r="0.79" fill="#efe2c6" opacity="0.04"/><circle cx="393" cy="931" r="1.01" fill="#efe2c6" opacity="0.01"/><circle cx="604" cy="112" r="0.35" fill="#efe2c6" opacity="0.02"/><circle cx="815" cy="293" r="0.57" fill="#efe2c6" opacity="0.02"/><circle cx="1026" cy="474" r="0.79" fill="#efe2c6" opacity="0.03"/><circle cx="1237" cy="655" r="1.01" fill="#efe2c6" opacity="0.04"/><circle cx="1448" cy="836" r="0.35" fill="#efe2c6" opacity="0.01"/><circle cx="59" cy="17" r="0.57" fill="#efe2c6" opacity="0.02"/><circle cx="270" cy="198" r="0.79" fill="#efe2c6" opacity="0.02"/><circle cx="481" cy="379" r="1.01" fill="#efe2c6" opacity="0.03"/><circle cx="692" cy="560" r="0.35" fill="#efe2c6" opacity="0.04"/><circle cx="903" cy="741" r="0.57" fill="#efe2c6" opacity="0.01"/><circle cx="1114" cy="922" r="0.79" fill="#efe2c6" opacity="0.02"/><circle cx="1325" cy="103" r="1.01" fill="#efe2c6" opacity="0.02"/><circle cx="1536" cy="284" r="0.35" fill="#efe2c6" opacity="0.03"/><circle cx="147" cy="465" r="0.57" fill="#efe2c6" opacity="0.04"/><circle cx="358" cy="646" r="0.79" fill="#efe2c6" opacity="0.01"/><circle cx="569" cy="827" r="1.01" fill="#efe2c6" opacity="0.02"/><circle cx="780" cy="8" r="0.35" fill="#efe2c6" opacity="0.02"/><circle cx="991" cy="189" r="0.57" fill="#efe2c6" opacity="0.03"/><circle cx="1202" cy="370" r="0.79" fill="#efe2c6" opacity="0.04"/><circle cx="1413" cy="551" r="1.01" fill="#efe2c6" opacity="0.01"/><circle cx="24" cy="732" r="0.35" fill="#efe2c6" opacity="0.02"/><circle cx="235" cy="913" r="0.57" fill="#efe2c6" opacity="0.02"/><circle cx="446" cy="94" r="0.79" fill="#efe2c6" opacity="0.03"/><circle cx="657" cy="275" r="1.01" fill="#efe2c6" opacity="0.04"/><circle cx="868" cy="456" r="0.35" fill="#efe2c6" opacity="0.01"/><circle cx="1079" cy="637" r="0.57" fill="#efe2c6" opacity="0.02"/><circle cx="1290" cy="818" r="0.79" fill="#efe2c6" opacity="0.02"/><circle cx="1501" cy="999" r="1.01" fill="#efe2c6" opacity="0.03"/><circle cx="112" cy="180" r="0.35" fill="#efe2c6" opacity="0.04"/><circle cx="323" cy="361" r="0.57" fill="#efe2c6" opacity="0.01"/><circle cx="534" cy="542" r="0.79" fill="#efe2c6" opacity="0.02"/><circle cx="745" cy="723" r="1.01" fill="#efe2c6" opacity="0.02"/><circle cx="956" cy="904" r="0.35" fill="#efe2c6" opacity="0.03"/><circle cx="1167" cy="85" r="0.57" fill="#efe2c6" opacity="0.04"/><circle cx="1378" cy="266" r="0.79" fill="#efe2c6" opacity="0.01"/><circle cx="1589" cy="447" r="1.01" fill="#efe2c6" opacity="0.02"/><circle cx="200" cy="628" r="0.35" fill="#efe2c6" opacity="0.02"/><circle cx="411" cy="809" r="0.57" fill="#efe2c6" opacity="0.03"/><circle cx="622" cy="990" r="0.79" fill="#efe2c6" opacity="0.04"/><circle cx="833" cy="171" r="1.01" fill="#efe2c6" opacity="0.01"/><circle cx="1044" cy="352" r="0.35" fill="#efe2c6" opacity="0.02"/><circle cx="1255" cy="533" r="0.57" fill="#efe2c6" opacity="0.02"/><circle cx="1466" cy="714" r="0.79" fill="#efe2c6" opacity="0.03"/><circle cx="77" cy="895" r="1.01" fill="#efe2c6" opacity="0.04"/><circle cx="288" cy="76" r="0.35" fill="#efe2c6" opacity="0.01"/><circle cx="499" cy="257" r="0.57" fill="#efe2c6" opacity="0.02"/><circle cx="710" cy="438" r="0.79" fill="#efe2c6" opacity="0.02"/><circle cx="921" cy="619" r="1.01" fill="#efe2c6" opacity="0.03"/><circle cx="1132" cy="800" r="0.35" fill="#efe2c6" opacity="0.04"/><circle cx="1343" cy="981" r="0.57" fill="#efe2c6" opacity="0.01"/><circle cx="1554" cy="162" r="0.79" fill="#efe2c6" opacity="0.02"/><circle cx="165" cy="343" r="1.01" fill="#efe2c6" opacity="0.02"/><circle cx="376" cy="524" r="0.35" fill="#efe2c6" opacity="0.03"/><circle cx="587" cy="705" r="0.57" fill="#efe2c6" opacity="0.04"/><circle cx="798" cy="886" r="0.79" fill="#efe2c6" opacity="0.01"/><circle cx="1009" cy="67" r="1.01" fill="#efe2c6" opacity="0.02"/><circle cx="1220" cy="248" r="0.35" fill="#efe2c6" opacity="0.02"/><circle cx="1431" cy="429" r="0.57" fill="#efe2c6" opacity="0.03"/><circle cx="42" cy="610" r="0.79" fill="#efe2c6" opacity="0.04"/><circle cx="253" cy="791" r="1.01" fill="#efe2c6" opacity="0.01"/><circle cx="464" cy="972" r="0.35" fill="#efe2c6" opacity="0.02"/><circle cx="675" cy="153" r="0.57" fill="#efe2c6" opacity="0.02"/><circle cx="886" cy="334" r="0.79" fill="#efe2c6" opacity="0.03"/><circle cx="1097" cy="515" r="1.01" fill="#efe2c6" opacity="0.04"/><circle cx="1308" cy="696" r="0.35" fill="#efe2c6" opacity="0.01"/><circle cx="1519" cy="877" r="0.57" fill="#efe2c6" opacity="0.02"/><circle cx="130" cy="58" r="0.79" fill="#efe2c6" opacity="0.02"/><circle cx="341" cy="239" r="1.01" fill="#efe2c6" opacity="0.03"/><circle cx="552" cy="420" r="0.35" fill="#efe2c6" opacity="0.04"/><circle cx="763" cy="601" r="0.57" fill="#efe2c6" opacity="0.01"/><circle cx="974" cy="782" r="0.79" fill="#efe2c6" opacity="0.02"/><circle cx="1185" cy="963" r="1.01" fill="#efe2c6" opacity="0.02"/></g>
</svg>
